<svg id="Layer_1" data-name="Layer 1" xmlns="http://www.w3.org/2000/svg" xmlns:xlink="http://www.w3.org/1999/xlink" viewBox="0 0 1406.8 999.6"><defs><style>.cls-1{fill:#fafbfb;}.cls-2{fill:#ee7768;}.cls-3{fill:url(#linear-gradient);}.cls-4{fill:#fff;}.cls-5{fill:#6796cc;}.cls-6{fill:#33495e;}.cls-7{fill:#213042;}</style><linearGradient id="linear-gradient" x1="43.19" y1="93.17" x2="206.31" y2="93.17" gradientUnits="userSpaceOnUse"><stop offset="0.1" stop-color="#213042"/><stop offset="0.18" stop-color="#27384b"/><stop offset="0.33" stop-color="#304559"/><stop offset="0.47" stop-color="#33495e"/><stop offset="0.62" stop-color="#31465b"/><stop offset="0.74" stop-color="#2b3e51"/><stop offset="0.84" stop-color="#213042"/></linearGradient></defs><path class="cls-1" d="M50.81,207a.9.9,0,0,1-.9-.9h0V189.2a1,1,0,0,1,1-1,.79.79,0,0,1,.8.5l8.1,16.1H59l7.9-16.1a1,1,0,0,1,.8-.5,1.08,1.08,0,0,1,.7.3.91.91,0,0,1,.3.7v16.9a1.08,1.08,0,0,1-.3.7,1,1,0,0,1-1.7-.7V191.6h.4L60,206.1a1,1,0,0,1-1.3.3,1,1,0,0,1-.4-.5l-7.1-14.2.5-.1V206A.92.92,0,0,1,50.81,207Z" transform="translate(1200.49 626.1)"/><path class="cls-1" d="M79,207.1a6.29,6.29,0,0,1-3.3-.9,5.89,5.89,0,0,1-2.3-2.4,7.42,7.42,0,0,1,0-6.8,6.89,6.89,0,0,1,2.4-2.4,6.87,6.87,0,0,1,6.8,0A6.89,6.89,0,0,1,85,197a6.65,6.65,0,0,1,.9,3.4l-.7.6a6,6,0,0,1-3,5.3A7.94,7.94,0,0,1,79,207.1Zm.2-1.7a5.42,5.42,0,0,0,2.5-.6,4.24,4.24,0,0,0,1.7-1.8,5.15,5.15,0,0,0,0-5.1,4.9,4.9,0,0,0-1.7-1.8,5,5,0,0,0-5,0,6.17,6.17,0,0,0-1.8,1.8,5.15,5.15,0,0,0,0,5.1,4.45,4.45,0,0,0,1.8,1.8,4.23,4.23,0,0,0,2.5.6Zm5.7,1.6a1.85,1.85,0,0,1-.7-.2.91.91,0,0,1-.3-.7V202l.4-1.9,1.4.4v5.6a1.08,1.08,0,0,1-.3.7c0,.1-.3.2-.5.2Z" transform="translate(1200.49 626.1)"/><path class="cls-1" d="M95.31,207.1a6.65,6.65,0,0,1-3.4-.9,5.89,5.89,0,0,1-2.3-2.4,5.73,5.73,0,0,1-.8-3.4,7.73,7.73,0,0,1,.8-3.4,5.89,5.89,0,0,1,2.3-2.4,6.44,6.44,0,0,1,6-.3,7.23,7.23,0,0,1,2.2,1.7.73.73,0,0,1,.2.6,2.09,2.09,0,0,1-.4.6.66.66,0,0,1-.6.1c-.2,0-.4-.2-.6-.4a4.79,4.79,0,0,0-3.5-1.6,4.22,4.22,0,0,0-3.9,2.4,5.93,5.93,0,0,0,0,5.2,4.85,4.85,0,0,0,1.7,1.8,4.23,4.23,0,0,0,2.5.6,8.81,8.81,0,0,0,1.7-.2,3.92,3.92,0,0,0,1.4-.8c.2-.2.4-.2.6-.3a.73.73,0,0,1,.6.2.86.86,0,0,1,.3.6,1.42,1.42,0,0,1-.2.6A6.45,6.45,0,0,1,95.31,207.1Z" transform="translate(1200.49 626.1)"/><path class="cls-1" d="M104.71,201.6a.91.91,0,0,1-.7-.3.62.62,0,0,1-.2-.7V189.2a1.85,1.85,0,0,1,.2-.7.62.62,0,0,1,.7-.2,1.85,1.85,0,0,1,.7.2.62.62,0,0,1,.2.7v11.5a1.45,1.45,0,0,1-.2.7A1.08,1.08,0,0,1,104.71,201.6Zm0,5.4a.82.82,0,0,1-.9-.8V194.8a.82.82,0,0,1,.8-.9h.1a.88.88,0,0,1,.9.8v11.4a.82.82,0,0,1-.8.9Zm10.3,0a1.08,1.08,0,0,1-.7-.3.86.86,0,0,1-.3-.6v-6.2a4.75,4.75,0,0,0-.6-2.4,4,4,0,0,0-1.5-1.4,5.45,5.45,0,0,0-2.2-.5,3.84,3.84,0,0,0-2.1.5,4.43,4.43,0,0,0-1.5,1.2,3,3,0,0,0-.6,1.8h-1.3a5,5,0,0,1,.8-2.7,6.06,6.06,0,0,1,2-1.9,5.55,5.55,0,0,1,2.8-.7,6.3,6.3,0,0,1,3,.7,5.3,5.3,0,0,1,2.1,2.1,7.64,7.64,0,0,1,.8,3.3v6.2a.71.71,0,0,1-.3.6c0,.2-.2.3-.4.3Z" transform="translate(1200.49 626.1)"/><path class="cls-2" d="M126.71,207a1.08,1.08,0,0,1-.7-.3.91.91,0,0,1-.3-.7V189.2a1.08,1.08,0,0,1,.3-.7.91.91,0,0,1,.7-.3H138a1.85,1.85,0,0,1,.7.2.91.91,0,0,1,.3.7.71.71,0,0,1-.3.6.91.91,0,0,1-.7.3h-10.3v6.6h7.5a.91.91,0,0,1,.7.3,1.05,1.05,0,0,1,0,1.3.91.91,0,0,1-.7.3h-7.5v7.6a1.08,1.08,0,0,1-.3.7A1.85,1.85,0,0,1,126.71,207Z" transform="translate(1200.49 626.1)"/><path class="cls-2" d="M143.31,191.4a1.32,1.32,0,0,1-1.3-1.3,1,1,0,0,1,.4-.9,1.8,1.8,0,0,1,.9-.4,1.37,1.37,0,0,1,1.3,1.3,1.32,1.32,0,0,1-1.3,1.3Zm0,15.6a1.45,1.45,0,0,1-.7-.2.62.62,0,0,1-.2-.7V194.8a1.45,1.45,0,0,1,.2-.7.91.91,0,0,1,.7-.3.88.88,0,0,1,.9.8V206a1.45,1.45,0,0,1-.2.7.91.91,0,0,1-.7.3Z" transform="translate(1200.49 626.1)"/><path class="cls-2" d="M153.41,207a1.15,1.15,0,0,1-.9-.6l-5.3-11.3a.64.64,0,0,1,0-.6,1.21,1.21,0,0,1,.5-.5.64.64,0,0,1,.6,0,1,1,0,0,1,.5.4l5.1,11.1h-1l5-11.1a.66.66,0,0,1,.5-.4.85.85,0,0,1,.7,0,1.21,1.21,0,0,1,.5.5.64.64,0,0,1,0,.6l-5.2,11.3A1.33,1.33,0,0,1,153.41,207Z" transform="translate(1200.49 626.1)"/><path class="cls-2" d="M167.71,207.1a6.65,6.65,0,0,1-3.4-.9,6.89,6.89,0,0,1-2.4-2.4,7.3,7.3,0,0,1-.9-3.5,8.53,8.53,0,0,1,.8-3.5,6.36,6.36,0,0,1,2.2-2.4,6.29,6.29,0,0,1,3.3-.9,7.22,7.22,0,0,1,3.2.8,5.23,5.23,0,0,1,2.1,2.3,7.64,7.64,0,0,1,.8,3.3,1.07,1.07,0,0,1-.2.6.73.73,0,0,1-.6.2h-10.2v-1.5h10.4l-1,.8a5.34,5.34,0,0,0-.5-2.5,3.53,3.53,0,0,0-1.5-1.7,4.65,4.65,0,0,0-2.3-.6,5,5,0,0,0-2.4.6,4.64,4.64,0,0,0-1.6,1.8,5.93,5.93,0,0,0,0,5.2,4.9,4.9,0,0,0,1.7,1.8,4.62,4.62,0,0,0,2.5.6,4.67,4.67,0,0,0,1.7-.3,3.92,3.92,0,0,0,1.4-.8,1.42,1.42,0,0,1,.6-.2.73.73,0,0,1,.6.2.75.75,0,0,1,0,1.2,5.64,5.64,0,0,1-2,1.1A3.31,3.31,0,0,1,167.71,207.1Z" transform="translate(1200.49 626.1)"/><path class="cls-1" d="M73.61,229.3a.9.9,0,0,1-.9-.9V211.5a1,1,0,0,1,1-1,.79.79,0,0,1,.8.5l8.1,16.1h-.8l8-16.1a1,1,0,0,1,.8-.5,1.08,1.08,0,0,1,.7.3.91.91,0,0,1,.3.7v16.9a1.08,1.08,0,0,1-.3.7,1,1,0,0,1-1.7-.7V214H90l-7.1,14.5a1,1,0,0,1-1.3.3,1,1,0,0,1-.4-.5L74.11,214l.5-.1v14.4a1.07,1.07,0,0,1-1,1Z" transform="translate(1200.49 626.1)"/><path class="cls-1" d="M101.81,229.4a6.28,6.28,0,0,1-5.6-3.3,6.72,6.72,0,0,1,2.4-9.2,6.65,6.65,0,0,1,3.4-.9,6.39,6.39,0,0,1,5.8,3.3,6.92,6.92,0,0,1,.9,3.4l-.8.6a6.5,6.5,0,0,1-.8,3.1,5.81,5.81,0,0,1-2.2,2.2A6.5,6.5,0,0,1,101.81,229.4Zm.2-1.7a5.42,5.42,0,0,0,2.5-.6,4.24,4.24,0,0,0,1.7-1.8,5.72,5.72,0,0,0,0-5.1,4.9,4.9,0,0,0-1.7-1.8,5,5,0,0,0-5,0,6.17,6.17,0,0,0-1.8,1.8,5.15,5.15,0,0,0,0,5.1,4.45,4.45,0,0,0,1.8,1.8,5.14,5.14,0,0,0,2.5.6Zm5.7,1.6a1.85,1.85,0,0,1-.7-.2.91.91,0,0,1-.3-.7v-4.1l.4-1.9,1.4.4v5.6a.91.91,0,0,1-.3.7c0,.1-.3.2-.5.2Z" transform="translate(1200.49 626.1)"/><path class="cls-1" d="M113.11,229.3a1.85,1.85,0,0,1-.7-.2.62.62,0,0,1-.2-.7V217.1a.9.9,0,1,1,1.8,0h0v11.3a1.85,1.85,0,0,1-.2.7A1.45,1.45,0,0,1,113.11,229.3Zm-.1-8.1a5.3,5.3,0,0,1,.8-2.7,5.46,5.46,0,0,1,1.8-1.9,4.51,4.51,0,0,1,2.5-.7,4.67,4.67,0,0,1,1.7.3.72.72,0,0,1,.5.9.85.85,0,0,1-.3.5,1.27,1.27,0,0,1-.6.1l-.7-.1a5,5,0,0,0-2.4.3,4.07,4.07,0,0,0-1.7,1.2,3.53,3.53,0,0,0-.6,1.9Z" transform="translate(1200.49 626.1)"/><path class="cls-1" d="M124.11,229.3a1.85,1.85,0,0,1-.7-.2.62.62,0,0,1-.2-.7V211.5a1.85,1.85,0,0,1,.2-.7,1.05,1.05,0,0,1,1.3,0,.62.62,0,0,1,.2.7v16.9a1.85,1.85,0,0,1-.2.7A.85.85,0,0,1,124.11,229.3Zm.6-4.4-1.1-1.2,8.2-7.4a.73.73,0,0,1,.6-.2.86.86,0,0,1,.6.3.73.73,0,0,1,.2.6.86.86,0,0,1-.3.6Zm8.3,4.3a.78.78,0,0,1-1.1,0l-.1-.1-5.3-6.6,1.3-1.1,5.4,6.6a.73.73,0,0,1,.2.6C133.31,228.8,133.21,229.1,133,229.2Z" transform="translate(1200.49 626.1)"/><path class="cls-1" d="M141.71,229.4a6.65,6.65,0,0,1-3.4-.9,6.64,6.64,0,0,1-3.3-5.8,8.53,8.53,0,0,1,.8-3.5,6.36,6.36,0,0,1,2.2-2.4,6.29,6.29,0,0,1,3.3-.9,7.22,7.22,0,0,1,3.2.8,5.83,5.83,0,0,1,2.1,2.3,6.36,6.36,0,0,1,.7,3.3,1.42,1.42,0,0,1-.2.6.73.73,0,0,1-.6.2h-10.2v-1.5h10.4l-1,.7a5.34,5.34,0,0,0-.5-2.5,4.13,4.13,0,0,0-1.5-1.7,4.65,4.65,0,0,0-2.3-.6,4.2,4.2,0,0,0-4,2.4,5.25,5.25,0,0,0,1.7,7,4.42,4.42,0,0,0,2.5.6,4.67,4.67,0,0,0,1.7-.3,3.92,3.92,0,0,0,1.4-.8,1.42,1.42,0,0,1,.6-.2.73.73,0,0,1,.6.2.75.75,0,0,1,0,1.2,5.64,5.64,0,0,1-2,1.1A2.93,2.93,0,0,1,141.71,229.4Z" transform="translate(1200.49 626.1)"/><path class="cls-1" d="M149.61,218.3a1.42,1.42,0,0,1-.6-.2.78.78,0,0,1,0-1.1h0a.73.73,0,0,1,.6-.2h6.2a1.42,1.42,0,0,1,.6.2.78.78,0,0,1,0,1.1h0a.73.73,0,0,1-.6.2Zm6,11a4.18,4.18,0,0,1-3.8-2.2,5,5,0,0,1-.6-2.4V213a1.08,1.08,0,0,1,.3-.7,1,1,0,0,1,1.7.7v11.7a2.88,2.88,0,0,0,.7,2,2.56,2.56,0,0,0,1.9.8h.6a.71.71,0,0,1,.6.3.84.84,0,0,1,.2.7.91.91,0,0,1-.3.7.66.66,0,0,1-.7.2Z" transform="translate(1200.49 626.1)"/><path class="cls-1" d="M161.41,213.7a1.37,1.37,0,0,1-1.3-1.3,1,1,0,0,1,.4-.9,1.49,1.49,0,0,1,.9-.4,1.37,1.37,0,0,1,1.3,1.3,1,1,0,0,1-.4.9A1.27,1.27,0,0,1,161.41,213.7Zm0,15.6a1.85,1.85,0,0,1-.7-.2.62.62,0,0,1-.2-.7V217.1a1.45,1.45,0,0,1,.2-.7.62.62,0,0,1,.7-.2,1.85,1.85,0,0,1,.7.2.62.62,0,0,1,.2.7v11.3a.82.82,0,0,1-.8.9Z" transform="translate(1200.49 626.1)"/><path class="cls-1" d="M168,229.3a1.85,1.85,0,0,1-.7-.2.62.62,0,0,1-.2-.7V217.1a.82.82,0,0,1,.8-.9h.1a1.85,1.85,0,0,1,.7.2.91.91,0,0,1,.3.7v11.3a1.08,1.08,0,0,1-.3.7A1.85,1.85,0,0,1,168,229.3Zm10.3,0a.91.91,0,0,1-.7-.3.86.86,0,0,1-.3-.6v-6.2a5,5,0,0,0-.6-2.4,4,4,0,0,0-1.5-1.4,5.36,5.36,0,0,0-4.3,0,4.43,4.43,0,0,0-1.5,1.2,3,3,0,0,0-.6,1.8h-1.3a5,5,0,0,1,.8-2.7,6.06,6.06,0,0,1,2-1.9,5.55,5.55,0,0,1,2.8-.7,6.7,6.7,0,0,1,3.1.7,5.3,5.3,0,0,1,2.1,2.1,7.64,7.64,0,0,1,.8,3.3v6.2a.77.77,0,0,1-.8.9Z" transform="translate(1200.49 626.1)"/><path class="cls-1" d="M189.11,229.4a6.92,6.92,0,0,1-3.4-.9,5.89,5.89,0,0,1-2.3-2.4,6.81,6.81,0,0,1-.8-3.4,7.3,7.3,0,0,1,.9-3.5,6.89,6.89,0,0,1,2.4-2.4,7.63,7.63,0,0,1,6.9,0,6.89,6.89,0,0,1,2.4,2.4,7.3,7.3,0,0,1,.9,3.5l-1.1.6a7.11,7.11,0,0,1-.7,3.2,6.3,6.3,0,0,1-2.1,2.2A7,7,0,0,1,189.11,229.4Zm.2,5.1a7,7,0,0,1-5.7-2.6c-.2-.2-.3-.4-.2-.6s.2-.4.4-.6a1,1,0,0,1,1.3.3,4.89,4.89,0,0,0,1.8,1.4,4.51,4.51,0,0,0,2.5.5,4.75,4.75,0,0,0,2.4-.6,4.9,4.9,0,0,0,1.7-1.8,5.46,5.46,0,0,0,.6-2.8v-3.6l.7-1.4,1.1.2v4.9a7.3,7.3,0,0,1-.9,3.5,6.51,6.51,0,0,1-5.7,3.2Zm0-6.8a5.42,5.42,0,0,0,2.5-.6,4.24,4.24,0,0,0,1.7-1.8,5.93,5.93,0,0,0,0-5.2,4.9,4.9,0,0,0-1.7-1.8,4.42,4.42,0,0,0-2.5-.6,5.14,5.14,0,0,0-2.5.6,4.24,4.24,0,0,0-1.7,1.8,5.25,5.25,0,0,0,1.7,7A5.14,5.14,0,0,0,189.31,227.7Z" transform="translate(1200.49 626.1)"/><path class="cls-2" d="M178.11,38.5a7.06,7.06,0,0,1,0,9.9l-.3.3a7.56,7.56,0,0,1-10.3-.3,7.47,7.47,0,0,1,.5-10.3,7.13,7.13,0,0,1,10.1.4ZM167.71,48c3.9-.5,7,0,8.2-1.3s1-4.8,0-6.4c-.7-1.1-4.8-1.3-5.9-.3C168.61,41.2,168.71,44.2,167.71,48Z" transform="translate(1200.49 626.1)"/><path class="cls-2" d="M199.11,21.6c-3.1,8.2-6.1,16.5-9.7,24.5-1.8,4-2.3,6.7.2,10.7,29.8,49.2,2.4,111.8-54.1,122.8-23.4,4.6-45-.3-65.7-16a1.9,1.9,0,0,1-.3-2.7c.1-.1.1-.2.2-.2l40.1-37.6c.8-.7,5.4.1,4.7-.7l-.2,2.2c6.6,4.1,36.6-12.6,36.5-12.8-.2-.5-15.2-15.7-33.3-3,2.2-28.9-18.8-7.6-29.5,2.8-8,7.8-17.8,19.8-25.7,27.7-7.2,7.2-8,9.3-12.9.7-17.9-31.7-13-72,11.8-97.2,26.5-26.9,65.2-32.9,98.3-14.9,4,2.1,6.7,1.9,10.7,0,8.1-3.9,16.4-7.1,24.8-10.4Z" transform="translate(1200.49 626.1)"/><path class="cls-3" d="M205.21,12.2c-3.7,9.5-7.1,19.2-11.3,28.5-1.8,4-2.3,6.7.2,10.7,29.8,49.2,2.4,111.8-54.1,122.8-24.1,4.7-46.2-.6-67.5-17.4l43.1-40.4-1.5-1.6a5.56,5.56,0,0,0-.9-1.7c-10.3-10.8-10.4-10.9-21-.5-8,7.8-15.7,16-23.6,24-7.2,7.2-9.8,6.8-14.7-1.8-17.9-31.7-13-72,11.8-97.2,26.5-26.9,65.2-32.9,98.3-15,3.9,2.1,6.7,1.9,10.7,0,9.4-4.5,19.2-8.1,28.8-12.1Z" transform="translate(1200.49 626.1)"/><path class="cls-4" d="M110.11,94.5c1.6-26.9,51.3-69.8,81.1-70.6.7,29.3-41.1,81-68.7,83.3,2.6-2.4,4.3-4,6-5.7l21.6-21.3c2.9-2.8,2.8-5-.2-7.8-12-11-8-11-18.9-.2-6.1,6.1-11.6,12.9-17.4,19.2A25.1,25.1,0,0,1,110.11,94.5ZM168.71,47a8.36,8.36,0,0,0-11.8.2l-.1.1a8.91,8.91,0,0,0,.3,12,8.81,8.81,0,0,0,12-.5,8.21,8.21,0,0,0-.1-11.6C168.81,47.2,168.81,47.1,168.71,47Z" transform="translate(1200.49 626.1)"/><path class="cls-4" d="M163.41,87.4c-1.4,26.6-18.1,43.5-37.1,61.1.6-5.3,1.3-8.9,1.4-12.6.2-5.9,1-12-.2-17.6-1.3-6,.7-8.3,5.6-11.2C143.21,101.3,152.71,94.4,163.41,87.4Z" transform="translate(1200.49 626.1)"/><path class="cls-4" d="M127.81,54.5c-6.9,11.7-13.6,23.2-20.5,34.7a4.74,4.74,0,0,1-3.4,1.9c-11.1.1-22.1.1-32.6,0C79.51,73.8,111.11,53.1,127.81,54.5Z" transform="translate(1200.49 626.1)"/><path class="cls-4" d="M99,119.2c10.5-19.4,24.4-36,40.6-51.4l9.3,9A206.87,206.87,0,0,1,99,119.2Z" transform="translate(1200.49 626.1)"/><rect class="cls-5" x="809.87" width="365.81" height="463.35"/><rect class="cls-6" x="349.34" y="618.7" width="312.39" height="380.9"/><rect class="cls-7" x="716.1" y="618.7" width="312.39" height="380.9"/><rect class="cls-7" y="618.7" width="312.39" height="380.9"/></svg>