<svg xmlns="http://www.w3.org/2000/svg" viewBox="0 0 997.98 2250.51"><path d="M1578.35,1436.69c16.67,5.83,33.61,10.88,49.75,18.2,73.67,33.41,129.94,85.28,167,157.46,2.9,5.65,6.11,7.07,12.32,6.87,82.72-2.75,147.56,58.3,156.35,131.11,5.89,48.77-9.24,90.74-43.25,126-24.06,25-53.37,39.79-87.6,44.59a145.8,145.8,0,0,1-51.09-1.76c-8.47-1.82-8.39-1.78-12.26,5.36-13.86,25.55-30.14,49.32-51.43,69.37a65.53,65.53,0,0,0-7.26,8.17,165.3,165.3,0,0,1-21.11,22.83c-14.7,13.34-25.21,30.08-36.19,46.35a491.36,491.36,0,0,1-30.78,40c-2.34,2.8-5.14,5.35-6.89,8.48-10.43,18.63-23.78,35.43-33.81,54.3-3.44,6.47-5.94,13.33-8.49,20.16-5,13.4-9.66,26.93-14.68,40.33a9.16,9.16,0,0,0,.72,8.62c6.33,11.33,8.23,24.44,14.11,36a2.06,2.06,0,0,1,.2.81c.4,19.56,3.14,39.25-4.28,58.27-6.55,16.79-14.92,32.64-23.66,48.35-10.11,18.18-19.6,36.65-24.49,57.07-.84,3.55-1.72,7.1-2.32,10.69a46.12,46.12,0,0,0,1.94,22.89c6.08,18.64,9.8,38,9.26,57.86-.08,3.06.14,6.25-3.17,8.14-2.18,1.25-1.1,3.55-1.4,5.38-.36,2.19-1.44,3.65-3.66,4a4.32,4.32,0,0,1-4.36-2,21.94,21.94,0,0,1-2.35-4.44,120.09,120.09,0,0,1-8.36-34.17c-1.25-14.29-2.17-28.55-1-42.87.26-3.32-1-6-2.49-8.72-8.24-14.38-14.8-29.64-22.81-44.12-10.48-18.92-16.53-39.22-20.56-60.26-2.75-14.32-5.5-28.65-8.05-43a55.66,55.66,0,0,1,.4-23.41c1.32-5.31,1-10.39-.26-15.75-7.28-32.34-16.84-64-26.84-95.59a62.79,62.79,0,0,0-5.47-13.18c-15.6-26.36-31.32-52.41-57.13-70.73-17.38-12.34-33-27-49.19-40.88-8.93-7.65-19-13.85-27.74-21.86-18.24-16.69-34.94-34.93-53-51.8-4.22-3.95-7.27-4.45-12.43-2.59-109.36,39.29-228.3-28.22-250.27-144.13-14.88-78.52,22.86-162,94.24-200.6,32-17.28,65.8-25.36,102-23.45,5.13.27,7.53-1.43,9.77-5.65,26.8-50.36,64.3-91.1,111.71-122.6,39.77-26.42,83.41-43.61,130.26-52.66,3.31-.63,6.64-1.14,10-1.7l6.05,0a7.75,7.75,0,0,1-.92,4.65c-1.72.91-2.69,2-.71,3.6a8.94,8.94,0,0,1-.9,4.85c-3,1.74-2.75,4.66-1.75,7s2.39,1,3.22-.64c3.48-2.48,6.19.13,9.11,1.39,5.23,2.26,9.83,6.18,16,6.1,1.58,2.16,2.68,1.26,3.64-.57,2.47-.41,4.94-.93,7.44-1.22a8.35,8.35,0,0,0,5.8-3c4.74-5.62,9.22-11.27,10-19,.38-3.89,1.49-7.7,2.26-11.55,3.3-.35,4.51,1.23,4.45,4.42-.09,4.77,0,9.55.15,14.32,0,1.52-.42,3.61,2.61,3.5,1.45-4.26.63-8.77.83-13.17.13-3,.24-5.7,4-6.26.2,1.82-.52,3.79.83,5.44,0,.84,0,1.68,0,2.52,4.22,3.17,9.63,3.5,16.93,1,4,.64,4.57,4.5,6.54,7,3.6,4.55,5.95,10.06,10.54,13.86,6.8,5.63,7.5,5.42,15.31,1.17,6-3.26,10.86-8.64,18-9.9.12,4.16.11,8.34.45,12.48a3.1,3.1,0,0,0,3.25,3.11,2.76,2.76,0,0,0,2.83-2.56c.16-7.91,2-15.91-1-23.68,0-3.94-.06-7.87-.08-11.81l3.1-2.26c0,4.91,0,9.28,0,13.65C1576,1433.2,1575.68,1435.57,1578.35,1436.69ZM1197.14,1905c.12,9,3.69,17,8.21,24.33,6.78,11,14.45,21.39,22,31.85,4.43,6.12,4.9,6.06,11.78,2.67,24.86-12.26,45.52-29.65,62.51-51.46,4.28-5.49,4.06-5.5.6-11.7-11.78-21-24.07-41.86-31.47-65-.28-.88-1.07-1.17-2.41-1.08-4.55,9-6,20.6-17.55,24.83-2.62-2.17-.52-4.47.5-5.89,5.6-7.84,8.77-16.9,13.18-25.32a19.13,19.13,0,0,0,1.9-11.37c-1.11-10-2.65-20.07-1.55-30.21,2.83-26,10.88-50.37,23.2-73.36,10.37-19.35,24.31-35.06,45.44-43,4.47-1.67,4.64-4.18,4.34-8.35-1.45-20.46-1.55-40.89,1.53-61.29,3.48-23,13.78-43.07,25.12-62.9,17-29.78,44-43.66,76.52-49,2.19-.37,4.76-.87,6.67-.1,4.67,1.88,8.69.14,13-1,8.81-2.41,17.64-3.55,26.13,1.37a13.62,13.62,0,0,0,9,1.43c8.32-1.22,16.65-2.45,25-3.74,1.33-.21,2.79-.5,3.26-2.49-6.1-.67-12.15-1.44-18.22-1.94-3.53-.3-7.31-1.13-9.65,3a2,2,0,0,1-3.55,0c-2.4-4.56-6.54-3.5-10.32-3.53a304.19,304.19,0,0,0-80.74,10.34c-67.16,17.82-123.72,52.32-166.66,107.6-24.21,31.17-41.73,65.72-50.77,104.4a410.49,410.49,0,0,0-9.76,61.4,298,298,0,0,0,1.4,56.29c2.79,25.18,9.36,49.58,17.85,73.44.82,2.32,1,5,3.31,6.58C1197,1902.85,1197.06,1903.94,1197.14,1905Zm492.68-257c6.4,4.11,8.53,11.62,13.22,17,2.43-.93,3.72-2.86,5.36-4.37a157.61,157.61,0,0,1,31.29-22.64c11.92-6.5,12.06-6.55,4-18.18-35.52-51.57-82.62-88.82-140.22-113-1.17-.49-2.41-1.54-3.86.21,3.12,4.51,6.42,9,9.46,13.69,11.24,17.28,20.94,35.28,23.38,56.18a280.49,280.49,0,0,1,2.09,28.51c.46,30.57.41,61.09-2.42,91.63-2.27,24.55-2.64,49.29-3.66,74-.61,14.87-1.44,29.84-4.29,44.33-5.25,26.65-11.06,53.24-18.39,79.42-4.62,16.5-8,33.23-11.34,50-4.56,22.89-6.61,46.06-7.91,69.29-.6,10.71-1.12,21.49-.36,32.18,1.72,0,1.73-1,2-1.69,22.84-50,46-99.87,67.58-150.42,7.38-17.27,15.3-34.33,19.88-52.67.86-3.45,1.09-6.38-.46-9.68-5.27-11.23-7.94-23.26-10.9-35.27A122.15,122.15,0,0,1,1663,1744c4.69-25,14.79-47.62,30.93-67.3,3.65-4.46,4.06-8,1.21-12.79-2.73-4.55-4.86-9.46-7.25-14.22C1688.54,1649.14,1689.18,1648.57,1689.82,1648Zm-316,19.47c0,.72.07,1.44.1,2.17-7.09-2.78-13.81-.58-20.54,1.55-2.5.79-3.62,2.41-3.18,5.08.6,3.6,1,7.22,1.67,10.81,5.23,28.71,10.85,57.3,21.78,84.57a181.49,181.49,0,0,1,8.68,29.87c4.29,20.12,5.35,40.59,6,61.06a397.48,397.48,0,0,1-1.81,55.53c-2.85,25.75-2.62,51.55-2.28,77.37a31.7,31.7,0,0,0,.7,5,498.39,498.39,0,0,0,13.52,56.41c8.92,29.26,16.5,58.86,24.58,88.33,2.36,8.62,3.8,17.57,8,25.65,5.7,11,10,22.63,11.64,35,2.61,19.79,8.11,38.94,12.14,58.42.41,2,.67,4.05,2.77,5.57,4.46-11.63,5.87-23.32,7.55-35,2.71-18.8,3.65-37.89,9.55-56.19q-1.2,25.46-3.07,50.85c-1.32,18.45-2.3,37-7.73,54.86-2,6.55-1.78,13.05-.13,19.83,3.59,14.7,6.75,29.53,9.66,44.38,10.39,53,10.31,53.06,30.27,92.91,1.22,2.46,1.91,5.31,4.38,7.05.36-.47.88-.85,1-1.33,4.47-19.89,12.64-38.3,22.33-56.11a15.86,15.86,0,0,0,1.8-7.27q1-30.73.35-61.48a234.12,234.12,0,0,1,1.27-32.77c2.54-21.46,4.75-42.92,6.35-64.47.9-12,1.7-24.07,4-35.93a826.45,826.45,0,0,1,27.46-104A52.31,52.31,0,0,0,1575,2072c1.39-18.5,0-37,.71-55.54a574.5,574.5,0,0,1,8-74.37c4.88-29.12,14.27-57.12,20.35-85.92,3.24-15.36,8-30.46,10.39-45.93,4.6-29.39,6.27-59.11,7.29-88.85.37-10.93.82-21.9,2-32.76,3.72-33.87,3.32-67.83,2.64-101.79a91.41,91.41,0,0,0-5-28.91c-5.88-16.56-14.72-31.47-25.16-45.51a23.26,23.26,0,0,0-8.91-7.5c-8.41-3.88-16.67-8.1-25.23-11.6a55.54,55.54,0,0,0-34.48-2.91c-11.73,2.66-23.49,5.56-35.65,7-14.63,1.72-28.95,6.48-40.77,16.63-3.65,3.14-5.16,6.28-4.71,10.83,1,10.47,5.64,19.41,12.29,27.2,5.4,6.32,14,5.91,19.71-.42,3.38-3.74,6.39-7.82,9.69-11.65,1.24-1.44,2.83-3.42,4.85-2.52,2.44,1.08,2.21,3.84,1.65,6a19.52,19.52,0,0,1-2.85,6,122.45,122.45,0,0,1-7.77,10c-8.51,9.79-21.79,10.94-31.29,2.27a51.86,51.86,0,0,1-16.06-29c-2.35-12.24,1.52-19.27,12.13-25.77,8-4.87,16.21-8.93,25.28-11.23,1.09-.28,2.9.07,2.71-2.44a38.38,38.38,0,0,0-14.07,1.18,104.41,104.41,0,0,1-14.79,3.09c-12.09,1.42-23.49,5.6-34.59,10.21-15.44,6.41-27.67,17.22-36.59,31.29-13.45,21.22-24.68,43.39-27.52,69-1.71,15.42-1.25,30.84-1,46.27.18,10.11-1.27,11.71,10.54,8.64C1364.91,1661.34,1370.06,1662,1373.81,1667.47Zm-60.71,227.42a36,36,0,0,0,2.26-2.9,184.14,184.14,0,0,0,24.82-93.86c0-3.36.06-6.73.16-10.09a2,2,0,0,1,2.09-2.09,2.68,2.68,0,0,1,1.87,1.45,12.62,12.62,0,0,1,.9,4,182.2,182.2,0,0,1-26.52,105.15c-1.88,3.16-1.93,5.49-.23,8.46,5.29,9.24,10.34,18.61,15.7,27.82,13.81,23.73,28.67,46.88,40.08,72,.84,1.84,1.17,4.42,3.9,5,1.65-2.12,1.09-4.52.52-6.42-1.76-5.8-1.34-11.68-1.36-17.54q-.07-19.8.06-39.58a216.92,216.92,0,0,1,2.16-25.9c2.16-17,2-34.17,2-51.1,0-14.34-.14-29-2.24-43.51-2.54-17.53-5.46-34.89-12.44-51.16-12.75-29.77-20.88-60.8-26.66-92.53-.94-5.16-1.79-5.78-6.57-3-9.28,5.36-17.5,11.93-24.11,20.59-10.7,14-17.23,30.07-23.3,46.37a156.25,156.25,0,0,0-9.58,46.66c-.53,10.46,1.24,21.16,3.8,31.51a143.59,143.59,0,0,0,11.93,32.23C1299,1869.08,1304.86,1882.06,1313.1,1894.89Zm238.58,335.82c1.84-.81,2.16-2.12,2.62-3.43,3.17-9,6.48-17.9,9.59-26.9,5.32-15.38,11.6-30.26,20.3-44.13s18.46-27.46,25-42.78c.85-2,2.48-3.7,3.85-5.46,11.54-14.77,23.49-29.21,34-44.82,9.67-14.42,19.72-28.63,32.74-40.37,4.15-3.75,8.74-7,12.63-11,13.27-13.65,26.37-27.47,38.61-42.06s22.57-30.66,31.75-47.38c3.37-6.15,2.8-7.63-3.56-10a145.35,145.35,0,0,1-69.58-54.72c-.78-1.12-1.66-2.27-3.49-2.22-2.72,4.21-3.44,9.32-5.4,13.94-11.62,27.31-23.1,54.68-35.57,81.64-15.64,33.82-31,67.77-46.73,101.55a347.93,347.93,0,0,0-19.76,51.75c-11.11,39.22-23.38,78.22-27.45,119.08C1550.94,2225.69,1550.44,2228.1,1551.68,2230.71Zm-366.43-325c-6.73-15.36-12.94-30-17.08-45.4a299,299,0,0,1-10.63-93.3c-2.15,9.64-4,19.2-6.49,28.63a22.7,22.7,0,0,0-1.16,7.42c.29,3.9-.92,7-4.49,9.09a19.4,19.4,0,0,1-4.2-9.9c-.75-4.71-1.22-9.41-1.74-14.13a303.83,303.83,0,0,1-.06-64.52c.79-7.81,1.81-15.52,3.36-23.2,1-5.05-.31-6.34-5-5.24-25.84,6.08-48.42,17.81-64.56,39.49-26.26,35.27-30.2,73.21-11.66,113.1,11,23.6,30.2,39.2,52.29,51.76,10.45,6,22,7.71,33.68,9.48C1160.26,1910.92,1172.32,1908.51,1185.25,1905.72Zm502.88-61.51c-.21,3.53,1.87,6,3.62,8.48a150.39,150.39,0,0,0,70.49,55.18c6.62,2.55,6.72,2.44,9.77-4.33a279.07,279.07,0,0,0,21.66-74c1-7,.76-6.7-5.32-10.82-10.46-7.08-20.67-14.57-25.54-27-9.61-24.52-.44-51.93,22.1-66.21,5.89-3.73,6-3.75,4.27-9.83-7-25-18.59-48.06-30.23-71.1-2-3.87-4-4.49-7.9-2.51a152.84,152.84,0,0,0-39,27.56c-3.57,3.51-4.72,6.49-3.29,11.69a148.22,148.22,0,0,1,4.87,50,319.21,319.21,0,0,1-16.48,81.36C1693.58,1823,1691.1,1833.69,1688.13,1844.21Zm-277.93,292.3c.38-1.19.77-1.74.67-2.19a478.77,478.77,0,0,0-18.13-65.44c-5.38-15.1-12.89-29.23-19.57-43.73-5.86-12.71-12.32-25.18-19.09-37.48-8.93-16.23-19.84-31.22-28.56-47.55-4-7.42-8.18-14.69-12.45-21.93-3.37-5.72-4.71-5.75-8.76-.63a193.79,193.79,0,0,1-33,32.11,200.49,200.49,0,0,1-29,18.45c-5.65,3-5.83,3.85-1.16,8.35,4.23,4.08,8.94,7.66,13.14,11.77,10.23,10,20,20.5,30.51,30.22,7.38,6.83,14.39,14.21,22.94,19.67,12.58,8,23,18.74,34.4,28.16,9.49,7.82,19.07,15.59,28.26,23.78,12.57,11.2,25.21,22.34,34.3,36.77C1406.52,2129.86,1408.19,2133,1410.2,2136.51Zm268.67-310c5.6-16.25,12.47-31.79,16.64-48.28,3.57-14.08,7.07-28.26,8.29-42.67,1.15-13.64.29-27.45.29-41.18,0-3.92-1.43-7.47-2.31-10.82-2.08-.49-2.52.7-3.2,1.51-8.94,10.67-14.78,23.1-19.78,35.89-7.74,19.78-10,40.47-10.11,61.63C1668.59,1798.1,1672.78,1812.32,1678.87,1826.54ZM1149,1768.86c1.18-6.28,3.15-11.7,4.58-17.22,3.11-12,8.64-23.14,11.85-35,8.2-30.32,21.24-58.46,37.32-85.31.93-1.55,2.77-3,1.33-5.57-5.22-1.17-10.65-2.55-16.14-3.58-7.92-1.48-8.21-1.33-11.54,5.87a314.81,314.81,0,0,0-29.2,132.92A15.17,15.17,0,0,0,1149,1768.86Zm651.52-49.8c4.91-2,10.29-1.14,15.57-1.3,3.39-.11,4-1.49,3.56-4.82-3.38-23.63-10.66-46.17-19.18-68.32-6.35-16.51-9-17.39-25.84-11.2-.27.1-.54.14-.81.22-3.92,1.11-4.73,3.48-2.91,7,1.53,3,3,6,4.5,9a189.7,189.7,0,0,1,16.36,44.73c1.64,7.06,3.36,14.1,4.94,21.17C1797.19,1717.62,1797.62,1719.43,1800.54,1719.06Zm58.5,48.69c-1.43-13.72-9.85-27.64-25.93-36.71-1.45-.82-3.15-1.86-4.69-.66s-.52,3-.37,4.65a211.78,211.78,0,0,1,.08,39.33c-1.12,12.18-1.58,24.44-4.16,36.49-.86,4,1,5.31,4.76,3.85C1844.53,1808.51,1859.36,1791.89,1859,1767.75Zm-317.79,559.36c-2.59,16-2.49,31.22-2,46.71,1.19-.47,1.92-.51,2.12-.86,10.47-18.23,21-36.46,23.85-57.8,1.4-10.59,1.88-21.48.24-31.86-1.4-8.9-6.1-17.29-9.49-25.85-.65-1.63-.92-3.86-3.21-4.26A3.23,3.23,0,0,0,1551,2256c-2.58,18.54-5.38,37.06-5.23,55.85,0,6.18,0,12.35.07,18.52,0,.7-.29,1-1.23.94Zm251.24-595.2c-22.31,9.39-29.85,36.75-21.45,57,3.93,9.49,8.44,18.91,19,23.25,5.51,2.26,6.58,1.94,6.63-3.82C1796.94,1783,1798.29,1757.55,1792.49,1731.91Zm30.93,29.3c.46-7.89-1-15.67-1.29-23.51-.44-10.61,1.49-11.62-12.9-11.28l-.84,0c-8.32.76-9.12,1.77-7.73,9.93,1.46,8.56,2.29,17.2,3.21,25.84,1.67,15.72.72,31.35-.2,47-.46,7.93-.15,8.08,7.44,8.25,6.35.14,6.48,0,7.58-6.11C1821.7,1794.8,1822.76,1778,1823.42,1761.21Zm-306.06,732c0,15.53.52,31,7.32,45.34C1526.47,2522.74,1519.42,2508.4,1517.36,2493.22Zm-137.81-479.4c-.08.22-.25.46-.21.65.2.77.55.81.87.09a.84.84,0,0,0-.14-.67C1380,2013.8,1379.73,2013.84,1379.55,2013.82Z" transform="translate(-966.99 -302.17)" fill="#da6a5c"/><path d="M1430.68,394.13c.31-4.82,3.66-8.1,6-11.88,4.12-1.39,5-4.7,5.15-8.51a2.76,2.76,0,0,1,.67-1.54c4.42-1.4,5.34-4.77,5-8.85l5.27-9.08c2.55-.55,3.43-2.16,3-4.64a28.39,28.39,0,0,1,6.76-11.41c4.48-1.22,7.59-3.55,7.09-8.79a2,2,0,0,1,.74-1.27c4.74-.52,5.88-3.74,5.85-7.83q7.2-7.57,14.4-15.15c2-2.07,4.2-3.27,7.13-2.31,3.1,4.88,6.61,4.26,10.34.8,6,2,8.68,7.38,12.14,12,.38,6.13,4.18,9.08,9.69,10.44a4.69,4.69,0,0,1,2.53,3.29c-.67,2.76.31,4.42,3.19,4.83a16.83,16.83,0,0,1,4.69,7.31c-.63,3.89,1.3,5.92,4.88,6.78a2.9,2.9,0,0,1,.86,1.6c-.26,2.41.72,3.93,3.17,4.38q1.63,2.52,3.26,5c1.28,8.18,4.24,15.49,10.79,20.95,3.75,7.11,8.84,13.6,10.13,21.86-2.54,2.68.06,5,.69,7.33,5.63,20.28,14.17,39.66,17.13,60.81,2.84,20.19,9.41,39.85,8.77,60.56-.08,2.49.41,4.65,3.22,5.43,0,1.3.07,2.6.11,3.91-.36.53-1,1.07-1,1.61-.13,12-.19,24.1-.25,36.15a4.09,4.09,0,0,0,3.18,4.33l.12,3.9c-1.84,6.84-3.36,13.67,1.13,20.16,1.38,3.15,1.6,6.87,5.06,8.94,4.27,2.57,4.63,6.6,3.57,11-3.47,2.08-3.31,5.41-2.91,8.75a2.72,2.72,0,0,0,2.46,2.65,2.8,2.8,0,0,0,3.07-1.88c1.38-3.34,2.89-6.65,4.07-10.06,4-11.5,7.91-23,11.61-34.58,1-3.2,2.23-5.46,6-5.09q.11,3,.19,6c-1.83,1.34-1.76,2.64.08,3.91l-.55,9.77c-5.6,4.94-3.55,10.58-1.46,16.22q-.29,4.89-.56,9.78c-5.56,5-3.53,10.58-1.46,16.21-.18,3.26-.36,6.53-.55,9.79-5,4.31-3.91,9.2-1.35,14.23-.18,3.26-.35,6.53-.52,9.79-5.67,5.61-3.44,11.92-1.59,18.19l-.58,9.78c-4.91,4.33-3.87,9.21-1.33,14.24q.26,5.82.53,11.64a33.4,33.4,0,0,0-4.27,20.5c.21,2.28,0,4.61-2.22,6.07-2.69-5.69-1-11.76-1.5-17.64-.31-3.58-1.88-5.85-5.37-5.86-4.16,0-3,3.58-3.2,6-1.81,23.54-1.51,47.14-1.91,70.71-.15,9.39,1,10.41,11.46,12.1,1.73-3.45.84-7.15.84-10.72,0-15.61-.08-31.21-.14-46.81l5.29.36.45,25.76c-.51.82-1.45,1.62-1.46,2.44q-.18,15.12-.1,30.25c0,1.8,1.25,2.91,2.88,3.55,1.65,5.31,6.36,6.55,10.81,8.14a4.64,4.64,0,0,1-2.44,4.18l-5.48-1.82c-2.5-1.62-4.53-1.1-5.49,1.68a15.53,15.53,0,0,0-.38,4.94q-.09,31-.11,62c0,2.29-.37,4.71,1.6,6.54-.37,7.34,5.31,8.46,10.43,10.15l0,5.65c-1.24-.35-2.47-.73-3.71-1.05-5.65-1.45-6.22-1.1-6.67,4.36-.3,3.56-.52,7.12-.77,10.68-3.54,5.51-4.08,19.52-1.09,28.26-.07,9-.11,17.93-.22,26.89-.12,10.54-.14,10.51,10.55,14,2.19.71,4.27,1.8,6.39,2.71l-4.39,4a11.42,11.42,0,0,1-2-.24c-10.6-3.09-10.67-3-10.63,7.39q.09,20.68.21,41.36c-2.51,5.5-3.15,11,.51,16.26l1.65,7.88c-1,2.1-2.15,4.16-1.81,6.62-5.5,1.93-7.34-4.81-11.93-5-.63-2.79-1.49-4.88-4.2-1.39-7.81-.38-7.78-.38-7.88,6.72-.2,14,8.27,24.29,13.91,36.64,3.07-3.64,1.59-6.82,2.57-9.51,2.86-.31,3.29,2.77,5.21,3.76,0,11.32-1.44,22.85,4.87,33.24-.85,2.67,0,4.4,2.82,5,.89,2.3,1.24,4.61,3.49,6.52a41.88,41.88,0,0,1,9.27,11c-.23,4.1,1.81,6.11,5.81,6.33a74.13,74.13,0,0,1,14.15,15.74c-.23,2.81,1.08,4.22,3.89,4.23a30.5,30.5,0,0,1,7.85,8.36c1.11,4.57,6.56,4.43,8.63,8l1.56,3.55c.21,4.89,3.07,7.36,7.59,8.32,4.4,3.06,7.27,7.49,10.42,11.67.65,5.76,4.36,8.72,9.51,10.36,3.67,2.45,5.94,6.15,8.53,9.58.56,5.86,4.32,8.79,9.52,10.4,6.8,6.58,13.38,13.35,18.83,21.14.49,5.74,1,11.47,6.59,15,1.25,1.75,2.56,3.47,2.46,5.8a4.12,4.12,0,0,0-.78,5.41c3.64,6.81,3.22,13.88,1.65,21.07l-1.71,5.09c-2,.87-3.52,1.93-1.42,4.2l-1.08,3.82c-1.82,1.13-3,2.39-.74,4.23a17.76,17.76,0,0,1-.74,7.76,3.85,3.85,0,0,0-3,3.52,19.23,19.23,0,0,1-7.85.23,46.52,46.52,0,0,0-25.76,0c-17.28.21-34.57.68-51.82-.81-2.14-3.82-5.84-2.49-9-2.52q-25.44-.21-50.88-.11c-9.39,0-19-1.46-27.71,3.88-7.65-12.48-13.52-25.83-19.11-39.32.1-2.23.19-4.46.29-6.7a1.76,1.76,0,0,1,1.47-.36c4.69,3,9.51,3.94,14.57.88,5.28-.16,10.57-.3,15.78.87,4.5,6.17,9.57,1.11,14.41.73l15.56,1.2c5.06,5.14,10.63,3.42,16.24,1.23,5.28-.12,10.56-.32,15.75.9,5.11,4.69,10.65,3.27,16.24,1.15,4.62-.19,9.22-.29,13.77.78,5.08,4.83,10.64,3.32,16.24,1.19,5.27-.14,10.55-.31,15.75.9a20.12,20.12,0,0,0,20.71.14,1.81,1.81,0,0,1,.82-1c3.84-6,3.82-8.94-.1-14.68.44-8.68-3.81-14.74-10-20.48-11.68-10.85-22.77-22.35-34-33.67-12.41-12.48-24.72-25-37.08-37.59-.07-.65.1-1.5-.25-1.93a171.15,171.15,0,0,0-27.91-27.81c-.44-.34-1.28-.15-1.94-.21a54.06,54.06,0,0,1-17.83-22.22c.17-3.29-2.13-3.88-4.64-4.22-2.14-5-1.44-10.34-1.37-15.57,2.6-4.32,3.72-8.53-.92-12.3A96.1,96.1,0,0,1,1602,1138q4.4-4-1.07-6.3c-3.28-18-5-36.21-7.29-54.35-4.78-38.27-10.81-76.4-14.79-114.75-4.16-40.2-13.91-79.17-22.78-118.38-1.5-6.63-2.38-7.26-8.95-6-16.41,3.09-33,3.55-49.6,4.89a49.42,49.42,0,0,1-19.66-2.1c-5.37-1.75-10.86-3.14-16.29-4.72-3.14-.92-5.1,0-5.8,3.37q-7,34.15-14.1,68.29c-1.53,2.85-2.75,5.74-.93,9.64a15.72,15.72,0,0,0,3.55-7c4.89,0,6.2-3,6.18-7.19,0-4.85,2.59-7,7.18-7.95,14.41-3,28.07-8.35,41.66-13.85a17.2,17.2,0,0,1,11.64-.94,422.91,422.91,0,0,1,46.38,15.56c2.63,1.08,4.59,2.24,4.72,5.58.32,8.64.86,17.29,1.46,25.92.28,4.08-1.55,6.28-5.42,7-2.29.41-4.59.82-6.91,1.09-7.27.85-7.8,1-9.89-6.29-1.75-6.12-5.58-8.19-11.22-9.55-15.47-3.74-31.11-2.64-46.75-2.53-4.71,0-7.78,2.3-9.33,6.19-2.92,7.32-8.68,9.47-15.74,9.74-3.65.14-7.31.14-11,.2-.59-1.7-.75-3.61-2.42-4.87a7.71,7.71,0,0,0-2.21,4.88c-2.68,2.8-3.39,6.33-3.32,10,.15,8.81.5,17.62.78,26.43q-.18,14-.37,28-3.73,3.06.11,6,0,4,0,7.94l-5.23-.22q-.24-12.87-.49-25.75c2.71-2.71,2.73-5.37-.13-8q-.18-8.79-.35-17.58c.48-3.34,1.3-6.75-1.7-10.52-2.88,3.38-2.21,6.61-2.31,9.64-2.25,14.2-5.47,28.2-8.8,42.17-2.4.9-3.81,2-1.13,4.29l-1,5.69c-2.29,1-3.64,2.14-1,4.29q-.54,2.85-1.1,5.7c-2.14,1-3.5,2.2-1,4.29-.21,1.25-.41,2.5-.61,3.75-3.15,1-3.67,2.53-.78,4.59.18,1.13.36,2.27.53,3.4-1.69.67-3.18,2-2.52,3.72,1.75,4.49,2.53,9.53,6.54,12.89l1,5.7c-2.68,2.24-1.25,3.39,1.13,4.29,2.08,9.29,4.18,18.58,6.21,27.88.42,2,.69,4.18-1.87,4.83-1.9.49-2.92-1-3.5-2.64.28-2.27,1-4.77-1.88-5.91a3,3,0,0,0-2.64.51c-1.7,1.75-1.25,3.52.58,5l-.63,3.77c-3.72,1.33-4.14,3.43-1.44,6.24-.32,1.9-.65,3.8-1,5.7-2.32,1-3.65,2.16-1,4.3q-.49,2.85-1,5.71c-2.33,1-3.59,2.17-1,4.29l-1,5.71c-2.34,1-3.67,2.14-1,4.29-.33,1.91-.65,3.81-1,5.71-2.33,1-3.67,2.15-1,4.29l-1,5.71c-2.34,1-3.67,2.15-1,4.29l-1,5.71c-2.34,1-3.68,2.14-1,4.29-.31,1.91-.63,3.81-.94,5.71-2.37.94-3.7,2.14-1,4.3-.32,1.9-.63,3.8-1,5.7-2.37.94-3.7,2.13-1,4.3-.31,1.9-.63,3.8-.94,5.7-2.38.94-3.68,2.14-1,4.3-.31,1.9-.63,3.8-.94,5.71-3.38,1.5-3.73,3.6-1.22,6.26-.08,2.72-2.36,3.79-4,5.36q-52.87,50.4-105.74,100.84c-3.58,3.42-7.5,6.59-9.21,11.52-2.19,1-3.54,2.17-1,4.28a10.67,10.67,0,0,1-1.15,5.71c-2.09,1-3.35,2.26-.93,4.28-.16,3.27,0,6.29,4.45,6.36,5,2.44,9.81,3.6,14.26-1,6.53-1.33,13.14-1.12,19.74-1,5,2.47,9.81,3.57,14.26-1,6.53-1.3,13.14-1.11,19.74-1,5,2.48,9.82,3.63,14.26-1,5.87-1.2,11.81-1,17.75-.9,5.59,2.21,11.13,3.58,16.25-1.1,5.87-1.23,11.81-1,17.75-.91,2.09,2.4,4.75,2.07,7.14,1,2.82-1.28,5.66-1.19,8.57-1.16,4.1,1.15,8.91.3,12,4.3a26.22,26.22,0,0,1-.12,3.87c-.29,1.6-1,3.4,1.5,3.51,1.88.09,2.78-1.32,2.87-3.17,7.47,6.78,17.18,9,26,13.16,7.34,3.43,14.72,2.42,22.18,2.58,2.71.06,4.18-1.36,4.41-4.16.15-2,.61-3.88.94-5.81l5.62-.13.75,7.68c0,1.44.69,2.07,2.1,2l22.06.4c1.51,2.11,3.8,1.74,5.91,1.76s3.43,1,3.74,3.19l-7.76.32c-3.6-2.43-7.07-3-10.25.7l-1.68,1.29a52.15,52.15,0,0,0-15,0c-5.19,3.56-3.59,7.9-1.39,12.3-.06,1.94-.11,3.88-.17,5.82-4.06.19-2.69-4.52-5.19-5.74a33.09,33.09,0,0,1-.11-5c1-7.74-.47-8.18-7.32-7.78-8.13.47-15.51-1.38-23-4.62-8.29-3.58-16.73-6.84-24.87-10.77l-1,2-1.14,5.82c-2.27,1-3.65,2.17-1,4.29a16.46,16.46,0,0,1-1.64,8c-5.29-2.6-8.83-1.17-10.48,4.57-7.89,1.47-15.84,1-23.79.75-.86-.44-1.73-1.27-2.59-1.28-12.92-.08-25.83,0-38.75,0-2.13,0-3.9.6-4.81,2.74a45.38,45.38,0,0,1-17.42,0c-.62-.75-1.21-2.13-1.87-2.16-10.11-.48-20.26-2.19-30.29.7a46.23,46.23,0,0,1-13.84-.56c-.63-.75-1.22-2.12-1.88-2.15-10.11-.48-20.26-2.25-30.28.71-4.57,0-9.17.36-13.71,0-5.79-.47-8.33-4.13-7-9.84s0-11.72.8-17.54c2.64-3.33,2.68-6.65-.07-9.94a6.82,6.82,0,0,1,2.76-6c1.9-2.55,3.22-5.28,2.63-8.6.53-1.7,1.05-3.39,1.57-5.09,4.66-7.94,11.59-13.9,17.93-20.36,19.93-20.3,41-39.48,59-61.6,8.59-8.77,17.25-17.47,25.74-26.33,8.26-8.62,17.58-16.23,24.86-25.79,3.71-1.19,4.21-3.28,1.71-6.19.27-1.25.53-2.49.8-3.74,2.24-.94,3.61-2.1,1.12-4.28-.09-4.13,1.61-7.86,2.59-11.76,2.48-.83,3.91-2,1.22-4.27l1.2-5.68c2.12-1,3.46-2.16,1.06-4.27l.78-3.74c2.26-.93,3.66-2.08,1.13-4.28.24-1.25.47-2.49.71-3.74,2.4-.86,3.85-2,1.2-4.28a10.87,10.87,0,0,1,1.24-5.7c2.81-3.65,6-7.2,2.93-12.26.26-1.25.51-2.5.77-3.74,2.27-.92,3.66-2.08,1.14-4.28.23-1.25.47-2.5.7-3.74,2.4-.86,3.84-2,1.21-4.28a10.72,10.72,0,0,1,1.24-5.69c2-1,3.36-2.2,1-4.26.28-1.25.55-2.5.83-3.74,2.13-1,3.56-2.12,1.09-4.28.25-1.24.49-2.49.74-3.73,2.7-1,3.47-2.41,1-4.56a22.46,22.46,0,0,1-1.78-8.68q0-59.56-.07-119.13c2.35-2.06,1.72-4.85,1.73-7.44,0-9,0-17.9,0-26.86,0-36.81,0-73.62-.13-110.43,0-3.32,1.77-7.56-3-9.5-2-3-4-6.09-4.7-9.74,2.33-5.6,4-11.15-1-16.28-1.23-9.89-1-19.82-.84-29.75,3.44-9.35,1.45-18.91,1-28.4,0-.65-1.45-1.23-2.22-1.84-1.14-9.89-1-19.82-.81-29.75,2.39-2.09,2.29-4.08-.24-6a132.74,132.74,0,0,0-5.37-18c-3.7-9.87-7-19.9-10.43-29.86l4.6-2.73c1.75,3.12,3.3,6.31,3.58,10-.29,5.67,2.48,9.86,7.24,15.77.37-8.5.65-14.75.92-21,.34-1.26.68-2.51,1-3.77,1.91-1,3.2-2.2,1-4.22.31-1.27.63-2.54.94-3.81,3.66-3.85,4.44-8.62,4.44-13.68,0-10.64.08-21.28.09-31.92,0-2.29.4-4.7-1.47-6.58-.07-7.29-1.45-14.63.94-21.81,2.82-1.69,3.27-3.75,1-6.23l.48-3.81c4.84-2.69,3.37-6.4,1.63-10.15l.6-3.82c3.8-2.21,3.64-5,1.28-8.21.17-1.27.33-2.54.49-3.82,4.86-2.68,3.38-6.4,1.64-10.15.18-1.28.37-2.55.55-3.83,2.91-4.59,3.51-7.42,3.41-16.19.36-1.26.71-2.53,1.06-3.79a24.76,24.76,0,0,0,4.83-18.23l1-3.75c2-1,3.35-2.15,1.1-4.24l1.05-3.76c1.89-1,3.16-2.24,1-4.23-.25-2.95,1.2-5.35,2.49-7.8,5.43-6.27,6.51-14.5,9.76-21.74C1431.59,397,1432.09,395.55,1430.68,394.13Zm138.13,951.27c3.78,7.94,7.66,14.9,10.44,22.27,2.31,6.09,6.29,8,12.23,7.94,5.33-.09,10.67,0,16,.13,35.31.76,70.64-.24,105.94,1.66,10.31.55,20.66.13,31,.24,3.33,0,6.55-.75,6.66-4.42.29-9.29,4.83-17.22,7.63-25.68,1.18-3.55,0-6.6-.93-9.72-4.76-16.16-12.32-30.43-24.06-43-34.5-37-68.22-74.82-102.26-112.29-1.57-1.74-3.1-3.42-3.83-5.75-3.63-11.49-10.08-21.71-14.88-32.69-.72-1.64-.91-4.08-4.26-4.24.47,7.93,1.46,15.77,1.25,23.58-.25,9.47,2.64,17.55,7.85,25.24a93.46,93.46,0,0,0,11.38,13.86c34.28,34.07,68.12,68.59,103,102,10.06,9.65,14.41,19.49,14,33.13-.55,17.13.14,17.37-17,16.39q-53.36-3-106.68-6.54c-13.29-.85-26.54-2.16-39.82-3C1578.51,1344.17,1574.49,1343.36,1568.81,1345.4Zm-156.32-287.32c-2.48,2.06-2.44,3.8-2.82,5.38-9.18,38.85-18.54,77.66-27.36,116.59a31.2,31.2,0,0,1-9,16.08c-37.4,37-74.59,74.26-112,111.28-9.32,9.23-11.14,21.6-15,33.15-1,3,.89,4.8,4.36,5,12.3.71,15.23-1.48,17.91-13.82a38.8,38.8,0,0,0,1.19-4.84c.62-7.38,4.25-12.74,9.64-17.82,34.65-32.66,69-65.69,103.55-98.43a28.81,28.81,0,0,0,8.84-16.2c7.49-38.53,15-77,22.91-115.5C1416.2,1071.78,1415.51,1065.36,1412.49,1058.08Zm23.11,287.51c-5.7-3.93-11.73-3.87-17.65-3.54-18.94,1.07-37.87,2.45-56.81,3.57q-53.34,3.18-106.7,6.22c-7.57.44-8,.93-8.1,8.08-.11,7.6.09,7.74,7.29,8.66,15.25,1.94,30.64.9,45.91,2.05,39.3,2.95,78.56,1.66,117.85-.1,4.22-.19,6.76-1.61,8.52-5.42C1428.83,1358.77,1432.1,1352.59,1435.6,1345.59Zm65-509.64c16.1.66,31.1-2.66,46.27-4.22,4.15-.43,5.83-2.47,4.76-6.73-1.85-7.4-3.82-14.79-5.15-22.29-.92-5.13-3.19-6-8.19-5.68-22.07,1.31-44.26,5.53-66.16-1.47-.32-.1-.66-.12-1-.23-3.19-1.12-5.06-.06-5.78,3.27-1.83,8.42-3.77,16.82-5.59,25.25-.79,3.66,1,5.34,4.5,6.31C1476.38,833.54,1488.29,838.12,1500.55,836Zm-2.06-42.51c12.52-1,24.76-1.88,37-3,7.67-.68,7.74-1,4.61-8.5-6.74-16.24-6.75-16.28-24-13.18-8.8,1.58-17.33,2.63-26.39,0-17.08-4.91-17.56-4.14-21,13.51-.72,3.63-.35,5.58,3.59,6.47A257.83,257.83,0,0,0,1498.49,793.44Zm133.62-179c-5,6-6.78,13.35-9.12,20.36-2.63,7.85-6.53,15.39-7.12,23.81-1.53,21.57-1.58,43.2-1.92,64.81-.07,4.08-.49,8.61,5.44,8.54s4.12-5,4.39-8.21q3-35.25,5.7-70.54C1630.47,640.34,1631.24,627.41,1632.11,614.49Zm-25.64,381.26c0,1.3,0,3,0,4.62.2,6.31,3.44,9.56,9.91,9.62,6,.06,3.72-5.16,4.72-8.15.61-1.82.28-4,.36-6,.86-19.93-.11-39.93,1.87-59.83a14.23,14.23,0,0,0,0-3c-.52-4.39-6.46-9-11.8-8.47s-3,5.15-3.13,7.95C1607.55,953.49,1608.48,974.47,1606.47,995.75Zm15.48,64.48c-.47-10.73-1-23-1.56-35.29-.3-6.22-3.78-9.46-10.15-9.14-5.92.3-4,5.17-4.07,8.31-.39,10.63-.29,21.27-.58,31.9-.24,8.3-.6,16.6-1.25,24.88-.42,5.3,1.79,8.09,6.82,9.12a47.52,47.52,0,0,1,4.75,1.5c4.36,1.37,6.14-.33,6.07-4.79C1621.87,1078.41,1622,1070.1,1622,1060.23Zm1.75-181.06h.61c0-11.65.06-23.3,0-34.94,0-6.2-4-10.72-9.76-11.66a2.77,2.77,0,0,0-3.49,2.54,38.09,38.09,0,0,0-.46,5.95q-.57,33.95-1.08,67.88a24.27,24.27,0,0,0,.13,5c.55,2.75,6.67,6.23,10.55,6,4.79-.29,3.42-4.19,3.46-6.81C1623.8,901.8,1623.7,890.48,1623.7,879.17Zm-67.43,39.67c-.77-18.92,1.21-15.12-13.49-21.22-1.83-.76-3.72-1.38-5.6-2-13.79-4.48-12.51-7.43-17.66,9.51-.2.64-.41,1.26-.63,1.89-1,2.88.2,4.36,3,4.93,5.19,1,10.33,2.36,15.56,3.12,4.09.6,6.73,2.34,7.67,6.48a28,28,0,0,0,1.56,4.71c1,2.42,2.72,3.67,5.48,3,2.52-.65,4.1-2,4.08-4.83S1556.27,919.1,1556.27,918.84Zm.65-455.51c-.06-.66-.09-1.33-.19-2-3-19.68-3.94-39.84-12.85-58.18-1.78-3.68-1.08-11.77-7.12-9.39-5.39,2.12-.53,8.38,1,12.24a150.44,150.44,0,0,1,9.63,39.61c.63,6.28,1.78,12.51,2.89,18.73.35,2,1.49,4,4,3.63S1556.88,465.41,1556.92,463.33ZM1454.18,921.24c-.45,5.78.18,6.07,6.12,5.19,3.76-.55,6.34-2.45,7.68-5.55,3.37-7.8,9.47-10.45,17.4-10.26a25,25,0,0,0,3-.26c2.43-.23,3.83-1.55,3-3.94-1.33-4-1.11-9.19-4.89-11.61-3-1.87-6.13,1.45-9.22,2.42-1.27.4-2.56.72-3.84,1-20.77,5.2-14.63,1.76-19.15,22C1454.23,920.57,1454.22,920.91,1454.18,921.24Zm23.13-163.43c17.19,8.24,33.66,6.86,51,1.91-4-7.77-8.59-13.09-17.76-12.1-4.26.45-8.6.06-12.89.17C1489.59,748,1483.68,752.37,1477.31,757.81Zm89.63-154h-.08c0-8.61.05-17.22,0-25.83,0-2.89.47-7-3.47-7.05-4.18,0-3.23,4.2-3.24,6.92-.08,17.22,0,34.44,0,51.66a14.42,14.42,0,0,0,.71,4.86,2.56,2.56,0,0,0,3.11,1.82c.84-.27,2-1,2.15-1.73a33.86,33.86,0,0,0,.79-6.81C1567,619.66,1566.94,611.71,1566.94,603.77Zm-62.32,306.55c3.42-.05,6.71.11,7.61-3.7,1.34-5.64,5.56-10.72,3.35-17-.1-.29-.43-.5-.68-.72-3.71-3.15-12.35-2.74-17.9.45s-1.23,7-1,10.46c.15,1.93,1.23,3.77,1.63,5.71C1498.55,909.59,1501.24,910.73,1504.62,910.32ZM1565,544.13c-1-11.26-1.76-20.8-2.64-30.33a53,53,0,0,0-1-5.85,2.85,2.85,0,0,0-2.66-2.51,3.1,3.1,0,0,0-3.39,2.91,40.77,40.77,0,0,0,0,6.9q.87,11.36,1.94,22.69c.28,3,.67,5.91,1.2,8.83.38,2.11,1.59,3.83,4,3.39,1.83-.33,2.4-2.08,2.51-3.8A14.88,14.88,0,0,0,1565,544.13Z" transform="translate(-966.99 -302.17)" fill="#da6a5c"/><path d="M1324.13,1236.37c-18,22.12-39.11,41.3-59,61.6-6.34,6.46-13.27,12.42-17.93,20.36-.26-6.14,2.91-10.5,7.09-14.62,17.79-17.54,35.29-35.39,53.24-52.77,4.93-4.79,7.11-9.63,6.83-16.58-1.65-40.58-2.65-81.19-4.4-121.77q-2.2-50.89-3.82-101.8c-1.33-40.59-2.93-81.18-4.26-121.78-1.19-36.26-2.83-72.51-4-108.78-.45-14.3-1.22-28.6-1.57-42.91-.06-2.36-.06-4.79-1.49-6.73-7.13-9.66-3.07-20.54-3.42-30.92a5.15,5.15,0,0,1,1.19-3.73c7.44-6.38,6.11-15,5.89-23.18a107.74,107.74,0,0,1,3.71-29.55c7.71-30.32,15-60.73,22.31-91.16,1.32-5.53,3.85-9.71,8.61-12.8,7-4.56,17.21-1.37,21.74,7-2.6-1-5-1.74-5.39,2.36-11.48-5.56-14.76-4.18-17.74,7.67-4,15.8-8.13,31.57-11.77,47.45-6.36,27.8-16.31,55-13.92,84.27a8.15,8.15,0,0,1-2.78,7.18c-3.39,2.91-3.92,6.73-3.8,10.87.24,8.2-1.69,16.67,3.9,24.11,1,1.36,1,3.94.67,5.82-1,6,1.91,8.11,7.36,9.27,14,3,27.85,6.64,42.4,5.25,2.34-.23,5,.39,5.21,3.37s-2.24,3.91-4.7,4c-7.56.21-15.06,1.85-22.71-.46-7.3-2.2-14.92-3.33-22.38-5-3.54-.79-5.08.67-4.83,4.13.29,4,1,7.93,1,11.91.46,20,.74,39.93,1.95,59.88.34,5.55,2,8.4,7.42,9.86,11.87,3.15,23.44,7.77,36.14,5.66,2-.32,4.25,0,4.79,2.45.66,3-1.52,4.5-3.91,4.69-6.57.54-13.06,1.81-19.79-.08-7.61-2.15-15-5.43-23-5.86-1.75,2.7-1.16,5.43-1,8q1.83,33.42,2.16,66.87c0,.33,0,.67,0,1-.3,5.12,2.25,7.16,7.21,7.15,10.66,0,21.15,2.64,31.85,2.08a16.42,16.42,0,0,1,4.94.45c1.65.42,3,1.48,2.88,3.49a3.5,3.5,0,0,1-3.24,3.24c-2.29.33-4.64.23-7,.4-9.71.72-19.16-2.12-28.85-2.12-4.7,0-6.67,1.53-6.49,6.3q1.26,33.93,2.27,67.86c.12,4.15,2.14,6,6.12,6.26,9.27.66,18.4,2.76,27.82,2.39,3.35-.13,9.49-2.78,9.44,3.37-.06,5.38-6.08,3.55-9.75,4-9.07,1.23-17.85-1.62-26.8-2.18-4.67-.3-6.91,1.14-6.52,6.08.58,7.3,1.14,14.6,1.36,21.91.39,12.65.36,25.31.82,38,.29,7.86,1.72,9.32,9.33,10.21s15.23,1.44,22.66-1.58c1.77-.72,4.14-.51,5,1.87s-.51,4.08-2.47,4.74c-5.51,1.86-10.45,5.55-17.09,3.48-4.65-1.45-9.83-1.15-14.62-1.62-2.14,2.51-1.49,5.28-1.44,7.87.29,14.64.58,29.27,1.62,43.9s.57,14.67,15,15.51c3.32.19,6.66,0,10,0,1.33,0,2.67-.14,4,0a3,3,0,0,1,2.94,2.24,3,3,0,0,1-1.46,3.39,13.42,13.42,0,0,1-8.51,2.35c-4.65-.31-9.3-.59-13.93-1.08-7.15-.75-7.45-.82-7.25,6.39.42,15,1.19,29.92,1.83,44.88A4.92,4.92,0,0,0,1324.13,1236.37Z" transform="translate(-966.99 -302.17)" fill="#f19286"/><path d="M1686.5,1232.32c-2.07-3.53-7.52-3.39-8.63-8,2.32-1.52,2.21-3.92,2.27-6.25.31-12.3,1.17-24.6,1.57-36.89,1.07-33.6,2.7-67.17,4-100.76q2-54.37,4.11-108.75,1.8-48.39,3.87-96.76c1.94-44.23,3.24-88.48,4.61-132.73.23-7.28-.91-14.56,4.72-20.67,1.8-2,1.29-5.2.84-7.77-3.73-21.18-5.6-42.6-8-63.95A23.33,23.33,0,0,0,1695,647c-3.82-15.85-7.57-31.71-11.47-47.54-4.38-17.76-9-35.46-13.25-53.25-1-4.32-3.33-6.14-7.47-6.59-4.39-.48-6.93,1.44-8.27,5.46-1.89,5.69-3.66,11.42-5.84,17-3.13,8-4.29,16.74-9.31,24-3.76-.37-5,1.89-6,5.09-3.7,11.58-7.65,23.08-11.61,34.58-1.18,3.41-2.69,6.72-4.07,10.06a2.8,2.8,0,0,1-3.07,1.88,2.72,2.72,0,0,1-2.46-2.65c-.4-3.34-.56-6.67,2.91-8.75,4.42-.51,4.48-4.43,5.53-7.38,9.1-25.75,18.31-51.46,27-77.36,2-5.92,5.54-8.8,11-10.24,7-1.84,16.78,3.71,18.51,10.64,9.27,37.14,18.56,74.29,27.61,111.49,1.89,7.79,1,15.91,1.21,23.89.09,3-.65,6.18.82,8.87,4.71,8.59,4.4,18,4.73,27.27.18,5.34.21,10.34-3.11,15.24-2.59,3.82-2.14,9-2.29,13.62-1,29-1.81,57.94-2.86,86.9-1.27,35.28-2.48,70.56-4.12,105.83-1.58,33.93-2.69,67.88-4,101.82-1.38,35.28-2.94,70.54-4,105.83-.85,27.61-2.3,55.22-3.47,82.82C1687.51,1227.8,1687.61,1230.16,1686.5,1232.32Z" transform="translate(-966.99 -302.17)" fill="#f19286"/><path d="M1580.74,1383.82c8.67-5.34,18.32-3.84,27.71-3.88q25.44-.12,50.88.11c3.13,0,6.83-1.3,9,2.52-3.46,1.76-7.18,1-10.78,1-19.6-.1-39.19-.32-58.79-.47-11.39-.09-10.71-.1-10,10.81,1.39,22.13,6.5,44,4,66.4-3.17-1.33-2.77-4.15-2.78-6.77,0-5.18,0-10.37,0-16.2-1.7,1.25-2.69,2-3.68,2.68-3.35-6.13-2.13-13-2.72-19.5C1582.38,1408.32,1579.54,1396.2,1580.74,1383.82Z" transform="translate(-966.99 -302.17)" fill="#f19286"/><path d="M1603.22,536.24c-2.81-.78-3.3-2.94-3.22-5.43.64-20.71-5.93-40.37-8.77-60.56-3-21.15-11.5-40.53-17.13-60.81-.63-2.29-3.23-4.65-.69-7.33a16.23,16.23,0,0,1,2.2,3.19,472.73,472.73,0,0,1,24.1,91.46C1601.76,509.87,1605.41,522.78,1603.22,536.24Z" transform="translate(-966.99 -302.17)" fill="#f19286"/><path d="M1421.53,1448.16l-7.19,0c2-9.94,4.08-19.87,6.06-29.81.44-2.23.28-4.64,2.41-6.19l5.2,1.79C1428,1425.78,1424.68,1437,1421.53,1448.16Z" transform="translate(-966.99 -302.17)" fill="#f19286"/><path d="M1349.43,548.64c.35-4.11,2.8-3.41,5.4-2.37,2,3.44,2.57,7.36,3.58,11.13-.06,4.23.31,8.3,4.31,10.92,2.21,3.36,2.69,7.3,3.7,11.07-.6,2,.1,3.73.77,5.53.91,2.45.13,4.31-2.07,5.62C1359,576.91,1354.51,562.66,1349.43,548.64Z" transform="translate(-966.99 -302.17)" fill="#da6a5c"/><path d="M1396.66,554.13c1.87,1.88,1.47,4.29,1.47,6.58,0,10.64-.08,21.28-.09,31.92,0,5.06-.78,9.83-4.44,13.68,1.58-16.51,1-33.09,1.66-49.63C1395.3,555.81,1396.17,555,1396.66,554.13Z" transform="translate(-966.99 -302.17)" fill="#f19286"/><path d="M1355.71,1378.76c.91-2.14,2.68-2.74,4.81-2.74,12.92,0,25.83,0,38.75,0,.86,0,1.73.84,2.59,1.28-.53.39-1,1.09-1.58,1.12C1385.43,1379.34,1370.57,1380.45,1355.71,1378.76Z" transform="translate(-966.99 -302.17)" fill="#f19286"/><path d="M1605.23,582.24a4.09,4.09,0,0,1-3.18-4.33c.06-12,.12-24.1.25-36.15,0-.54.67-1.08,1-1.61.54,1.16,1.55,2.31,1.57,3.48C1605.11,556.5,1606.57,569.36,1605.23,582.24Z" transform="translate(-966.99 -302.17)" fill="#f19286"/><path d="M1306.13,1377.34c10-2.89,20.18-1.18,30.29-.7.66,0,1.25,1.41,1.87,2.16C1327.51,1379.56,1316.7,1381.12,1306.13,1377.34Z" transform="translate(-966.99 -302.17)" fill="#f19286"/><path d="M1260.13,1375.34c10-3,20.17-1.19,30.28-.71.66,0,1.25,1.4,1.88,2.15C1281.51,1377.75,1270.72,1378.7,1260.13,1375.34Z" transform="translate(-966.99 -302.17)" fill="#f19286"/><path d="M1720.12,1383.38a46.52,46.52,0,0,1,25.76,0C1737.29,1386.46,1728.7,1386,1720.12,1383.38Z" transform="translate(-966.99 -302.17)" fill="#f19286"/><path d="M1390.62,618.11c-.27,6.25-.55,12.5-.92,21-4.76-5.91-7.53-10.1-7.24-15.77,2.75,1.57,4.92,1.7,6-2C1388.83,620.15,1389.89,619.18,1390.62,618.11Z" transform="translate(-966.99 -302.17)" fill="#f19286"/><path d="M1762.38,1354.57c1.57-7.19,2-14.26-1.65-21.07a4.12,4.12,0,0,1,.78-5.41c3,7.65,8.1,15,3.5,23.74C1764.45,1352.91,1763.27,1353.66,1762.38,1354.57Z" transform="translate(-966.99 -302.17)" fill="#f19286"/><path d="M1430.68,394.13c1.41,1.42.91,2.88.21,4.44-3.25,7.24-4.33,15.47-9.76,21.74A69.69,69.69,0,0,1,1430.68,394.13Z" transform="translate(-966.99 -302.17)" fill="#f19286"/><path d="M1371.93,594.06c2.24,2,1.29,5,2.51,7.31a6.8,6.8,0,0,0,.45,4.77c1.11,2.73-.65,3.43-2.81,3.8l-5.84-15.84Z" transform="translate(-966.99 -302.17)" fill="#da6a5c"/><path d="M1563.28,380.25c-6.55-5.46-9.51-12.77-10.79-20.95C1558,365.29,1561.22,372.47,1563.28,380.25Z" transform="translate(-966.99 -302.17)" fill="#f19286"/><path d="M1606.48,606.3c-4.49-6.49-3-13.32-1.13-20.16C1608.56,592.7,1607.42,599.5,1606.48,606.3Z" transform="translate(-966.99 -302.17)" fill="#f19286"/><path d="M1414.52,444.09a24.76,24.76,0,0,1-4.83,18.23A31.94,31.94,0,0,1,1414.52,444.09Z" transform="translate(-966.99 -302.17)" fill="#f19286"/><path d="M1425.65,1376.6c1.65-5.74,5.19-7.17,10.48-4.57a9,9,0,0,1-.92,6.13l-5.76-.2Z" transform="translate(-966.99 -302.17)" fill="#f19286"/><path d="M1408.63,466.11c.1,8.77-.5,11.6-3.41,16.19A18.92,18.92,0,0,1,1408.63,466.11Z" transform="translate(-966.99 -302.17)" fill="#f19286"/><path d="M1371.93,594.06l-5.69,0c-.38-1.18-.75-2.37-1.13-3.55,2.21-1.32,3-3.18,2.08-5.63-.67-1.8-1.37-3.57-.77-5.53C1370.81,583.32,1371.62,588.59,1371.93,594.06Z" transform="translate(-966.99 -302.17)" fill="#f19286"/><path d="M1372.08,609.94c2.16-.37,3.92-1.07,2.81-3.8a6.8,6.8,0,0,1-.45-4.77c3.71,3.18,4.9,7.29,4.43,12l-4.59,2.72A7.31,7.31,0,0,1,1372.08,609.94Z" transform="translate(-966.99 -302.17)" fill="#f19286"/><path d="M1529.91,326.07c-5.51-1.36-9.31-4.31-9.69-10.44C1524.81,317.85,1528.23,321.16,1529.91,326.07Z" transform="translate(-966.99 -302.17)" fill="#f19286"/><path d="M1423.7,1408.33c-1.24-2.37-1-4.5,1.09-6.29l6.17-.13c.86,2.31-.52,3.92-1.72,5.6Z" transform="translate(-966.99 -302.17)" fill="#f19286"/><path d="M1759.05,1322.29c-5.61-3.48-6.1-9.21-6.59-15C1756.5,1311.51,1758.3,1316.66,1759.05,1322.29Z" transform="translate(-966.99 -302.17)" fill="#f19286"/><path d="M1733.63,1286.2c-5.2-1.61-9-4.54-9.52-10.4C1728.75,1277.92,1732.24,1281.1,1733.63,1286.2Z" transform="translate(-966.99 -302.17)" fill="#f19286"/><path d="M1715.58,1266.22c-5.15-1.64-8.86-4.6-9.51-10.36C1710.75,1257.92,1714.2,1261.12,1715.58,1266.22Z" transform="translate(-966.99 -302.17)" fill="#f19286"/><path d="M1427.56,1388.33c-1.18-2.38-1-4.51,1.13-6.3l5.49,0a9.22,9.22,0,0,1-.91,6.1Z" transform="translate(-966.99 -302.17)" fill="#f19286"/><path d="M1427.56,1388.33l5.71-.16c.29,2.09-.52,3.94-1.34,5.77-2,.13-3.54-1-5.19-1.85C1427,1390.83,1427.28,1389.58,1427.56,1388.33Z" transform="translate(-966.99 -302.17)" fill="#da6a5c"/><path d="M1508.08,303.67c-3.73,3.46-7.24,4.08-10.34-.8C1501.26,302.21,1504.79,301.39,1508.08,303.67Z" transform="translate(-966.99 -302.17)" fill="#f19286"/><path d="M1469.62,329.43c.5,5.24-2.61,7.57-7.09,8.79C1463.09,333.83,1466,331.3,1469.62,329.43Z" transform="translate(-966.99 -302.17)" fill="#f19286"/><path d="M1240.2,1338c2.75,3.29,2.71,6.61.07,9.94C1238,1344.66,1237.82,1341.35,1240.2,1338Z" transform="translate(-966.99 -302.17)" fill="#f19286"/><path d="M1695.65,1244.19c-4.52-1-7.38-3.43-7.59-8.32C1692.07,1237.3,1694.82,1239.87,1695.65,1244.19Z" transform="translate(-966.99 -302.17)" fill="#f19286"/><path d="M1400.66,512.13c1.74,3.75,3.21,7.46-1.63,10.15C1398.25,518.69,1397.8,515.14,1400.66,512.13Z" transform="translate(-966.99 -302.17)" fill="#f19286"/><path d="M1426.74,1392.09c1.65.83,3.19,2,5.19,1.85a5.59,5.59,0,0,1-.62,4.23l-5.69.16C1424.41,1396,1424.59,1393.85,1426.74,1392.09Z" transform="translate(-966.99 -302.17)" fill="#f19286"/><path d="M1404.67,486.13c1.74,3.75,3.22,7.47-1.64,10.15C1402.27,492.69,1401.79,489.14,1404.67,486.13Z" transform="translate(-966.99 -302.17)" fill="#f19286"/><path d="M1362.72,568.32c-4-2.62-4.37-6.69-4.31-10.92C1362.13,560.14,1362.91,564,1362.72,568.32Z" transform="translate(-966.99 -302.17)" fill="#f19286"/><path d="M1425.62,1398.33l5.69-.16c-.12,1.25-.23,2.49-.35,3.74l-6.17.13C1425.06,1400.8,1425.34,1399.56,1425.62,1398.33Z" transform="translate(-966.99 -302.17)" fill="#da6a5c"/><path d="M1402.54,500.1c2.36,3.17,2.52,6-1.28,8.21C1400.17,505.34,1400,502.51,1402.54,500.1Z" transform="translate(-966.99 -302.17)" fill="#f19286"/><path d="M1423.7,1408.33l5.54-.82c-.42,2.16-.82,4.31-1.23,6.47l-5.2-1.79C1423.11,1410.9,1423.4,1409.62,1423.7,1408.33Z" transform="translate(-966.99 -302.17)" fill="#da6a5c"/><path d="M1441.85,373.74c-.11,3.81-1,7.12-5.15,8.51C1436.87,378.48,1438.29,375.46,1441.85,373.74Z" transform="translate(-966.99 -302.17)" fill="#f19286"/><path d="M1447.55,363.35c.31,4.08-.61,7.45-5,8.85A10.72,10.72,0,0,1,1447.55,363.35Z" transform="translate(-966.99 -302.17)" fill="#f19286"/><path d="M1434.18,1382.07l-5.49,0c.25-1.35.5-2.71.76-4.07l5.77.2A4.55,4.55,0,0,1,1434.18,1382.07Z" transform="translate(-966.99 -302.17)" fill="#da6a5c"/><path d="M1476.21,320.33c0,4.09-1.11,7.31-5.85,7.83C1470.8,324.43,1472.92,321.94,1476.21,320.33Z" transform="translate(-966.99 -302.17)" fill="#f19286"/><path d="M1545.2,348.28c-3.58-.86-5.51-2.89-4.88-6.78C1543.29,342.8,1545.4,344.71,1545.2,348.28Z" transform="translate(-966.99 -302.17)" fill="#f19286"/><path d="M1245.59,1323.42c.59,3.32-.73,6-2.63,8.6C1242.58,1328.77,1241.94,1325.44,1245.59,1323.42Z" transform="translate(-966.99 -302.17)" fill="#f19286"/><path d="M1398.55,526.09c2.32,2.48,1.87,4.54-1,6.23C1396.28,530,1396.45,527.9,1398.55,526.09Z" transform="translate(-966.99 -302.17)" fill="#f19286"/><path d="M1759.25,1363.86c-2.1-2.27-.62-3.33,1.42-4.2C1761.46,1361.49,1760.84,1362.84,1759.25,1363.86Z" transform="translate(-966.99 -302.17)" fill="#f19286"/><path d="M1757.43,1371.91c-2.22-1.84-1.08-3.1.74-4.23A2.77,2.77,0,0,1,1757.43,1371.91Z" transform="translate(-966.99 -302.17)" fill="#f19286"/><path d="M1753.73,1383.19a3.85,3.85,0,0,1,3-3.52C1757.61,1382.44,1756.55,1383.56,1753.73,1383.19Z" transform="translate(-966.99 -302.17)" fill="#f19286"/><path d="M1392.66,610.12c2.17,2,.88,3.19-1,4.22C1390.52,612.58,1391,611.21,1392.66,610.12Z" transform="translate(-966.99 -302.17)" fill="#f19286"/><path d="M1535.63,334.19c-2.88-.41-3.86-2.07-3.19-4.83C1534.47,330.33,1535.82,331.76,1535.63,334.19Z" transform="translate(-966.99 -302.17)" fill="#f19286"/><path d="M1416.61,436.1c2.25,2.09.87,3.24-1.1,4.24C1414.47,438.56,1415,437.19,1416.61,436.1Z" transform="translate(-966.99 -302.17)" fill="#f19286"/><path d="M1455.77,349.63c.48,2.48-.4,4.09-3,4.64C1452.42,351.84,1453.57,350.4,1455.77,349.63Z" transform="translate(-966.99 -302.17)" fill="#f19286"/><path d="M1418.64,428.11c2.18,2,.91,3.18-1,4.23C1416.6,430.6,1417.08,429.23,1418.64,428.11Z" transform="translate(-966.99 -302.17)" fill="#f19286"/><path d="M1549.23,354.26c-2.45-.45-3.43-2-3.17-4.38C1548.36,350.44,1549.54,351.82,1549.23,354.26Z" transform="translate(-966.99 -302.17)" fill="#f19286"/><path d="M1373.81,1667.47c-3.75-5.46-8.9-6.13-14.88-4.58-11.81,3.07-10.36,1.47-10.54-8.64-.26-15.43-.72-30.85,1-46.27,2.84-25.57,14.07-47.74,27.52-69,8.92-14.07,21.15-24.88,36.59-31.29,11.1-4.61,22.5-8.79,34.59-10.21a104.41,104.41,0,0,0,14.79-3.09,38.38,38.38,0,0,1,14.07-1.18c.19,2.51-1.62,2.16-2.71,2.44-9.07,2.3-17.32,6.36-25.28,11.23-10.61,6.5-14.48,13.53-12.13,25.77a51.86,51.86,0,0,0,16.06,29c9.5,8.67,22.78,7.52,31.29-2.27a122.45,122.45,0,0,0,7.77-10,19.52,19.52,0,0,0,2.85-6c.56-2.12.79-4.88-1.65-6-2-.9-3.61,1.08-4.85,2.52-3.3,3.83-6.31,7.91-9.69,11.65-5.7,6.33-14.31,6.74-19.71.42-6.65-7.79-11.27-16.73-12.29-27.2-.45-4.55,1.06-7.69,4.71-10.83,11.82-10.15,26.14-14.91,40.77-16.63,12.16-1.43,23.92-4.33,35.65-7a55.54,55.54,0,0,1,34.48,2.91c8.56,3.5,16.82,7.72,25.23,11.6a23.26,23.26,0,0,1,8.91,7.5c10.44,14,19.28,28.95,25.16,45.51a91.41,91.41,0,0,1,5,28.91c.68,34,1.08,67.92-2.64,101.79-1.19,10.86-1.64,21.83-2,32.76-1,29.74-2.69,59.46-7.29,88.85-2.43,15.47-7.15,30.57-10.39,45.93-6.08,28.8-15.47,56.8-20.35,85.92a574.5,574.5,0,0,0-8,74.37c-.68,18.52.68,37-.71,55.54a52.31,52.31,0,0,1-2.45,13.14,826.45,826.45,0,0,0-27.46,104c-2.34,11.86-3.14,23.92-4,35.93-1.6,21.55-3.81,43-6.35,64.47a234.12,234.12,0,0,0-1.27,32.77q.71,30.75-.35,61.48a15.86,15.86,0,0,1-1.8,7.27c-9.69,17.81-17.86,36.22-22.33,56.11-.11.48-.63.86-1,1.33-2.47-1.74-3.16-4.59-4.38-7.05-20-39.85-19.88-39.87-30.27-92.91-2.91-14.85-6.07-29.68-9.66-44.38-1.65-6.78-1.86-13.28.13-19.83,5.43-17.9,6.41-36.41,7.73-54.86q1.83-25.41,3.07-50.85c-5.9,18.3-6.84,37.39-9.55,56.19-1.68,11.66-3.09,23.35-7.55,35-2.1-1.52-2.36-3.58-2.77-5.57-4-19.48-9.53-38.63-12.14-58.42-1.62-12.33-5.94-23.92-11.64-35-4.18-8.08-5.62-17-8-25.65-8.08-29.47-15.66-59.07-24.58-88.33a498.39,498.39,0,0,1-13.52-56.41,31.7,31.7,0,0,1-.7-5c-.34-25.82-.57-51.62,2.28-77.37a397.48,397.48,0,0,0,1.81-55.53c-.61-20.47-1.67-40.94-6-61.06a181.49,181.49,0,0,0-8.68-29.87c-10.93-27.27-16.55-55.86-21.78-84.57-.65-3.59-1.07-7.21-1.67-10.81-.44-2.67.68-4.29,3.18-5.08,6.73-2.13,13.45-4.33,20.54-1.56,2,2,3.91,4,7.65,3.63A17.75,17.75,0,0,0,1373.81,1667.47Z" transform="translate(-966.99 -302.17)" fill="#fff"/><path d="M1196.91,1901.77c-2.34-1.57-2.49-4.26-3.31-6.58-8.49-23.86-15.06-48.26-17.85-73.44a298,298,0,0,1-1.4-56.29,410.49,410.49,0,0,1,9.76-61.4c9-38.68,26.56-73.23,50.77-104.4,42.94-55.28,99.5-89.78,166.66-107.6a304.19,304.19,0,0,1,80.74-10.34c3.78,0,7.92-1,10.32,3.53a2,2,0,0,0,3.55,0c2.34-4.17,6.12-3.34,9.65-3,6.07.5,12.12,1.27,18.22,1.94-.47,2-1.93,2.28-3.26,2.49-8.31,1.29-16.64,2.52-25,3.74a13.62,13.62,0,0,1-9-1.43c-8.49-4.92-17.32-3.78-26.13-1.37-4.31,1.18-8.33,2.92-13,1-1.91-.77-4.48-.27-6.67.1-32.52,5.38-59.49,19.26-76.52,49-11.34,19.83-21.64,39.91-25.12,62.9-3.08,20.4-3,40.83-1.53,61.29.3,4.17.13,6.68-4.34,8.35-21.13,7.92-35.07,23.63-45.44,43-12.32,23-20.37,47.36-23.2,73.36-1.1,10.14.44,20.18,1.55,30.21a19.13,19.13,0,0,1-1.9,11.37c-4.41,8.42-7.58,17.48-13.18,25.32-1,1.42-3.12,3.72-.5,5.89l.12-.11a1.18,1.18,0,0,0-2-.29c-7,8.18-13,17.19-21.46,24.21C1218.13,1891,1207.67,1896.55,1196.91,1901.77Z" transform="translate(-966.99 -302.17)" fill="#fffdfd"/><path d="M1580.74,1383.82c-1.2,12.38,1.64,24.5,2.75,36.7.59,6.47-.63,13.37,2.72,19.5q.06,7,.1,14c-2.38,2.32-1.55,5.36-1.67,8.11-.14,3.34-2.19,4.19-4.9,4.53-8.43,1.49-14.19,7.88-21.32,11.76-9.28,5-10.1,5.29-18.17-1.39-5.45-4.51-8.24-11.06-12.51-16.46-2.34-3-3-7.55-7.77-8.31-5.65-3.56-12-.52-17.9-1.91l-2.25-2.32c-1.59-2-.74-4.29-1-6.46,2.41-10.39,2.23-21,3.05-31.59,2-.26,4-.69,3.75-3.38-.2-2.11-1.93-2.34-3.55-2.62-.82-6.06.76-12.19-.61-18.23.06-1.94.11-3.88.17-5.82,2.51-2.19,1.32-5.31,2-8l10,0c2.89,0,4.16-1.63,4.38-4.33l1.68-1.28c3.53,1.42,7,1.89,10.25-.71l7.76-.32c2.31.54,3.84-.35,4-2.71a3.32,3.32,0,0,0-2.72-3.49c-3.72-.72-7.55-1.45-10.92,1.25L1506,1360l-2.1-2-.75-7.68a64.17,64.17,0,0,0,.87-6.87q.73-28.86,1.32-57.74c.2-9.36.2-9.12,9.42-9.53,5.64-.26,11.34,2.31,16.79.3,7.25-2.66,14.89-3.18,22.29-4.93a46.94,46.94,0,0,0,7.54-2.41,3.11,3.11,0,0,0,1.83-3.27,3.34,3.34,0,0,0-3.32-3.09c-1.94,0-3.88.68-5.83,1-13.07,2.1-25.87,5.94-39.38,5-9-.65-9.12-.29-9.15-8.81,0-7.31.22-14.61.36-21.92,1.27-.26,3-.39,3.28-1.73a53.29,53.29,0,0,0,.11-20.41c-.24-1.38-1.94-1.56-3.21-1.86-.07-6.65-.26-13.3-.16-19.94.12-7.92.23-7.87,8.65-8.09,5-.14,9.93.53,14.87-.89,11.49-3.3,23.09-6.23,34.53-9.72,3-.9,8.84-.58,7-6-1.68-5-6.19-1.89-9.48-1.09-12.56,3-24.65,7.85-37.49,9.87-.29-3.24-2.34-4.15-5.26-4.11-4.12.07-8.25,0-12.38,0-1.28-26.23.76-52.41,1-78.62,0-5,2.68-6.16,7-6,7,.21,14.46,1.92,20.78,0,12.28-3.84,23.92-9.76,35.8-14.89,2.39-1,3.77-3,2.54-5.59-1.41-3-3.83-1.89-6-1-5.81,2.45-11.81,4.57-17.32,7.58-11.26,6.14-23.21,7.08-35.67,6.46-5-.25-7.25-1.76-7-7,.36-9,.34-17.92.47-26.89,1.69-.25,3.66-.8,3.74-2.58.27-5.56.26-11.14.06-16.7-.07-1.82-1.94-2.44-3.63-2.72,0-11-.21-21.93-.07-32.89.08-6.93.29-7.18,7.53-7,6.61.12,13.32-.93,19.8,1.22a8.53,8.53,0,0,0,6.74-.61c8.66-4.22,17.35-8.38,26-12.63,2.55-1.25,4.85-3.12,3.19-6.19-1.47-2.71-4-1.37-6.12-.36-6.61,3.11-13.12,6.48-19.89,9.21-10.82,4.37-13.36,2.94-14.77-8.61-.55-4.55-2.19-6.11-6.68-6.64-10.28-1.22-20.58-.83-30.87-1.17-4.38-.14-6.7,1.71-7,6.39-.23,3.67,2.7,8.74-2.12,10.66-3.47,1.38-7.9.83-11.83.43-2.89-.3-5.64-1.85-8.51-2.64-6.34-1.73-12.12-5.67-19.09-5l-4.21-.15c-.28-8.81-.63-17.62-.78-26.43-.07-3.65.64-7.18,3.32-10h4.63c3.65-.06,7.31-.06,11-.2,7.06-.27,12.82-2.42,15.74-9.74,1.55-3.89,4.62-6.16,9.33-6.19,15.64-.11,31.28-1.21,46.75,2.53,5.64,1.36,9.47,3.43,11.22,9.55,2.09,7.27,2.62,7.14,9.89,6.29,2.32-.27,4.62-.68,6.91-1.09,3.87-.71,5.7-2.91,5.42-7-.6-8.63-1.14-17.28-1.46-25.92-.13-3.34-2.09-4.5-4.72-5.58A422.91,422.91,0,0,0,1511,880.68a17.2,17.2,0,0,0-11.64.94c-13.59,5.5-27.25,10.85-41.66,13.85-4.59.95-7.2,3.1-7.18,7.95,0,4.16-1.29,7.22-6.18,7.19l-2.62-2.67q7-34.14,14.1-68.29c.7-3.42,2.66-4.29,5.8-3.37,5.43,1.58,10.92,3,16.29,4.72a49.42,49.42,0,0,0,19.66,2.1c16.56-1.34,33.19-1.8,49.6-4.89,6.57-1.23,7.45-.6,8.95,6,8.87,39.21,18.62,78.18,22.78,118.38,4,38.35,10,76.48,14.79,114.75,2.27,18.14,4,36.35,7.28,54.35-.85,2.31-1,4.49,1.08,6.3a97,97,0,0,0,1.13,17.69c-1.07,4.2-1.72,8.37.93,12.3-.07,5.23-.77,10.53,1.37,15.57-1.87,3.79-1.07,7.85-1.09,11.79q-.25,68.31-.39,136.63c-3.6.74-7.41,1.2-8,6l-2.26,1.21c-5.21-1.17-10.5-1-15.78-.87-2.84-2.9-6.7-1.19-10-2.21-.28-1.45-.16-3.44-2.35-3.18-1.34.16-1.51,1.73-1.69,3a6.79,6.79,0,0,0-.57,1.56,1.76,1.76,0,0,0-1.47.36c-5.27,2-2.77,4.36-.29,6.7C1567.22,1358,1573.09,1371.34,1580.74,1383.82Z" transform="translate(-966.99 -302.17)" fill="#fff"/><path d="M1687.88,1649.71c2.4,4.75,4.53,9.66,7.26,14.21,2.85,4.77,2.44,8.33-1.21,12.79-16.14,19.68-26.24,42.25-30.93,67.3a122.15,122.15,0,0,0,1.36,52.45c3,12,5.63,24,10.9,35.27,1.55,3.3,1.32,6.23.46,9.68-4.58,18.34-12.5,35.4-19.88,52.67-21.6,50.55-44.74,100.42-67.58,150.42-.31.69-.32,1.71-2,1.69-.76-10.69-.24-21.47.36-32.18,1.3-23.23,3.35-46.4,7.91-69.29,3.34-16.76,6.72-33.49,11.34-50,7.33-26.18,13.14-52.77,18.39-79.42,2.85-14.49,3.68-29.46,4.29-44.33,1-24.66,1.39-49.4,3.66-74,2.83-30.54,2.88-61.06,2.42-91.63a280.49,280.49,0,0,0-2.09-28.51c-2.44-20.9-12.14-38.9-23.38-56.18-3-4.68-6.34-9.18-9.46-13.69,1.45-1.75,2.69-.7,3.86-.21,57.6,24.19,104.7,61.44,140.22,113,8,11.63,7.87,11.68-4,18.18a157.61,157.61,0,0,0-31.29,22.64c-1.64,1.51-2.93,3.44-5.36,4.37-4.69-5.39-6.82-12.9-13.22-17a1.75,1.75,0,0,0-.74-1c-.88-1.79-2.85-4.23-4-3.14-2,1.9.53,3.67,2,5.12A1.36,1.36,0,0,0,1687.88,1649.71Zm-9-12.72-.52-.45.6.38c.44,1.8,1.09,3.39,3.36,3.35.11.63-.29,1.89,1.13.93l-1.19-.87A3.43,3.43,0,0,0,1678.84,1637Z" transform="translate(-966.99 -302.17)" fill="#fffdfd"/><path d="M1313.1,1894.89c-8.24-12.83-14.15-25.81-20.73-38.44a143.59,143.59,0,0,1-11.93-32.23c-2.56-10.35-4.33-21-3.8-31.51a156.25,156.25,0,0,1,9.58-46.66c6.07-16.3,12.6-32.33,23.3-46.37,6.61-8.66,14.83-15.23,24.11-20.59,4.78-2.76,5.63-2.14,6.57,3,5.78,31.73,13.91,62.76,26.66,92.53,7,16.27,9.9,33.63,12.44,51.16,2.1,14.51,2.27,29.17,2.24,43.51,0,16.93.13,34.08-2,51.1a216.92,216.92,0,0,0-2.16,25.9q-.13,19.79-.06,39.58c0,5.86-.4,11.74,1.36,17.54.57,1.9,1.13,4.3-.52,6.42-2.73-.61-3.06-3.19-3.9-5-11.41-25.08-26.27-48.23-40.08-72-5.36-9.21-10.41-18.58-15.7-27.82-1.7-3-1.65-5.3.23-8.46a182.2,182.2,0,0,0,26.52-105.15,12.62,12.62,0,0,0-.9-4,2.68,2.68,0,0,0-1.87-1.45,2,2,0,0,0-2.09,2.09c-.1,3.36-.18,6.73-.16,10.09a184.14,184.14,0,0,1-24.82,93.86A36,36,0,0,1,1313.1,1894.89Z" transform="translate(-966.99 -302.17)" fill="#f0bf5a"/><path d="M1551.68,2230.71c-1.24-2.61-.74-5-.5-7.4,4.07-40.86,16.34-79.86,27.45-119.08a347.93,347.93,0,0,1,19.76-51.75c15.74-33.78,31.09-67.73,46.73-101.55,12.47-27,24-54.33,35.57-81.64,2-4.62,2.68-9.73,5.4-13.94,1.83,0,2.71,1.1,3.49,2.22a145.35,145.35,0,0,0,69.58,54.72c6.36,2.42,6.93,3.9,3.56,10-9.18,16.72-19.47,32.74-31.75,47.38s-25.34,28.41-38.61,42.06c-3.89,4-8.48,7.29-12.63,11-13,11.74-23.07,26-32.74,40.37-10.47,15.61-22.42,30-34,44.82-1.37,1.76-3,3.46-3.85,5.46-6.53,15.32-16.22,28.8-25,42.78s-15,28.75-20.3,44.13c-3.11,9-6.42,17.93-9.59,26.9C1553.84,2228.59,1553.52,2229.9,1551.68,2230.71Z" transform="translate(-966.99 -302.17)" fill="#f0bf5a"/><path d="M1185.25,1905.72c-12.93,2.79-25,5.2-37.74,3.28-11.68-1.77-23.23-3.53-33.68-9.48-22.09-12.56-41.33-28.16-52.29-51.76-18.54-39.89-14.6-77.83,11.66-113.1,16.14-21.68,38.72-33.41,64.56-39.49,4.69-1.1,6,.19,5,5.24-1.55,7.68-2.57,15.39-3.36,23.2a303.83,303.83,0,0,0,.06,64.52c.52,4.72,1,9.42,1.74,14.13a19.4,19.4,0,0,0,4.2,9.9c3.57-2.07,4.78-5.19,4.49-9.09a22.7,22.7,0,0,1,1.16-7.42c2.48-9.43,4.34-19,6.49-28.63a299,299,0,0,0,10.63,93.3C1172.31,1875.74,1178.52,1890.36,1185.25,1905.72Z" transform="translate(-966.99 -302.17)" fill="#f0bf5a"/><path d="M1688.13,1844.21c3-10.52,5.45-21.2,9-31.52a319.21,319.21,0,0,0,16.48-81.36,148.22,148.22,0,0,0-4.87-50c-1.43-5.2-.28-8.18,3.29-11.69a152.84,152.84,0,0,1,39-27.56c3.92-2,5.94-1.36,7.9,2.51,11.64,23,23.26,46.08,30.23,71.1,1.7,6.08,1.62,6.1-4.27,9.83-22.54,14.28-31.71,41.69-22.1,66.21,4.87,12.42,15.08,19.91,25.54,27,6.08,4.12,6.36,3.79,5.32,10.82a279.07,279.07,0,0,1-21.66,74c-3,6.77-3.15,6.88-9.77,4.33a150.39,150.39,0,0,1-70.49-55.18C1690,1850.2,1687.92,1847.74,1688.13,1844.21Z" transform="translate(-966.99 -302.17)" fill="#fffdfd"/><path d="M1410.2,2136.51c-2-3.49-3.68-6.65-5.58-9.67-9.09-14.43-21.73-25.57-34.3-36.77-9.19-8.19-18.77-16-28.26-23.78-11.43-9.42-21.82-20.13-34.4-28.16-8.55-5.46-15.56-12.84-22.94-19.67-10.5-9.72-20.28-20.21-30.51-30.22-4.2-4.11-8.91-7.69-13.14-11.77-4.67-4.5-4.49-5.32,1.16-8.35a200.49,200.49,0,0,0,29-18.45,193.79,193.79,0,0,0,33-32.11c4-5.12,5.39-5.09,8.76.63,4.27,7.24,8.5,14.51,12.45,21.93,8.72,16.33,19.63,31.32,28.56,47.55,6.77,12.3,13.23,24.77,19.09,37.48,6.68,14.5,14.19,28.63,19.57,43.73a478.77,478.77,0,0,1,18.13,65.44C1411,2134.77,1410.58,2135.32,1410.2,2136.51Z" transform="translate(-966.99 -302.17)" fill="#f0bf5a"/><path d="M1250.83,1859.43c11.6-4.23,13-15.85,17.55-24.83,1.34-.09,2.13.2,2.41,1.08,7.4,23.17,19.69,44,31.47,65,3.46,6.2,3.68,6.21-.6,11.7-17,21.81-37.65,39.2-62.51,51.46-6.88,3.39-7.35,3.45-11.78-2.67-7.57-10.46-15.24-20.89-22-31.85-4.52-7.3-8.09-15.34-8.21-24.33,13.89-4.31,25.63-12.24,36.1-22.07,6.86-6.44,14.08-12.72,17.86-21.74l-.15-1.89Z" transform="translate(-966.99 -302.17)" fill="#fffdfd"/><path d="M1434.18,1382.07a4.55,4.55,0,0,0,1-3.91,9.06,9.06,0,0,0,.91-6.13,16.46,16.46,0,0,0,1.64-8,3,3,0,0,0,1-4.29l1.14-5.82c.9-.37,1.6-.85,1-2,8.14,3.93,16.58,7.19,24.87,10.77,7.52,3.24,14.9,5.09,23,4.62,6.85-.4,8.27,0,7.32,7.78a33.09,33.09,0,0,0,.11,5c-2.6,2.79-1.63,6.29-1.75,9.51-.44,11.61-.42,23.25-1.12,34.85-.5,8.37-.89,8.33-8.27,12.08-.39.2-.39,1.17-.57,1.79-.92,4.56-2.23,9.09-2.69,13.7-.9,9.22-6.22,15.93-11.84,22.59a10,10,0,0,1-6.89,3.52c-3,.34-5.89,1-8.84,1.44-1.65-1.18-3.08-.87-4.31.68-7.27.09-12.73-4.56-18.94-7.24-3.46-1.5-6.67-4.6-10.81-1.66-3-2,0-5.33-1.74-7.59a10.68,10.68,0,0,0,1.07-5.75c1.58-1.17,2-2.57.84-4.28a9.36,9.36,0,0,0,1.1-5.51c3.15-11.21,6.45-22.38,6.48-34.18.41-2.16.81-4.31,1.23-6.47,1.2-1.68,2.58-3.29,1.72-5.6.12-1.25.23-2.49.35-3.74a5.59,5.59,0,0,0,.62-4.23c.82-1.83,1.63-3.68,1.34-5.77A9.22,9.22,0,0,0,1434.18,1382.07Z" transform="translate(-966.99 -302.17)" fill="#fffdfd"/><path d="M1678.87,1826.54c-6.09-14.22-10.28-28.44-10.18-43.92.13-21.16,2.37-41.85,10.11-61.63,5-12.79,10.84-25.22,19.78-35.89.68-.81,1.12-2,3.2-1.51.88,3.35,2.31,6.9,2.31,10.82,0,13.73.86,27.54-.29,41.18-1.22,14.41-4.72,28.59-8.29,42.67C1691.34,1794.75,1684.47,1810.29,1678.87,1826.54Z" transform="translate(-966.99 -302.17)" fill="#f0bf5a"/><path d="M1149,1768.86a15.17,15.17,0,0,1-1.8-7.92,314.81,314.81,0,0,1,29.2-132.92c3.33-7.2,3.62-7.35,11.54-5.87,5.49,1,10.92,2.41,16.14,3.58,1.44,2.59-.4,4-1.33,5.57-16.08,26.85-29.12,55-37.32,85.31-3.21,11.89-8.74,23-11.85,35C1152.17,1757.16,1150.2,1762.58,1149,1768.86Z" transform="translate(-966.99 -302.17)" fill="#fffdfd"/><path d="M1800.54,1719.06c-2.92.37-3.35-1.44-3.81-3.51-1.58-7.07-3.3-14.11-4.94-21.17a189.7,189.7,0,0,0-16.36-44.73c-1.55-3-3-6-4.5-9-1.82-3.52-1-5.89,2.91-7,.27-.08.54-.12.81-.22,16.84-6.19,19.49-5.31,25.84,11.2,8.52,22.15,15.8,44.69,19.18,68.32.48,3.33-.17,4.71-3.56,4.82C1810.83,1717.92,1805.45,1717.06,1800.54,1719.06Z" transform="translate(-966.99 -302.17)" fill="#f0bf5a"/><path d="M1859,1767.75c.32,24.14-14.51,40.76-30.31,47-3.75,1.46-5.62.18-4.76-3.85,2.58-12,3-24.31,4.16-36.49a211.78,211.78,0,0,0-.08-39.33c-.15-1.64-1.2-3.43.37-4.65s3.24-.16,4.69.66C1849.19,1740.11,1857.61,1754,1859,1767.75Z" transform="translate(-966.99 -302.17)" fill="#f0bf5a"/><path d="M1541.25,2327.11l3.35,4.18c.94.08,1.23-.24,1.23-.94,0-6.17,0-12.34-.07-18.52-.15-18.79,2.65-37.31,5.23-55.85a3.23,3.23,0,0,1,1.82-2.79c2.29.4,2.56,2.63,3.21,4.26,3.39,8.56,8.09,17,9.49,25.85,1.64,10.38,1.16,21.27-.24,31.86-2.82,21.34-13.38,39.57-23.85,57.8-.2.35-.93.39-2.12.86C1538.76,2358.33,1538.66,2343.13,1541.25,2327.11Zm5.66,9.45c0-.22.18-.5.09-.65-.31-.56-.65-.49-.81.17a.78.78,0,0,0,.22.59C1546.47,2336.73,1546.74,2336.6,1546.91,2336.56Z" transform="translate(-966.99 -302.17)" fill="#f0bf5a"/><path d="M1792.49,1731.91c5.8,25.64,4.45,51.07,4.19,76.44,0,5.76-1.12,6.08-6.63,3.82-10.57-4.34-15.08-13.76-19-23.25C1762.64,1768.66,1770.18,1741.3,1792.49,1731.91Z" transform="translate(-966.99 -302.17)" fill="#f0bf5a"/><path d="M1823.42,1761.21c-.66,16.81-1.72,33.59-4.73,50.18-1.1,6.06-1.23,6.25-7.58,6.11-7.59-.17-7.9-.32-7.44-8.25.92-15.68,1.87-31.31.2-47-.92-8.64-1.75-17.28-3.21-25.84-1.39-8.16-.59-9.17,7.73-9.93l.84,0c14.39-.34,12.46.67,12.9,11.28C1822.45,1745.54,1823.88,1753.32,1823.42,1761.21Z" transform="translate(-966.99 -302.17)" fill="#fffdfd"/><path d="M1484.58,1438.26c.18-.62.18-1.59.57-1.79,7.38-3.75,7.77-3.71,8.27-12.08.7-11.6.68-23.24,1.12-34.85.12-3.22-.85-6.72,1.75-9.51,2.5,1.22,1.13,5.93,5.19,5.74,1.37,6-.21,12.17.61,18.23q-.1,3-.2,6c-.82,10.55-.64,21.2-3.05,31.59-4.43.66-4.56,3.88-4.72,7.43-.23,5.22.73,10.57-1,15.64-3.59.12-3-2.36-3.1-4.16-.16-5.67-.28-11.33-.18-17C1489.92,1439.72,1488.49,1437.84,1484.58,1438.26Z" transform="translate(-966.99 -302.17)" fill="#f19286"/><path d="M1251.1,1861.21c-3.78,9-11,15.3-17.86,21.74-10.47,9.83-22.21,17.76-36.1,22.07-.08-1.08-.15-2.17-.23-3.25,10.76-5.22,21.22-10.79,30.53-18.53,8.46-7,14.43-16,21.46-24.21Z" transform="translate(-966.99 -302.17)" fill="#f19286"/><path d="M1517.36,2493.22c2.06,15.18,9.11,29.52,7.32,45.34C1517.88,2524.18,1517.34,2508.75,1517.36,2493.22Z" transform="translate(-966.99 -302.17)" fill="#fffdfd"/><path d="M1579.74,1466.68c2.71-.34,4.76-1.19,4.9-4.53.12-2.75-.71-5.79,1.67-8.11,3.52,9.23,1.38,18.72,1.19,28.11a3.28,3.28,0,0,1-3.35,3,3.69,3.69,0,0,1-3.87-3.69C1579.88,1476.58,1579.89,1471.62,1579.74,1466.68Z" transform="translate(-966.99 -302.17)" fill="#f19286"/><path d="M1502.07,1450.37c5.89,1.39,12.25-1.65,17.9,1.91-8.66,2.92-15.08,2.52-20.09-1.24Z" transform="translate(-966.99 -302.17)" fill="#f19286"/><path d="M1373.81,1667.47a17.75,17.75,0,0,1,7.75,5.79c-3.74.4-5.69-1.62-7.65-3.63C1373.88,1668.91,1373.84,1668.19,1373.81,1667.47Z" transform="translate(-966.99 -302.17)" fill="#f19286"/><path d="M1418.52,1463.7c1.73,2.26-1.24,5.61,1.74,7.59-1,2-2.63,3.61-3.82.77S1415,1465.76,1418.52,1463.7Z" transform="translate(-966.99 -302.17)" fill="#f19286"/><path d="M1420.43,1453.67c1.15,1.71.74,3.11-.84,4.28C1417.23,1456,1418.39,1454.75,1420.43,1453.67Z" transform="translate(-966.99 -302.17)" fill="#f19286"/><path d="M1450,1480.19c1.23-1.55,2.66-1.86,4.31-.68C1453.19,1481.68,1451.88,1482.75,1450,1480.19Z" transform="translate(-966.99 -302.17)" fill="#f19286"/><path d="M1379.55,2013.82c.18,0,.46,0,.52.07a.84.84,0,0,1,.14.67c-.32.72-.67.68-.87-.09C1379.3,2014.28,1379.47,2014,1379.55,2013.82Z" transform="translate(-966.99 -302.17)" fill="#f0bf5a"/><path d="M1502.07,1450.37l-2.19.67-.06-3Z" transform="translate(-966.99 -302.17)" fill="#fffdfd"/><path d="M1372.08,609.94a7.31,7.31,0,0,0,2.2,6.16c3.46,10,6.73,20,10.43,29.86a132.74,132.74,0,0,1,5.37,18c-1.88,2.07-1.88,4.06.24,6-.14,9.93-.33,19.86.81,29.75-.86,10.13-1.93,20.27,1.22,30.24-.12,9.93-.39,19.86.83,29.75-.91,5.51-2.25,11,1,16.28.73,3.65,2.71,6.7,4.7,9.74-.19,3-.55,6-.55,9q.14,68.87.37,137.72c0,2.6-.57,5.38,1.6,7.55q0,59.56.07,119.13a22.63,22.63,0,0,0,1.77,8.68,4.25,4.25,0,0,0-1,4.56c-.25,1.24-.49,2.49-.74,3.73-1.62,1.11-2.06,2.51-1.09,4.28-.28,1.24-.55,2.49-.83,3.74-1.61,1.12-2.08,2.51-1,4.26a10.72,10.72,0,0,0-1.24,5.69,3.19,3.19,0,0,0-1.21,4.28c-.23,1.24-.47,2.49-.7,3.74a3.07,3.07,0,0,0-1.14,4.28c-.26,1.24-.51,2.49-.77,3.74a16.16,16.16,0,0,0-2.93,12.26,10.87,10.87,0,0,0-1.24,5.7,3.17,3.17,0,0,0-1.2,4.28c-.24,1.25-.47,2.49-.71,3.74a3.06,3.06,0,0,0-1.13,4.28l-.78,3.74c-1.61,1.11-2.07,2.51-1.06,4.27l-1.2,5.68a3.21,3.21,0,0,0-1.22,4.27c-1,3.9-2.68,7.63-2.59,11.76a3,3,0,0,0-1.12,4.28c-.27,1.25-.53,2.49-.8,3.74-2.18,1.62-2.26,3.82-1.71,6.19-7.28,9.56-16.6,17.17-24.86,25.79-8.49,8.86-17.15,17.56-25.74,26.33a4.92,4.92,0,0,1-2.27-4.19c-.64-15-1.41-29.91-1.83-44.88-.2-7.21.1-7.14,7.25-6.39,4.63.49,9.28.77,13.93,1.08a13.42,13.42,0,0,0,8.51-2.35,3,3,0,0,0,1.46-3.39,3,3,0,0,0-2.94-2.24c-1.31-.1-2.65,0-4,0-3.32,0-6.66.14-10,0-14.41-.84-13.94-.91-15-15.51s-1.33-29.26-1.62-43.9c0-2.59-.7-5.36,1.44-7.87,4.79.47,10,.17,14.62,1.62,6.64,2.07,11.58-1.62,17.09-3.48,2-.66,3.33-2.43,2.47-4.74s-3.25-2.59-5-1.87c-7.43,3-15,2.48-22.66,1.58s-9-2.35-9.33-10.21c-.46-12.65-.43-25.31-.82-38-.22-7.31-.78-14.61-1.36-21.91-.39-4.94,1.85-6.38,6.52-6.08,8.95.56,17.73,3.41,26.8,2.18,3.67-.5,9.69,1.33,9.75-4,0-6.15-6.09-3.5-9.44-3.37-9.42.37-18.55-1.73-27.82-2.39-4-.29-6-2.11-6.12-6.26q-1-33.93-2.27-67.86c-.18-4.77,1.79-6.31,6.49-6.3,9.69,0,19.14,2.84,28.85,2.12,2.32-.17,4.67-.07,7-.4a3.5,3.5,0,0,0,3.24-3.24c.16-2-1.23-3.07-2.88-3.49a16.42,16.42,0,0,0-4.94-.45c-10.7.56-21.19-2.1-31.85-2.08-5,0-7.51-2-7.21-7.15,0-.33,0-.67,0-1q-.32-33.45-2.16-66.87c-.14-2.57-.73-5.3,1-8,8,.43,15.35,3.71,23,5.86,6.73,1.89,13.22.62,19.79.08,2.39-.19,4.57-1.71,3.91-4.69-.54-2.45-2.83-2.77-4.79-2.45-12.7,2.11-24.27-2.51-36.14-5.66-5.47-1.46-7.08-4.31-7.42-9.86-1.21-20-1.49-39.91-1.95-59.88-.09-4-.75-7.94-1-11.91-.25-3.46,1.29-4.92,4.83-4.13,7.46,1.66,15.08,2.79,22.38,5,7.65,2.31,15.15.67,22.71.46,2.46-.07,4.9-1,4.7-4s-2.87-3.6-5.21-3.37c-14.55,1.39-28.41-2.25-42.4-5.25-5.45-1.16-8.41-3.23-7.36-9.27.32-1.88.36-4.46-.67-5.82-5.59-7.44-3.66-15.91-3.9-24.11-.12-4.14.41-8,3.8-10.87A8.15,8.15,0,0,0,1306,688c-2.39-29.25,7.56-56.47,13.92-84.27,3.64-15.88,7.79-31.65,11.77-47.45,3-11.85,6.26-13.23,17.74-7.67,5.07,14,9.56,28.28,15.68,41.91.37,1.19.74,2.38,1.12,3.56Z" transform="translate(-966.99 -302.17)" fill="#fffdfd"/><path d="M1440.15,970l4.21.15c-1.19,4.59,1.17,6.6,5.24,8,12.22,4.13,24.05,10,37.59,7.55a23.15,23.15,0,0,1,5,0c8,.31,8.12.32,8.1,8.72-.06,25.31-.23,50.63-.37,75.95,0,2-.07,4-.08,6,0,3.19-1.62,5.46-4.79,5-7.84-1-16,.35-23.53-3.29-8.69-4.2-17.51-8.13-26.28-12.16-2.7-1.25-6-3.31-7.9.3-2.07,3.86,1.72,5,4.34,6.26,6.32,3,12.91,5.46,19,8.83,9.26,5.12,18.77,7.7,29.5,7,9.29-.58,9.66.16,9.53,9.37-.31,21.63-.94,43.26-1.25,64.89-.25,16.86-1.29,17.91-18.2,15.5a31.25,31.25,0,0,1-7.55-2.44c-9.79-4.2-19.52-8.52-29.29-12.77-2.34-1-4.76-1.21-6.06,1.39-1.42,2.85.74,4.28,3,5.27,7,3.1,14.22,5.74,21,9.25,9.63,5,19.38,8.65,30.47,7.14,5.65-.77,6.54,2.6,6.49,7.29-.23,22.65-.27,45.31-.4,68,0,1.33-.12,2.66-.26,4a3.2,3.2,0,0,1-3.26,3.15c-10.1-.53-20.5,2.63-30.13-3.64-6.67-4.34-14.1-7.5-21.21-11.16-2.31-1.19-4.63-1.46-5.86,1.38-1,2.36.78,3.75,2.52,4.74,5.49,3.13,11.06,6.13,16.61,9.18,9,5,17.81,10.49,28.93,7.37,1.85-.51,4,0,6,0,4.62-.21,6.73,1.88,6.56,6.54-.36,10.64.12,21.29-.62,32-.83,11.9-1.66,23.87.37,35.77-.33,1.93-.79,3.86-.94,5.81-.23,2.8-1.7,4.22-4.41,4.16-7.46-.16-14.84.85-22.18-2.58-8.82-4.12-18.53-6.38-26-13.16-.61-2.22-1.87-3.79-4.25-4.21-3.07-4-7.88-3.15-12-4.3-.64-3.47.35-7.13-1.26-10.48,1.14-2.38,1-4.88.73-7.4a5.74,5.74,0,0,0,.28-4.47l.33-5.8c2-1.79,1.67-4.2,1.83-6.49.58-8.25-1.23-16.42-1.51-24.49-.74-21.18-.38-42.44.71-63.66a635.33,635.33,0,0,0,.54-65.61l.4-25.76c2.38-3.29,2.26-6.63.26-10,0-1.31,0-2.62-.07-3.93a6,6,0,0,0-.8-4.29c-.18-2.77-.83-5.48-4.36-4.73-2.44.52-2.25,2.69-1.35,4.65a3.15,3.15,0,0,0,.79,4.36l0,24.07c-2.76,3.14-1.6,7-1.66,10.49-.39,25.53.13,51.09-1.13,76.57-1.47,29.74-1.91,59.39,1,89-.07,1.29-.14,2.57-.2,3.86-2.15,1.94-2,4.11-.61,6.39a12.24,12.24,0,0,0-.78,7.29c-.2,5.81-3.37,9.16-8.83,10.6-5.94-.14-11.88-.32-17.75.9-5.52-1-11-1.88-16.25,1.11-5.94-.14-11.88-.3-17.75.89-4.86-1-9.69-1.74-14.26,1-6.6-.1-13.21-.29-19.74,1-4.85-1.1-9.68-1.78-14.26,1-6.6-.1-13.21-.31-19.74,1-4.85-1.14-9.67-1.79-14.26,1-4.41-.07-4.61-3.09-4.45-6.36,1.6-1.15,2-2.55.93-4.28a10.67,10.67,0,0,0,1.15-5.71,2.92,2.92,0,0,0,1-4.28c1.71-4.93,5.63-8.1,9.21-11.52q52.86-50.45,105.74-100.84c1.65-1.57,3.93-2.64,4-5.36,2.08-1.76,2.12-3.92,1.22-6.26.31-1.91.63-3.81.94-5.71a3.1,3.1,0,0,0,1-4.3c.31-1.9.63-3.8.94-5.7a3.1,3.1,0,0,0,1-4.3c.32-1.9.63-3.8,1-5.7a3.09,3.09,0,0,0,1-4.3c.31-1.9.63-3.8.94-5.71a3.06,3.06,0,0,0,1-4.29l1-5.71a3.06,3.06,0,0,0,1-4.29l1-5.71a3,3,0,0,0,1-4.29c.33-1.9.65-3.8,1-5.71a3.06,3.06,0,0,0,1-4.29l1-5.71a3,3,0,0,0,1-4.29q.48-2.87,1-5.71a3,3,0,0,0,1-4.3c.32-1.9.65-3.8,1-5.7,2.15-1.69,2.17-3.88,1.44-6.24l.63-3.77,3.94.4c.58,1.68,1.6,3.13,3.5,2.64,2.56-.65,2.29-2.88,1.87-4.83-2-9.3-4.13-18.59-6.21-27.88a3.15,3.15,0,0,0-1.13-4.29l-1-5.7c1.2-6.15-3.3-10.92-4-16.61-.17-1.13-.35-2.27-.52-3.4a4.81,4.81,0,0,0,.77-4.59c.2-1.25.4-2.5.61-3.75,1.6-1.14,2-2.55,1-4.29q.55-2.85,1.1-5.7a3,3,0,0,0,1-4.29l1-5.69a3.15,3.15,0,0,0,1.13-4.29c3.33-14,6.55-28,8.8-42.17l4,.88q.16,8.79.35,17.58-3.22,4.05.13,8,.24,12.87.49,25.75c-.44,1.84-.1,3.48,2,3.81,2.63.42,3.48-1.2,3.27-3.59q0-4,0-7.94c2.06-2,2-4-.11-6Z" transform="translate(-966.99 -302.17)" fill="#fffdfd"/><path d="M1639.4,586c5-7.25,6.18-16,9.31-24,2.18-5.57,4-11.3,5.84-17,1.34-4,3.88-5.94,8.27-5.46,4.14.45,6.44,2.27,7.47,6.59,4.24,17.79,8.87,35.49,13.25,53.25,3.9,15.83,7.65,31.69,11.47,47.54a23.33,23.33,0,0,1,.83,2.87c2.38,21.35,4.25,42.77,8,63.95.45,2.57,1,5.81-.84,7.77-5.63,6.11-4.49,13.39-4.72,20.67-1.37,44.25-2.67,88.5-4.61,132.73q-2.13,48.38-3.87,96.76-2,54.38-4.11,108.75c-1.26,33.59-2.89,67.16-4,100.76-.4,12.29-1.26,24.59-1.57,36.89-.06,2.33,0,4.73-2.27,6.25A30.5,30.5,0,0,0,1670,1216a4.37,4.37,0,0,0-3.89-4.23A74.13,74.13,0,0,0,1652,1196c-.53-3.4-2.59-5.39-5.81-6.33a41.88,41.88,0,0,0-9.27-11c-2.25-1.91-2.6-4.22-3.49-6.52.42-2.44-.82-3.93-2.82-5-6.31-10.39-4.87-21.92-4.87-33.24,3.47-7.83,1.41-16.16,2.15-24.24.18-2-.21-4.32-2.64-4.64-3.09-.41-3.75,2.29-4.16,4.5a65.73,65.73,0,0,0-.56,20.62c-1,2.69.5,5.87-2.57,9.51-5.64-12.35-14.11-22.68-13.91-36.64.1-7.1.07-7.1,7.88-6.72,1,1.57,2.53,1.77,4.2,1.39,4.59.23,6.43,7,11.93,5,4.42,1.08,8.83,2.28,13.3,3.18a3.09,3.09,0,0,0,3.83-2.24c.52-1.92-.64-3.2-2.18-3.88a45.44,45.44,0,0,0-13.14-3.68q-.82-3.95-1.64-7.88c1.59-5.48,2.31-10.93-.52-16.26q-.11-20.68-.21-41.36c0-10.44,0-10.48,10.63-7.39a11.42,11.42,0,0,0,2,.24c2.15,2.64,4.62,2.69,6.57.12,1.68-2.22.11-3.54-2.18-4.08-2.12-.91-4.2-2-6.39-2.71-10.69-3.49-10.67-3.46-10.55-14,.11-9,.15-17.93.22-26.89,3.15-9.31,2.07-18.79,1.09-28.26.25-3.56.47-7.12.77-10.68.45-5.46,1-5.81,6.67-4.36,1.24.32,2.47.7,3.71,1.05.45.45.82,1.09,1.37,1.31,2.73,1.14,6.2,2.23,7.48-1.13,1.42-3.74-2.56-4.46-5.09-5.49a13.07,13.07,0,0,0-3.79-.34c-5.12-1.69-10.8-2.81-10.43-10.15,2.56-2.79,1.6-6.26,1.64-9.45.25-18.47.32-36.94.55-55.41,0-3.52-.89-7.35,2.19-10.28l5.48,1.82c1.42,2.69,3.46,3.66,6.21,2a2.76,2.76,0,0,0,1.39-3.24c-.84-2.3-2.51-3.6-5.16-3-4.45-1.59-9.16-2.83-10.81-8.14,1.43-7.57.47-15.19.34-22.77-.08-4.49,1.4-9.3-1.66-13.47l-.45-25.76c1.18-3.58.63-7.26.61-10.9-.13-16.59-.16-16.59,15.36-12.8.65.16,1.25.47,1.9.63,2.64.64,5.77,1.45,6.5-2.18.68-3.33-2.3-4.36-5-5-6.1-1.57-12-3.82-18.38-4.38q-.27-5.8-.53-11.63c2.86-4.52,2-9.38,1.33-14.24.19-3.26.39-6.52.58-9.78,3-5.85,2.18-12,1.59-18.19.17-3.26.34-6.53.52-9.79,2.85-4.51,2-9.38,1.35-14.23.19-3.26.37-6.53.55-9.79,3.12-5.17,2.1-10.71,1.46-16.21q.27-4.89.56-9.78c3.12-5.17,2.08-10.71,1.46-16.22q.29-4.89.55-9.77c1.8-1.34,1.86-2.65-.08-3.91Q1639.5,589,1639.4,586Z" transform="translate(-966.99 -302.17)" fill="#fffdfd"/><path d="M1655.7,1343.25c-5.19-1.22-10.47-1-15.75-.9-5.21-3-10.73-2.12-16.24-1.23l-15.56-1.2q-.18-73.45-.33-146.93c0-2,.3-4,2.28-5.19a54.06,54.06,0,0,0,17.83,22.22c5.3,9.64,14.58,15.63,21.73,23.57,2.33,2.59,4.41,5.82,8.37,6.38,12.36,12.54,24.67,25.11,37.08,37.59,11.25,11.32,22.34,22.82,34,33.67,6.19,5.74,10.44,11.8,10,20.48a29.43,29.43,0,0,0,.11,14.68,1.82,1.82,0,0,0-.82,1c-6.9-.82-13.8-1.67-20.71-.13-5.2-1.21-10.48-1-15.75-.9-5.22-3-10.73-2.16-16.24-1.19-4.55-1.07-9.15-1-13.77-.78C1666.72,1341.39,1661.22,1342.18,1655.7,1343.25Z" transform="translate(-966.99 -302.17)" fill="#fffdfd"/><path d="M1568.81,1345.4c5.68-2,9.7-1.23,13.63-1,13.28.89,26.53,2.2,39.82,3q53.33,3.42,106.68,6.54c17.14,1,16.45.74,17-16.39.44-13.64-3.91-23.48-14-33.13-34.89-33.43-68.73-68-103-102a93.46,93.46,0,0,1-11.38-13.86c-5.21-7.69-8.1-15.77-7.85-25.24.21-7.81-.78-15.65-1.25-23.58,3.35.16,3.54,2.6,4.26,4.24,4.8,11,11.25,21.2,14.88,32.69.73,2.33,2.26,4,3.83,5.75,34,37.47,67.76,75.24,102.26,112.29,11.74,12.61,19.3,26.88,24.06,43,.92,3.12,2.11,6.17.93,9.72-2.8,8.46-7.34,16.39-7.63,25.68-.11,3.67-3.33,4.46-6.66,4.42-10.33-.11-20.68.31-31-.24-35.3-1.9-70.63-.9-105.94-1.66-5.33-.11-10.67-.22-16-.13-5.94.11-9.92-1.85-12.23-7.94C1576.47,1360.3,1572.59,1353.34,1568.81,1345.4Z" transform="translate(-966.99 -302.17)" fill="#283447"/><path d="M1497.52,1350.43c-2-11.9-1.2-23.87-.37-35.77.74-10.66.26-21.31.62-32,.17-4.66-1.94-6.75-6.56-6.54-2,.09-4.13-.46-6,0-11.12,3.12-19.93-2.42-28.93-7.37-5.55-3-11.12-6-16.61-9.18-1.74-1-3.55-2.38-2.52-4.74,1.23-2.84,3.55-2.57,5.86-1.38,7.11,3.66,14.54,6.82,21.21,11.16,9.63,6.27,20,3.11,30.13,3.64a3.2,3.2,0,0,0,3.26-3.15c.14-1.32.25-2.65.26-4,.13-22.65.17-45.31.4-68,0-4.69-.84-8.06-6.49-7.29-11.09,1.51-20.84-2.15-30.47-7.14-6.79-3.51-14-6.15-21-9.25-2.22-1-4.38-2.42-3-5.27,1.3-2.6,3.72-2.4,6.06-1.39,9.77,4.25,19.5,8.57,29.29,12.77a31.25,31.25,0,0,0,7.55,2.44c16.91,2.41,18,1.36,18.2-15.5.31-21.63.94-43.26,1.25-64.89.13-9.21-.24-10-9.53-9.37-10.73.67-20.24-1.91-29.5-7-6.1-3.37-12.69-5.85-19-8.83-2.62-1.23-6.41-2.4-4.34-6.26,1.94-3.61,5.2-1.55,7.9-.3,8.77,4,17.59,8,26.28,12.16,7.53,3.64,15.69,2.25,23.53,3.29,3.17.42,4.76-1.85,4.79-5,0-2,.07-4,.08-6,.14-25.32.31-50.64.37-75.95,0-8.4-.12-8.41-8.1-8.72a23.15,23.15,0,0,0-5,0c-13.54,2.41-25.37-3.42-37.59-7.55-4.07-1.37-6.43-3.38-5.24-8,7-.69,12.75,3.25,19.09,5,2.87.79,5.62,2.34,8.51,2.64,3.93.4,8.36,1,11.83-.43,4.82-1.92,1.89-7,2.12-10.66.31-4.68,2.63-6.53,7-6.39,10.29.34,20.59,0,30.87,1.17,4.49.53,6.13,2.09,6.68,6.64,1.41,11.55,4,13,14.77,8.61,6.77-2.73,13.28-6.1,19.89-9.21,2.16-1,4.65-2.35,6.12.36,1.66,3.07-.64,4.94-3.19,6.19-8.66,4.25-17.35,8.41-26,12.63a8.53,8.53,0,0,1-6.74.61c-6.48-2.15-13.19-1.1-19.8-1.22-7.24-.14-7.45.11-7.53,7-.14,11,0,21.93.07,32.89q-.09,11-.17,22c-.13,9-.11,17.93-.47,26.89-.21,5.22,2,6.73,7,7,12.46.62,24.41-.32,35.67-6.46,5.51-3,11.51-5.13,17.32-7.58,2.15-.91,4.57-2,6,1,1.23,2.64-.15,4.55-2.54,5.59-11.88,5.13-23.52,11-35.8,14.89-6.32,2-13.82.26-20.78,0-4.3-.13-6.94,1-7,6-.2,26.21-2.24,52.39-1,78.62-.45,3,1,4.34,3.82,4.33,4.61,0,9.21-.14,13.82-.21,12.84-2,24.93-6.83,37.49-9.87,3.29-.8,7.8-4,9.48,1.09,1.82,5.45-4,5.13-7,6-11.44,3.49-23,6.42-34.53,9.72-4.94,1.42-9.91.75-14.87.89-8.42.22-8.53.17-8.65,8.09-.1,6.64.09,13.29.16,19.94l-.18,24c-.14,7.31-.39,14.61-.36,21.92,0,8.52.16,8.16,9.15,8.81,13.51,1,26.31-2.88,39.38-5,2-.31,3.89-1,5.83-1a3.34,3.34,0,0,1,3.32,3.09,3.11,3.11,0,0,1-1.83,3.27,46.94,46.94,0,0,1-7.54,2.41c-7.4,1.75-15,2.27-22.29,4.93-5.45,2-11.15-.56-16.79-.3-9.22.41-9.22.17-9.42,9.53q-.63,28.88-1.32,57.74a64.17,64.17,0,0,1-.87,6.87Zm11.18-372.31v.28h9c3.2,0,6.1-.22,6-4.59,0-3.71-1.86-5.5-5.49-5.55q-9.48-.15-19-.26c-2.86,0-5.36.34-5.34,4.16,0,3.35.67,6,4.8,6C1502.05,978.1,1505.38,978.12,1508.7,978.12Z" transform="translate(-966.99 -302.17)" fill="#f19286"/><path d="M1412.49,1058.08c3,7.28,3.71,13.7,2.24,20.87-7.88,38.45-15.42,77-22.91,115.5a28.81,28.81,0,0,1-8.84,16.2c-34.59,32.74-68.9,65.77-103.55,98.43-5.39,5.08-9,10.44-9.64,17.82a38.8,38.8,0,0,1-1.19,4.84c-2.68,12.34-5.61,14.53-17.91,13.82-3.47-.2-5.36-2-4.36-5,3.82-11.55,5.64-23.92,15-33.15,37.41-37,74.6-74.25,112-111.28a31.2,31.2,0,0,0,9-16.08c8.82-38.93,18.18-77.74,27.36-116.59C1410.05,1061.88,1410,1060.14,1412.49,1058.08Z" transform="translate(-966.99 -302.17)" fill="#283447"/><path d="M1435.6,1345.59c-3.5,7-6.77,13.18-9.69,19.52-1.76,3.81-4.3,5.23-8.52,5.42-39.29,1.76-78.55,3-117.85.1-15.27-1.15-30.66-.11-45.91-2.05-7.2-.92-7.4-1.06-7.29-8.66.1-7.15.53-7.64,8.1-8.08q53.36-3.12,106.7-6.22c18.94-1.12,37.87-2.5,56.81-3.57C1423.87,1341.72,1429.9,1341.66,1435.6,1345.59Z" transform="translate(-966.99 -302.17)" fill="#283447"/><path d="M1500.55,836c-12.26,2.17-24.17-2.41-36.31-5.79-3.49-1-5.29-2.65-4.5-6.31,1.82-8.43,3.76-16.83,5.59-25.25.72-3.33,2.59-4.39,5.78-3.27.31.11.65.13,1,.23,21.9,7,44.09,2.78,66.16,1.47,5-.3,7.27.55,8.19,5.68,1.33,7.5,3.3,14.89,5.15,22.29,1.07,4.26-.61,6.3-4.76,6.73C1531.65,833.29,1516.65,836.61,1500.55,836Z" transform="translate(-966.99 -302.17)" fill="#283447"/><path d="M1498.49,793.44a257.83,257.83,0,0,1-26.18-4.64c-3.94-.89-4.31-2.84-3.59-6.47,3.46-17.65,3.94-18.42,21-13.51,9.06,2.61,17.59,1.56,26.39,0,17.21-3.1,17.22-3.06,24,13.18,3.13,7.53,3.06,7.82-4.61,8.5C1523.25,791.56,1511,792.45,1498.49,793.44Z" transform="translate(-966.99 -302.17)" fill="#fffdfd"/><path d="M1632.11,614.49c-.87,12.92-1.64,25.85-2.63,38.77q-2.71,35.28-5.7,70.54c-.27,3.2,1.44,8.13-4.39,8.21s-5.51-4.46-5.44-8.54c.34-21.61.39-43.24,1.92-64.81.59-8.42,4.49-16,7.12-23.81C1625.33,627.84,1627.13,620.52,1632.11,614.49Z" transform="translate(-966.99 -302.17)" fill="#283447"/><path d="M1606.47,995.75c2-21.28,1.08-42.26,1.94-63.2.12-2.8-2.18-7.41,3.13-7.95s11.28,4.08,11.8,8.47a14.23,14.23,0,0,1,0,3c-2,19.9-1,39.9-1.87,59.83-.08,2,.25,4.13-.36,6-1,3,1.33,8.21-4.72,8.15-6.47-.06-9.71-3.31-9.91-9.62C1606.42,998.71,1606.47,997.05,1606.47,995.75Z" transform="translate(-966.99 -302.17)" fill="#283447"/><path d="M1622,1060.23c0,9.87-.08,18.18,0,26.49.07,4.46-1.71,6.16-6.07,4.79a47.52,47.52,0,0,0-4.75-1.5c-5-1-7.24-3.82-6.82-9.12.65-8.28,1-16.58,1.25-24.88.29-10.63.19-21.27.58-31.9.12-3.14-1.85-8,4.07-8.31,6.37-.32,9.85,2.92,10.15,9.14C1621,1037.22,1621.48,1049.5,1622,1060.23Z" transform="translate(-966.99 -302.17)" fill="#283447"/><path d="M1623.7,879.17c0,11.31.1,22.63-.07,33.94,0,2.62,1.33,6.52-3.46,6.81-3.88.23-10-3.25-10.55-6a24.27,24.27,0,0,1-.13-5q.52-33.93,1.08-67.88a38.09,38.09,0,0,1,.46-5.95,2.77,2.77,0,0,1,3.49-2.54c5.78.94,9.72,5.46,9.76,11.66.09,11.64,0,23.29,0,34.94Z" transform="translate(-966.99 -302.17)" fill="#283447"/><path d="M1623.94,769.92c.06,15.6.17,31.2.14,46.81,0,3.57.89,7.27-.84,10.72-10.48-1.69-11.61-2.71-11.46-12.1.4-23.57.1-47.17,1.91-70.71.18-2.38-1-6,3.2-6,3.49,0,5.06,2.28,5.37,5.86.51,5.88-1.19,12,1.5,17.64Z" transform="translate(-966.99 -302.17)" fill="#283447"/><path d="M1556.27,918.84c0,.26,0,2.91,0,5.55s-1.56,4.18-4.08,4.83c-2.76.72-4.48-.53-5.48-3a28,28,0,0,1-1.56-4.71c-.94-4.14-3.58-5.88-7.67-6.48-5.23-.76-10.37-2.09-15.56-3.12-2.84-.57-4-2.05-3-4.93.22-.63.43-1.25.63-1.89,5.15-16.94,3.87-14,17.66-9.51,1.88.61,3.77,1.23,5.6,2C1557.48,903.72,1555.5,899.92,1556.27,918.84Z" transform="translate(-966.99 -302.17)" fill="#283447"/><path d="M1556.92,463.34c0,2.07-.3,4.27-2.73,4.65s-3.6-1.64-4-3.63c-1.11-6.22-2.26-12.45-2.89-18.73a150.44,150.44,0,0,0-9.63-39.61c-1.49-3.86-6.35-10.12-1-12.24,6-2.38,5.34,5.71,7.12,9.39,8.91,18.34,9.83,38.5,12.85,58.18C1556.83,462,1556.86,462.67,1556.92,463.34Z" transform="translate(-966.99 -302.17)" fill="#fffdfd"/><path d="M1454.18,921.24c0-.33,0-.67.12-1,4.52-20.22-1.62-16.78,19.15-22,1.28-.32,2.57-.64,3.84-1,3.09-1,6.27-4.29,9.22-2.42,3.78,2.42,3.56,7.58,4.89,11.61.79,2.39-.61,3.71-3,3.94a25,25,0,0,1-3,.26c-7.93-.19-14,2.46-17.4,10.26-1.34,3.1-3.92,5-7.68,5.55C1454.36,927.31,1453.73,927,1454.18,921.24Z" transform="translate(-966.99 -302.17)" fill="#283447"/><path d="M1610.1,1187.8c-2,1.19-2.28,3.15-2.28,5.19q.15,73.47.33,146.93c-4.84.38-9.91,5.44-14.41-.73L1596,1338c7.58.51,7.58.51,8-6q.18-68.31.39-136.63c0-3.94-.78-8,1.09-11.79C1608,1183.92,1610.27,1184.51,1610.1,1187.8Z" transform="translate(-966.99 -302.17)" fill="#f19286"/><path d="M1477.31,757.81c6.37-5.44,12.28-9.8,20.3-10,4.29-.11,8.63.28,12.89-.17,9.17-1,13.74,4.33,17.76,12.1C1511,764.67,1494.5,766.05,1477.31,757.81Z" transform="translate(-966.99 -302.17)" fill="#283447"/><path d="M1400.34,940c-2.17-2.17-1.59-5-1.6-7.55q-.23-68.86-.37-137.72c0-3,.36-6,.55-9,4.8,1.94,3,6.18,3,9.5.13,36.81.11,73.62.13,110.43,0,9,0,17.91,0,26.86C1402.06,935.1,1402.69,937.89,1400.34,940Z" transform="translate(-966.99 -302.17)" fill="#f19286"/><path d="M1566.94,603.77c0,7.94,0,15.89,0,23.84a33.86,33.86,0,0,1-.79,6.81c-.16.72-1.31,1.46-2.15,1.73a2.56,2.56,0,0,1-3.11-1.82,14.42,14.42,0,0,1-.71-4.86c-.06-17.22-.11-34.44,0-51.66,0-2.72-.94-7,3.24-6.92,3.94,0,3.45,4.16,3.47,7.05.08,8.61,0,17.22,0,25.83Z" transform="translate(-966.99 -302.17)" fill="#fffdfd"/><path d="M1504.62,910.32c-3.38.41-6.07-.73-6.94-4.84-.4-1.94-1.48-3.78-1.63-5.71-.28-3.49-4.55-7.3,1-10.46s14.19-3.6,17.9-.45c.25.22.58.43.68.72,2.21,6.32-2,11.4-3.35,17C1511.33,910.43,1508,910.27,1504.62,910.32Z" transform="translate(-966.99 -302.17)" fill="#fffdfd"/><path d="M1565,544.13a14.88,14.88,0,0,1,0,2.23c-.11,1.72-.68,3.47-2.51,3.8-2.41.44-3.62-1.28-4-3.39-.53-2.92-.92-5.87-1.2-8.83q-1.07-11.34-1.94-22.69a40.77,40.77,0,0,1,0-6.9,3.1,3.1,0,0,1,3.39-2.91,2.85,2.85,0,0,1,2.66,2.51,53,53,0,0,1,1,5.85C1563.22,523.33,1564,532.87,1565,544.13Z" transform="translate(-966.99 -302.17)" fill="#fffdfd"/><path d="M1623.94,769.92l-.18-7.74c2.27-1.46,2.43-3.79,2.22-6.07a33.4,33.4,0,0,1,4.27-20.5c6.34.55,12.28,2.8,18.38,4.37,2.67.69,5.65,1.72,5,5-.73,3.63-3.86,2.82-6.5,2.18-.65-.16-1.25-.47-1.9-.63-15.52-3.79-15.49-3.79-15.36,12.8,0,3.64.57,7.32-.61,10.9Z" transform="translate(-966.99 -302.17)" fill="#f19286"/><path d="M1633.89,842.78c-3.08,2.93-2.14,6.76-2.19,10.28-.23,18.47-.3,36.94-.55,55.41,0,3.19.92,6.66-1.64,9.45-2-1.83-1.6-4.25-1.6-6.54q0-31,.11-62a15.53,15.53,0,0,1,.38-4.94C1629.36,841.68,1631.39,841.16,1633.89,842.78Z" transform="translate(-966.99 -302.17)" fill="#f19286"/><path d="M1620.51,1130.22a65.73,65.73,0,0,1,.56-20.62c.41-2.21,1.07-4.91,4.16-4.5,2.43.32,2.82,2.68,2.64,4.64-.74,8.08,1.32,16.41-2.15,24.24C1623.8,1133,1623.37,1129.91,1620.51,1130.22Z" transform="translate(-966.99 -302.17)" fill="#f19286"/><path d="M1658,1240c-4-.56-6-3.79-8.37-6.38-7.15-7.94-16.43-13.93-21.73-23.57.66.06,1.5-.13,1.94.21a171.15,171.15,0,0,1,27.91,27.81C1658.13,1238.47,1658,1239.32,1658,1240Z" transform="translate(-966.99 -302.17)" fill="#f19286"/><path d="M1629.68,796c3.06,4.17,1.58,9,1.66,13.47.13,7.58,1.09,15.2-.34,22.77-1.63-.64-2.87-1.75-2.88-3.55q-.06-15.12.1-30.25C1628.23,797.66,1629.17,796.86,1629.68,796Z" transform="translate(-966.99 -302.17)" fill="#f19286"/><path d="M1629.85,1096.18a45.44,45.44,0,0,1,13.14,3.68c1.54.68,2.7,2,2.18,3.88a3.09,3.09,0,0,1-3.83,2.24c-4.47-.9-8.88-2.1-13.3-3.18C1627.7,1100.34,1628.85,1098.28,1629.85,1096.18Z" transform="translate(-966.99 -302.17)" fill="#f19286"/><path d="M1392.35,730c-3.15-10-2.08-20.11-1.22-30.24.77.61,2.19,1.19,2.22,1.84C1393.8,711,1395.79,720.6,1392.35,730Z" transform="translate(-966.99 -302.17)" fill="#f19286"/><path d="M1628.82,947.71c1,9.47,2.06,18.95-1.09,28.26C1624.74,967.23,1625.28,953.22,1628.82,947.71Z" transform="translate(-966.99 -302.17)" fill="#f19286"/><path d="M1426.5,1325.67c1.61,3.35.62,7,1.26,10.48-2.91,0-5.75-.12-8.57,1.16-2.39,1.09-5,1.42-7.14-1,5.46-1.44,8.63-4.79,8.83-10.6Z" transform="translate(-966.99 -302.17)" fill="#f19286"/><path d="M1717.7,1347.27c6.91-1.54,13.81-.69,20.71.13A20.1,20.1,0,0,1,1717.7,1347.27Z" transform="translate(-966.99 -302.17)" fill="#f19286"/><path d="M1633.22,681.76c.59,6.16,1.44,12.34-1.59,18.19C1629.78,693.68,1627.55,687.37,1633.22,681.76Z" transform="translate(-966.99 -302.17)" fill="#f19286"/><path d="M1639.94,928.07a13.07,13.07,0,0,1,3.79.34c2.53,1,6.51,1.75,5.09,5.49-1.28,3.36-4.75,2.27-7.48,1.13-.55-.22-.92-.86-1.37-1.31Z" transform="translate(-966.99 -302.17)" fill="#f19286"/><path d="M1528.05,1360.35c3.37-2.7,7.2-2,10.92-1.25a3.32,3.32,0,0,1,2.72,3.49c-.15,2.36-1.68,3.25-4,2.71-.31-2.17-1.53-3.17-3.74-3.19S1529.56,1362.46,1528.05,1360.35Z" transform="translate(-966.99 -302.17)" fill="#f19286"/><path d="M1637.1,631.74c.64,5.5,1.66,11-1.46,16.21C1633.57,642.32,1631.54,636.69,1637.1,631.74Z" transform="translate(-966.99 -302.17)" fill="#f19286"/><path d="M1627.69,1072c2.83,5.33,2.11,10.78.52,16.26C1624.54,1083,1625.18,1077.54,1627.69,1072Z" transform="translate(-966.99 -302.17)" fill="#f19286"/><path d="M1394.22,776c-3.29-5.24-2-10.77-1-16.28C1398.21,764.83,1396.55,770.38,1394.22,776Z" transform="translate(-966.99 -302.17)" fill="#f19286"/><path d="M1685.71,1345.18c5.51-1,11-1.84,16.24,1.19C1696.35,1348.5,1690.79,1350,1685.71,1345.18Z" transform="translate(-966.99 -302.17)" fill="#f19286"/><path d="M1655.7,1343.25c5.52-1.07,11-1.86,16.24,1.15C1666.35,1346.52,1660.81,1347.94,1655.7,1343.25Z" transform="translate(-966.99 -302.17)" fill="#f19286"/><path d="M1623.71,1341.12c5.51-.89,11-1.81,16.24,1.23C1634.34,1344.54,1628.77,1346.26,1623.71,1341.12Z" transform="translate(-966.99 -302.17)" fill="#f19286"/><path d="M1378.05,1338.34c5.24-3,10.73-2.16,16.25-1.11C1389.18,1341.92,1383.64,1340.55,1378.05,1338.34Z" transform="translate(-966.99 -302.17)" fill="#f19286"/><path d="M1639.12,605.74c.62,5.51,1.66,11-1.46,16.22C1635.57,616.32,1633.52,610.68,1639.12,605.74Z" transform="translate(-966.99 -302.17)" fill="#f19286"/><path d="M1414.79,1037.7c.72,5.69,5.22,10.46,4,16.61-4-3.36-4.79-8.4-6.54-12.89C1411.61,1039.7,1413.1,1038.37,1414.79,1037.7Z" transform="translate(-966.99 -302.17)" fill="#f19286"/><path d="M1312,1342.3c4.58-2.8,9.41-2.12,14.26-1C1321.85,1345.87,1317,1344.77,1312,1342.3Z" transform="translate(-966.99 -302.17)" fill="#f19286"/><path d="M1518,1367.61c-.22,2.7-1.49,4.33-4.38,4.33l-10,0c-.2-1.45-.41-2.9-.61-4.34A52.15,52.15,0,0,1,1518,1367.61Z" transform="translate(-966.99 -302.17)" fill="#fffdfd"/><path d="M1635.09,657.74c.7,4.85,1.5,9.72-1.35,14.23C1631.18,666.94,1630.12,662.05,1635.09,657.74Z" transform="translate(-966.99 -302.17)" fill="#f19286"/><path d="M1278,1344.31c4.59-2.78,9.41-2.13,14.26-1C1287.85,1347.91,1283,1346.75,1278,1344.31Z" transform="translate(-966.99 -302.17)" fill="#f19286"/><path d="M1346,1340.28c4.57-2.79,9.4-2.09,14.26-1C1355.86,1343.91,1351,1342.76,1346,1340.28Z" transform="translate(-966.99 -302.17)" fill="#f19286"/><path d="M1631.05,709.73c.72,4.86,1.53,9.72-1.33,14.24C1627.18,718.94,1626.14,714.06,1631.05,709.73Z" transform="translate(-966.99 -302.17)" fill="#f19286"/><path d="M1739.23,1346.39a29.43,29.43,0,0,1-.11-14.68C1743.05,1337.45,1743.07,1340.37,1739.23,1346.39Z" transform="translate(-966.99 -302.17)" fill="#f19286"/><path d="M1563.39,1337.44a6.39,6.39,0,0,1,.58-1.56l4,.23c3.26,1,7.12-.69,10,2.21C1572.9,1341.38,1568.08,1340.49,1563.39,1337.44Z" transform="translate(-966.99 -302.17)" fill="#f19286"/><path d="M1503,1367.65c.2,1.44.41,2.89.61,4.34-.68,2.65.51,5.77-2,8C1499.45,1375.55,1497.85,1371.21,1503,1367.65Z" transform="translate(-966.99 -302.17)" fill="#f19286"/><path d="M1641.81,840.42c2.65-.65,4.32.65,5.16,3a2.76,2.76,0,0,1-1.39,3.24c-2.75,1.65-4.79.68-6.21-2A4.64,4.64,0,0,0,1641.81,840.42Z" transform="translate(-966.99 -302.17)" fill="#f19286"/><path d="M1604.09,1168c-2.65-3.93-2-8.1-.93-12.3C1607.81,1159.48,1606.69,1163.69,1604.09,1168Z" transform="translate(-966.99 -302.17)" fill="#f19286"/><path d="M1389.49,1122.32a16.16,16.16,0,0,1,2.93-12.26C1395.53,1115.12,1392.3,1118.67,1389.49,1122.32Z" transform="translate(-966.99 -302.17)" fill="#f19286"/><path d="M1529.94,1365.62c-3.25,2.6-6.72,2.13-10.25.71C1522.87,1362.58,1526.34,1363.19,1529.94,1365.62Z" transform="translate(-966.99 -302.17)" fill="#f19286"/><path d="M1433.74,960.41l-4-.88c.1-3-.57-6.26,2.31-9.64C1435,953.66,1434.22,957.07,1433.74,960.41Z" transform="translate(-966.99 -302.17)" fill="#f19286"/><path d="M1421.77,1094.37l-3.94-.4c-1.83-1.48-2.28-3.25-.58-5a3,3,0,0,1,2.64-.51C1422.78,1089.6,1422.05,1092.1,1421.77,1094.37Z" transform="translate(-966.99 -302.17)" fill="#f19286"/><path d="M1644.45,1019.57c2.29.54,3.86,1.86,2.18,4.08-2,2.57-4.42,2.52-6.57-.12Z" transform="translate(-966.99 -302.17)" fill="#f19286"/><path d="M1434.22,986q-3.36-3.94-.13-8C1437,980.61,1436.93,983.27,1434.22,986Z" transform="translate(-966.99 -302.17)" fill="#f19286"/><path d="M1439.74,1340.45c2.38.42,3.64,2,4.25,4.21-.09,1.85-1,3.26-2.87,3.17-2.51-.11-1.79-1.91-1.5-3.51A26.22,26.22,0,0,0,1439.74,1340.45Z" transform="translate(-966.99 -302.17)" fill="#f19286"/><path d="M1441.7,907.94l2.62,2.67a15.72,15.72,0,0,1-3.55,7C1439,913.68,1440.17,910.79,1441.7,907.94Z" transform="translate(-966.99 -302.17)" fill="#fffdfd"/><path d="M1646.17,1189.7c3.22.94,5.28,2.93,5.81,6.33C1648,1195.81,1645.94,1193.8,1646.17,1189.7Z" transform="translate(-966.99 -302.17)" fill="#f19286"/><path d="M1374.73,1184.25c-.55-2.37-.47-4.57,1.71-6.19C1378.94,1181,1378.44,1183.06,1374.73,1184.25Z" transform="translate(-966.99 -302.17)" fill="#f19286"/><path d="M1439.78,998c2.09,2,2.17,4,.11,6Q1436,1001.08,1439.78,998Z" transform="translate(-966.99 -302.17)" fill="#f19286"/><path d="M1439.94,1012c.21,2.39-.64,4-3.27,3.59-2.06-.33-2.4-2-2-3.81Z" transform="translate(-966.99 -302.17)" fill="#f19286"/><path d="M1417.2,1097.74c.73,2.36.71,4.55-1.44,6.24C1413.06,1101.17,1413.48,1099.07,1417.2,1097.74Z" transform="translate(-966.99 -302.17)" fill="#f19286"/><path d="M1396.87,1199.7c.9,2.34.86,4.5-1.22,6.26C1393.14,1203.3,1393.49,1201.2,1396.87,1199.7Z" transform="translate(-966.99 -302.17)" fill="#f19286"/><path d="M1390.32,670c-2.12-1.91-2.12-3.9-.24-6C1392.61,665.88,1392.71,667.87,1390.32,670Z" transform="translate(-966.99 -302.17)" fill="#f19286"/><path d="M1602,1138c-2-1.81-1.93-4-1.08-6.3C1604.61,1133.26,1605,1135.36,1602,1138Z" transform="translate(-966.99 -302.17)" fill="#f19286"/><path d="M1561.63,1344.5c-2.48-2.34-5-4.68.29-6.7C1561.82,1340,1561.73,1342.27,1561.63,1344.5Z" transform="translate(-966.99 -302.17)" fill="#f19286"/><path d="M1438.77,1359.69a3,3,0,0,1-1,4.29C1435.12,1361.86,1436.5,1360.67,1438.77,1359.69Z" transform="translate(-966.99 -302.17)" fill="#f19286"/><path d="M1381,1158.28a3.21,3.21,0,0,1,1.22-4.27C1384.86,1156.32,1383.43,1157.45,1381,1158.28Z" transform="translate(-966.99 -302.17)" fill="#f19286"/><path d="M1616.11,1097.76c-1.67.38-3.16.18-4.2-1.39C1614.62,1092.88,1615.48,1095,1616.11,1097.76Z" transform="translate(-966.99 -302.17)" fill="#f19286"/><path d="M1385.21,1140.32a3.06,3.06,0,0,1,1.13-4.28C1388.87,1138.24,1387.47,1139.39,1385.21,1140.32Z" transform="translate(-966.99 -302.17)" fill="#f19286"/><path d="M1410.81,1129.69a3.06,3.06,0,0,1-1,4.29C1407.14,1131.83,1408.47,1130.64,1410.81,1129.69Z" transform="translate(-966.99 -302.17)" fill="#f19286"/><path d="M1395,1098.3a3.19,3.19,0,0,1,1.21-4.28C1398.87,1096.31,1397.43,1097.44,1395,1098.3Z" transform="translate(-966.99 -302.17)" fill="#f19286"/><path d="M1393.19,1106.32a3.07,3.07,0,0,1,1.14-4.28C1396.85,1104.24,1395.46,1105.4,1393.19,1106.32Z" transform="translate(-966.99 -302.17)" fill="#f19286"/><path d="M1418.78,1011.68a3,3,0,0,1-1,4.29C1415.14,1013.82,1416.49,1012.64,1418.78,1011.68Z" transform="translate(-966.99 -302.17)" fill="#f19286"/><path d="M1274.52,1333.67c1.09,1.73.67,3.13-.93,4.28C1271.17,1335.93,1272.43,1334.71,1274.52,1333.67Z" transform="translate(-966.99 -302.17)" fill="#f19286"/><path d="M1416.63,1021.67c1,1.74.62,3.15-1,4.29C1413.13,1023.87,1414.49,1022.68,1416.63,1021.67Z" transform="translate(-966.99 -302.17)" fill="#f19286"/><path d="M1276.69,1323.68a2.92,2.92,0,0,1-1,4.28C1273.15,1325.85,1274.5,1324.66,1276.69,1323.68Z" transform="translate(-966.99 -302.17)" fill="#f19286"/><path d="M1414.79,1109.68a3,3,0,0,1-1,4.3C1411.14,1111.84,1412.47,1110.64,1414.79,1109.68Z" transform="translate(-966.99 -302.17)" fill="#f19286"/><path d="M1639.59,592.06c1.94,1.26,1.88,2.57.08,3.91C1637.83,594.7,1637.76,593.4,1639.59,592.06Z" transform="translate(-966.99 -302.17)" fill="#f19286"/><path d="M1666.13,1211.77A4.37,4.37,0,0,1,1670,1216C1667.21,1216,1665.9,1214.58,1666.13,1211.77Z" transform="translate(-966.99 -302.17)" fill="#f19286"/><path d="M1408.8,1139.69a3,3,0,0,1-1,4.29C1405.13,1141.84,1406.47,1140.64,1408.8,1139.69Z" transform="translate(-966.99 -302.17)" fill="#f19286"/><path d="M1420.93,1001.7a3.15,3.15,0,0,1-1.13,4.29C1417.12,1003.75,1418.53,1002.6,1420.93,1001.7Z" transform="translate(-966.99 -302.17)" fill="#f19286"/><path d="M1397.48,1088.33c-1.07-1.75-.6-3.14,1-4.26C1400.84,1086.13,1399.52,1087.32,1397.48,1088.33Z" transform="translate(-966.99 -302.17)" fill="#f19286"/><path d="M1398.86,1189.69a3.1,3.1,0,0,1-1,4.3C1395.18,1191.83,1396.48,1190.63,1398.86,1189.69Z" transform="translate(-966.99 -302.17)" fill="#f19286"/><path d="M1412.79,1119.69a3,3,0,0,1-1,4.29C1409.2,1121.86,1410.46,1120.65,1412.79,1119.69Z" transform="translate(-966.99 -302.17)" fill="#f19286"/><path d="M1400.85,1179.69a3.1,3.1,0,0,1-1,4.3C1397.15,1181.82,1398.48,1180.63,1400.85,1179.69Z" transform="translate(-966.99 -302.17)" fill="#f19286"/><path d="M1387.05,1132.3a3.17,3.17,0,0,1,1.2-4.28C1390.9,1130.31,1389.45,1131.44,1387.05,1132.3Z" transform="translate(-966.99 -302.17)" fill="#f19286"/><path d="M1399.32,1080.33c-1-1.77-.53-3.17,1.09-4.28C1402.88,1078.21,1401.45,1079.36,1399.32,1080.33Z" transform="translate(-966.99 -302.17)" fill="#f19286"/><path d="M1401.15,1072.32a4.25,4.25,0,0,1,1-4.56C1404.62,1069.91,1403.85,1071.33,1401.15,1072.32Z" transform="translate(-966.99 -302.17)" fill="#f19286"/><path d="M1383.37,1148.33c-1-1.76-.55-3.16,1.06-4.27C1386.83,1146.17,1385.49,1147.34,1383.37,1148.33Z" transform="translate(-966.99 -302.17)" fill="#f19286"/><path d="M1406.82,1149.69a3.06,3.06,0,0,1-1,4.29C1403.15,1151.84,1404.48,1150.64,1406.82,1149.69Z" transform="translate(-966.99 -302.17)" fill="#f19286"/><path d="M1402.84,1169.69a3.09,3.09,0,0,1-1,4.3C1399.14,1171.83,1400.47,1170.63,1402.84,1169.69Z" transform="translate(-966.99 -302.17)" fill="#f19286"/><path d="M1377.24,1174.32a3,3,0,0,1,1.12-4.28C1380.85,1172.22,1379.48,1173.38,1377.24,1174.32Z" transform="translate(-966.99 -302.17)" fill="#f19286"/><path d="M1419.8,1060a3.15,3.15,0,0,1,1.13,4.29C1418.55,1063.4,1417.12,1062.25,1419.8,1060Z" transform="translate(-966.99 -302.17)" fill="#f19286"/><path d="M1630.59,1167.22c2,1.07,3.24,2.56,2.82,5C1630.57,1171.62,1629.74,1169.89,1630.59,1167.22Z" transform="translate(-966.99 -302.17)" fill="#f19286"/><path d="M1404.83,1159.69a3.06,3.06,0,0,1-1,4.29C1401.15,1161.83,1402.49,1160.64,1404.83,1159.69Z" transform="translate(-966.99 -302.17)" fill="#f19286"/><path d="M1415,1029.71a4.81,4.81,0,0,1-.77,4.59C1411.37,1032.24,1411.89,1030.75,1415,1029.71Z" transform="translate(-966.99 -302.17)" fill="#f19286"/><path d="M1447.32,933.58h-4.63a7.71,7.71,0,0,1,2.21-4.88C1446.57,930,1446.73,931.88,1447.32,933.58Z" transform="translate(-966.99 -302.17)" fill="#fffdfd"/><path d="M1441,1351.89c.55,1.13-.15,1.61-1,2Z" transform="translate(-966.99 -302.17)" fill="#f19286"/><path d="M1503.89,1358l2.1,2C1504.58,1360.05,1503.85,1359.42,1503.89,1358Z" transform="translate(-966.99 -302.17)" fill="#fffdfd"/><path d="M1251.1,1861.21l-2.2-2.18a1.18,1.18,0,0,1,2,.29Z" transform="translate(-966.99 -302.17)" fill="#da6a5c"/><path d="M1505.87,1238q.11-12,.19-24c1.27.3,3,.48,3.21,1.86a53.29,53.29,0,0,1-.11,20.41C1508.88,1237.61,1507.15,1237.74,1505.87,1238Z" transform="translate(-966.99 -302.17)" fill="#fffdfd"/><path d="M1507.88,1048q.09-11,.17-22c1.69.28,3.56.9,3.63,2.72.2,5.56.21,11.14-.06,16.7C1511.54,1047.2,1509.57,1047.75,1507.88,1048Z" transform="translate(-966.99 -302.17)" fill="#fffdfd"/><path d="M1524,1178.11c-4.61.07-9.21.19-13.82.21-2.84,0-4.27-1.37-3.82-4.33,4.13,0,8.26.08,12.38,0C1521.66,1174,1523.71,1174.87,1524,1178.11Z" transform="translate(-966.99 -302.17)" fill="#fffdfd"/><path d="M1604,1332c-.4,6.49-.4,6.49-8,6C1596.57,1333.2,1600.38,1332.74,1604,1332Z" transform="translate(-966.99 -302.17)" fill="#fffdfd"/><path d="M1501.89,1410q.09-3,.2-6c1.62.28,3.35.51,3.55,2.62C1505.88,1409.31,1503.92,1409.74,1501.89,1410Z" transform="translate(-966.99 -302.17)" fill="#fffdfd"/><path d="M1568,1336.11l-4-.23c.17-1.22.34-2.79,1.68-3C1567.84,1332.67,1567.72,1334.66,1568,1336.11Z" transform="translate(-966.99 -302.17)" fill="#fffdfd"/><path d="M1687.11,1648.94c-1.52-1.45-4.08-3.22-2-5.12,1.17-1.09,3.14,1.35,4,3.14Z" transform="translate(-966.99 -302.17)" fill="#f19286"/><path d="M1682.28,1640.27c-2.27,0-2.92-1.55-3.36-3.35l-.08.07a3.43,3.43,0,0,1,3.38,3.34Z" transform="translate(-966.99 -302.17)" fill="#f19286"/><path d="M1687.11,1648.94l2-2a1.75,1.75,0,0,1,.74,1l-1.93,1.71A1.35,1.35,0,0,1,1687.11,1648.94Z" transform="translate(-966.99 -302.17)" fill="#da6a5c"/><path d="M1682.22,1640.33l1.19.87c-1.42,1-1-.3-1.13-.93Z" transform="translate(-966.99 -302.17)" fill="#f19286"/><path d="M1678.92,1636.92l-.6-.38.52.45Z" transform="translate(-966.99 -302.17)" fill="#f19286"/><path d="M1546.91,2336.56c-.17,0-.44.17-.5.11a.78.78,0,0,1-.22-.59c.16-.66.5-.73.81-.17C1547.09,2336.06,1547,2336.34,1546.91,2336.56Z" transform="translate(-966.99 -302.17)" fill="#da6a5c"/><path d="M1429.41,1147.75a635.33,635.33,0,0,1-.54,65.61c-1.09,21.22-1.45,42.48-.71,63.66.28,8.07,2.09,16.24,1.51,24.49-.16,2.29.12,4.7-1.82,6.49l-5.38.19c-2.86-29.65-2.42-59.3-1-89,1.26-25.48.74-51,1.13-76.57.06-3.52-1.1-7.35,1.66-10.49,3,2.85,1.45,6.55,1.75,9.89C1426.28,1144.51,1425.83,1147.24,1429.41,1147.75Z" transform="translate(-966.99 -302.17)" fill="#f19286"/><path d="M1429.41,1147.75c-3.58-.51-3.13-3.24-3.35-5.77-.3-3.34,1.29-7-1.75-9.89l0-24.07H1430c0,1.31,0,2.62.07,3.93-3.19,3.26-3,6.61-.26,10Z" transform="translate(-966.99 -302.17)" fill="#da6a5c"/><path d="M1426.5,1325.67l-5.62.06a12.24,12.24,0,0,1,.78-7.29l5.57-.17C1427.55,1320.79,1427.64,1323.29,1426.5,1325.67Z" transform="translate(-966.99 -302.17)" fill="#da6a5c"/><path d="M1429.81,1122c-2.77-3.42-2.93-6.77.26-10C1432.07,1115.36,1432.19,1118.7,1429.81,1122Z" transform="translate(-966.99 -302.17)" fill="#f19286"/><path d="M1427.23,1318.27l-5.57.17c-1.38-2.28-1.54-4.45.6-6.39l5.25,1.75A5.74,5.74,0,0,1,1427.23,1318.27Z" transform="translate(-966.99 -302.17)" fill="#f19286"/><path d="M1427.51,1313.8l-5.25-1.75.21-3.86,5.38-.19Q1427.67,1310.9,1427.51,1313.8Z" transform="translate(-966.99 -302.17)" fill="#da6a5c"/><path d="M1430,1108h-5.72a3.15,3.15,0,0,1-.79-4.36l5.71.08A6,6,0,0,1,1430,1108Z" transform="translate(-966.99 -302.17)" fill="#f19286"/><path d="M1429.2,1103.74l-5.71-.08c-.9-2-1.09-4.13,1.35-4.65C1428.37,1098.26,1429,1101,1429.2,1103.74Z" transform="translate(-966.99 -302.17)" fill="#da6a5c"/><path d="M1508.7,978.12c-3.32,0-6.65,0-10,0-4.13,0-4.79-2.61-4.8-6,0-3.82,2.48-4.19,5.34-4.16q9.48.11,19,.26c3.63,0,5.44,1.84,5.49,5.55.07,4.37-2.83,4.61-6,4.59h-9Z" transform="translate(-966.99 -302.17)" fill="#fffdfd"/></svg>