<svg xmlns="http://www.w3.org/2000/svg" viewBox="0 0 809.67 51.21"><path d="M155.92,224.15a16.81,16.81,0,0,1-.71,5.12,14.54,14.54,0,0,1-1.91,4,13.77,13.77,0,0,1-2.79,2.95,16.48,16.48,0,0,1-3.3,2,16,16,0,0,1-3.48,1.15,17.35,17.35,0,0,1-3.31.35l17.5,15.12H145L127.5,239.71h-6v-8.38h18.95a9.41,9.41,0,0,0,2.89-.66,7,7,0,0,0,2.25-1.43,6,6,0,0,0,1.47-2.18,7.79,7.79,0,0,0,.51-2.91v-5.29a2.76,2.76,0,0,0-.17-1.08,1.39,1.39,0,0,0-.45-.55,1.63,1.63,0,0,0-.58-.21l-.57,0H118.12v37.84h-8.38v-42a4.32,4.32,0,0,1,.32-1.64,4.47,4.47,0,0,1,.89-1.35,3.86,3.86,0,0,1,1.34-.9,4.18,4.18,0,0,1,1.67-.33h31.81a10.07,10.07,0,0,1,4.74,1,9.6,9.6,0,0,1,3.14,2.54,9.77,9.77,0,0,1,1.74,3.31,11.39,11.39,0,0,1,.53,3.32Z" transform="translate(-109.24 -204.76)" fill="#decdbe" stroke="#DD4124"/><path d="M173.89,212.83h-8.38v-7.57h8.38Zm0,42h-8.38V220h8.38Z" transform="translate(-109.24 -204.76)" fill="#decdbe" stroke="#DD4124"/><path d="M217.57,243.06A12.69,12.69,0,0,1,217,247a11.2,11.2,0,0,1-1.45,3,9.85,9.85,0,0,1-2.09,2.22,12.65,12.65,0,0,1-2.5,1.5,13.24,13.24,0,0,1-5.17,1.13H183.12v-8.38h22.62a3.5,3.5,0,0,0,2.58-.87,3.41,3.41,0,0,0,.87-2.52q-.16-3.34-3.38-3.35h-13a10.52,10.52,0,0,1-4.71-1,9.82,9.82,0,0,1-3.14-2.42,9.43,9.43,0,0,1-1.74-3.13,10.47,10.47,0,0,1-.53-3.12,10.12,10.12,0,0,1,1-4.73,9.34,9.34,0,0,1,2.51-3.1,9.92,9.92,0,0,1,3.29-1.73,11.74,11.74,0,0,1,3.32-.53h20.59v8.38H192.88a3,3,0,0,0-1,.14,1.24,1.24,0,0,0-.55.39,1,1,0,0,0-.21.52,4.84,4.84,0,0,0,0,.53,1.84,1.84,0,0,0,.19.8,1,1,0,0,0,.4.42,1.29,1.29,0,0,0,.55.15h13.59a11.88,11.88,0,0,1,5.47,1.16,11,11,0,0,1,3.65,2.92,11.6,11.6,0,0,1,2,3.82A13.13,13.13,0,0,1,217.57,243.06Z" transform="translate(-109.24 -204.76)" fill="#decdbe" stroke="#DD4124"/><path d="M262.89,231.53a12.85,12.85,0,0,1-.61,3.75,11.34,11.34,0,0,1-2,3.74,11,11,0,0,1-3.58,2.88,11.32,11.32,0,0,1-5.36,1.16H236.24v-8h15.12a3.37,3.37,0,0,0,2.64-1,3.79,3.79,0,0,0,.93-2.6,3.32,3.32,0,0,0-1-2.58,3.7,3.7,0,0,0-2.53-.93H236.24A3.34,3.34,0,0,0,233.6,229a3.74,3.74,0,0,0-.93,2.59v11.7a3.3,3.3,0,0,0,1,2.61,3.79,3.79,0,0,0,2.6.93h15.05v8H236.24a12.88,12.88,0,0,1-3.75-.62,10.93,10.93,0,0,1-6.62-5.56,11.29,11.29,0,0,1-1.16-5.36V231.53a12.91,12.91,0,0,1,.61-3.76,11.34,11.34,0,0,1,2-3.74,10.88,10.88,0,0,1,3.58-2.88,11.44,11.44,0,0,1,5.36-1.16h15.12a12.85,12.85,0,0,1,3.75.61,11.34,11.34,0,0,1,3.74,2,11.09,11.09,0,0,1,2.88,3.58A11.33,11.33,0,0,1,262.89,231.53Z" transform="translate(-109.24 -204.76)" fill="#decdbe" stroke="#DD4124"/><path d="M340.23,254.83h-8.38V243.48H302.4v11.35H294V231.72a24.34,24.34,0,0,1,1.74-9.31,21.73,21.73,0,0,1,4.83-7.32,22.19,22.19,0,0,1,7.32-4.77,24.32,24.32,0,0,1,9.22-1.71H336a4.19,4.19,0,0,1,1.65.33,4.1,4.1,0,0,1,1.35.9,4,4,0,0,1,.9,1.35,4.13,4.13,0,0,1,.32,1.64ZM302.4,235.1h29.45V217H317.13c-.26,0-.8,0-1.63.11a17.21,17.21,0,0,0-2.87.57,18.08,18.08,0,0,0-3.43,1.38,12.37,12.37,0,0,0-3.32,2.58,13.39,13.39,0,0,0-2.5,4.11,16.31,16.31,0,0,0-1,6Z" transform="translate(-109.24 -204.76)" fill="#decdbe" stroke="#DD4124"/><path d="M389.43,243.06a12.62,12.62,0,0,1-.28,2.52,13.12,13.12,0,0,1-.85,2.62,12.37,12.37,0,0,1-1.5,2.5,9.93,9.93,0,0,1-2.22,2.11,11.31,11.31,0,0,1-3,1.47,12.82,12.82,0,0,1-3.87.55H362.58a12.61,12.61,0,0,1-2.51-.28,13.2,13.2,0,0,1-2.63-.85,12.65,12.65,0,0,1-2.5-1.5,10.16,10.16,0,0,1-2.11-2.22,10.93,10.93,0,0,1-1.46-3,12.69,12.69,0,0,1-.55-3.89v-37.8h8.38v37.8a3.26,3.26,0,0,0,1,2.47,3.39,3.39,0,0,0,2.42.92h15.11a3.21,3.21,0,0,0,2.47-.94,3.42,3.42,0,0,0,.89-2.45V231.72a3.28,3.28,0,0,0-.94-2.47,3.37,3.37,0,0,0-2.42-.88H362.58V220h15.11a12.58,12.58,0,0,1,2.52.27,13.16,13.16,0,0,1,2.62.86,11.28,11.28,0,0,1,2.5,1.5,9.67,9.67,0,0,1,2.1,2.22,11.52,11.52,0,0,1,1.45,3,12.82,12.82,0,0,1,.55,3.87Z" transform="translate(-109.24 -204.76)" fill="#decdbe" stroke="#DD4124"/><path d="M436.46,243.06a12.69,12.69,0,0,1-.55,3.89,11.5,11.5,0,0,1-1.45,3,9.85,9.85,0,0,1-2.09,2.22,12.65,12.65,0,0,1-2.5,1.5,13.24,13.24,0,0,1-5.17,1.13H409.58a13.36,13.36,0,0,1-3.8-.62,11.06,11.06,0,0,1-3.82-2,11.23,11.23,0,0,1-2.93-3.64,11.68,11.68,0,0,1-1.18-5.5V231.72a11.54,11.54,0,0,1,1.18-5.46,11.14,11.14,0,0,1,6.75-5.66,13.32,13.32,0,0,1,3.8-.61H424.7a11.88,11.88,0,0,1,5.47,1.16,10.91,10.91,0,0,1,3.65,2.92,11.65,11.65,0,0,1,2,3.81,13.25,13.25,0,0,1,.63,3.84Zm-8.38-11.28a3.41,3.41,0,0,0-.87-2.57,3.48,3.48,0,0,0-2.51-.84H409.65a3.49,3.49,0,0,0-2.55.85,3.35,3.35,0,0,0-.87,2.5v11.34a3.41,3.41,0,0,0,.87,2.52,3.46,3.46,0,0,0,2.55.87H424.7a3.38,3.38,0,0,0,2.54-.87,3.49,3.49,0,0,0,.84-2.52Z" transform="translate(-109.24 -204.76)" fill="#decdbe" stroke="#DD4124"/><path d="M487.13,220a85.87,85.87,0,0,1-3.32,8.7,63.11,63.11,0,0,1-4.36,8.17,51.44,51.44,0,0,1-5.51,7.19,35.44,35.44,0,0,1-6.74,5.7,32.74,32.74,0,0,1-8,3.77,31.18,31.18,0,0,1-9.4,1.37,4.28,4.28,0,0,1-1.64-.32,4.33,4.33,0,0,1-1.36-.89,4.07,4.07,0,0,1-.9-1.32,4.19,4.19,0,0,1-.32-1.63V220h8.38v26.2a13.71,13.71,0,0,0,5.88-1.32,23,23,0,0,0,5.33-3.5,33.85,33.85,0,0,0,4.66-5,50,50,0,0,0,3.82-5.68,50.69,50.69,0,0,0,2.85-5.72,37.91,37.91,0,0,0,1.76-5Z" transform="translate(-109.24 -204.76)" fill="#decdbe" stroke="#DD4124"/><path d="M529.59,231.53a13.19,13.19,0,0,1-.61,3.75,11.19,11.19,0,0,1-2,3.74,10.94,10.94,0,0,1-3.57,2.88,11.36,11.36,0,0,1-5.37,1.16H502.94v-8h15.11a3.37,3.37,0,0,0,2.64-1,3.75,3.75,0,0,0,.94-2.6,3.3,3.3,0,0,0-1-2.58,3.68,3.68,0,0,0-2.53-.93H502.94a3.38,3.38,0,0,0-2.65,1.05,3.74,3.74,0,0,0-.93,2.59v11.7a3.3,3.3,0,0,0,1.05,2.61,3.76,3.76,0,0,0,2.59.93h15v8H502.94a13,13,0,0,1-3.76-.62,10.93,10.93,0,0,1-6.62-5.56,11.41,11.41,0,0,1-1.16-5.36V231.53a12.91,12.91,0,0,1,.61-3.76,11.34,11.34,0,0,1,2-3.74,11.09,11.09,0,0,1,3.58-2.88,11.46,11.46,0,0,1,5.37-1.16h15.11a13,13,0,0,1,3.76.61,11.3,11.3,0,0,1,3.73,2,11.12,11.12,0,0,1,2.89,3.58A11.46,11.46,0,0,1,529.59,231.53Z" transform="translate(-109.24 -204.76)" fill="#decdbe" stroke="#DD4124"/><path d="M591.81,228.37H577.18v26.46h-8.47V228.37H557.82V220h10.89V208.61h8.47V220h14.63Z" transform="translate(-109.24 -204.76)" fill="#decdbe" stroke="#DD4124"/><path d="M607.81,254.83h-8.38V205.26h8.38Zm30.23,0h-8.38V231.72a3.42,3.42,0,0,0-.84-2.5,3.34,3.34,0,0,0-2.51-.85H611.2V220h15.11a12.49,12.49,0,0,1,2.51.27,13,13,0,0,1,2.63.86,11.76,11.76,0,0,1,2.5,1.5,9.85,9.85,0,0,1,2.09,2.22,11.21,11.21,0,0,1,1.45,3,12.52,12.52,0,0,1,.55,3.87Z" transform="translate(-109.24 -204.76)" fill="#decdbe" stroke="#DD4124"/><path d="M685.17,231.53a12.85,12.85,0,0,1-.61,3.75,11.34,11.34,0,0,1-2,3.74A11.09,11.09,0,0,1,679,241.9a11.33,11.33,0,0,1-5.37,1.16H658.52v-8h15.11a3.41,3.41,0,0,0,2.65-1,3.79,3.79,0,0,0,.93-2.6,3.3,3.3,0,0,0-1.05-2.58,3.68,3.68,0,0,0-2.53-.93H658.52a3.34,3.34,0,0,0-2.64,1.05,3.7,3.7,0,0,0-.94,2.59v11.7a3.3,3.3,0,0,0,1,2.61,3.76,3.76,0,0,0,2.59.93h15v8H658.52a12.88,12.88,0,0,1-3.75-.62,10.89,10.89,0,0,1-3.74-2,11,11,0,0,1-2.89-3.58,11.41,11.41,0,0,1-1.16-5.36V231.53a13.25,13.25,0,0,1,.61-3.76,11.19,11.19,0,0,1,2-3.74,10.94,10.94,0,0,1,3.57-2.88,11.46,11.46,0,0,1,5.37-1.16h15.11a13,13,0,0,1,3.76.61,11.34,11.34,0,0,1,3.74,2,11.09,11.09,0,0,1,2.88,3.58A11.46,11.46,0,0,1,685.17,231.53Z" transform="translate(-109.24 -204.76)" fill="#decdbe" stroke="#DD4124"/><path d="M763.35,251.25a4,4,0,0,1-.34,1.67,4.38,4.38,0,0,1-.9,1.34,4.13,4.13,0,0,1-1.34.89,4.32,4.32,0,0,1-1.64.32,4.62,4.62,0,0,1-1.57-.29,3.66,3.66,0,0,1-1.4-.93l-30.61-32v32.55h-8.38V212.19a4,4,0,0,1,.72-2.34,4.53,4.53,0,0,1,1.86-1.56,4.28,4.28,0,0,1,2.45-.24,3.93,3.93,0,0,1,2.15,1.18L755,241.16V208.61h8.38Z" transform="translate(-109.24 -204.76)" fill="#decdbe" stroke="#DD4124"/><path d="M811.8,243.06a12.69,12.69,0,0,1-.55,3.89,11.2,11.2,0,0,1-1.45,3,9.85,9.85,0,0,1-2.09,2.22,12.65,12.65,0,0,1-2.5,1.5,13.24,13.24,0,0,1-5.17,1.13H784.92a13.36,13.36,0,0,1-3.8-.62,11.06,11.06,0,0,1-3.82-2,11.23,11.23,0,0,1-2.93-3.64,11.68,11.68,0,0,1-1.18-5.5V231.72a11.54,11.54,0,0,1,1.18-5.46,11.14,11.14,0,0,1,6.75-5.66,13.32,13.32,0,0,1,3.8-.61H800a11.88,11.88,0,0,1,5.47,1.16,10.91,10.91,0,0,1,3.65,2.92,11.65,11.65,0,0,1,2,3.81,13.25,13.25,0,0,1,.63,3.84Zm-8.38-11.28a3.41,3.41,0,0,0-.87-2.57,3.48,3.48,0,0,0-2.51-.84H785a3.49,3.49,0,0,0-2.55.85,3.35,3.35,0,0,0-.87,2.5v11.34a3.41,3.41,0,0,0,.87,2.52,3.46,3.46,0,0,0,2.55.87h15a3.38,3.38,0,0,0,2.54-.87,3.49,3.49,0,0,0,.84-2.52Z" transform="translate(-109.24 -204.76)" fill="#decdbe" stroke="#DD4124"/><path d="M829.41,212.83H821v-7.57h8.38Zm0,42H821V220h8.38Z" transform="translate(-109.24 -204.76)" fill="#decdbe" stroke="#DD4124"/><path d="M873.09,243.06a12.69,12.69,0,0,1-.55,3.89,11.2,11.2,0,0,1-1.45,3A9.85,9.85,0,0,1,869,252.2a12.65,12.65,0,0,1-2.5,1.5,13.24,13.24,0,0,1-5.17,1.13H838.64v-8.38h22.62a3.5,3.5,0,0,0,2.58-.87,3.41,3.41,0,0,0,.87-2.52c-.11-2.23-1.23-3.35-3.38-3.35h-13a10.52,10.52,0,0,1-4.71-1,9.93,9.93,0,0,1-3.14-2.42,9.43,9.43,0,0,1-1.74-3.13,10.47,10.47,0,0,1-.53-3.12,10.12,10.12,0,0,1,1-4.73,9.46,9.46,0,0,1,2.51-3.1,9.92,9.92,0,0,1,3.29-1.73,11.74,11.74,0,0,1,3.32-.53h20.59v8.38H848.4a3,3,0,0,0-1,.14,1.24,1.24,0,0,0-.55.39,1,1,0,0,0-.21.52,4.84,4.84,0,0,0,0,.53,2,2,0,0,0,.19.8.93.93,0,0,0,.41.42,1.21,1.21,0,0,0,.54.15h13.59a11.93,11.93,0,0,1,5.48,1.16,11.1,11.1,0,0,1,3.64,2.92,11.6,11.6,0,0,1,2,3.82A13.13,13.13,0,0,1,873.09,243.06Z" transform="translate(-109.24 -204.76)" fill="#decdbe" stroke="#DD4124"/><path d="M918.42,231.53a12.88,12.88,0,0,1-.62,3.75,11.34,11.34,0,0,1-2,3.74,11,11,0,0,1-3.58,2.88,11.32,11.32,0,0,1-5.36,1.16H891.76v-8h15.12a3.37,3.37,0,0,0,2.64-1,3.79,3.79,0,0,0,.94-2.6,3.3,3.3,0,0,0-1.05-2.58,3.68,3.68,0,0,0-2.53-.93H891.76a3.34,3.34,0,0,0-2.64,1.05,3.74,3.74,0,0,0-.93,2.59v11.7a3.33,3.33,0,0,0,1,2.61,3.79,3.79,0,0,0,2.6.93h15v8H891.76a12.88,12.88,0,0,1-3.75-.62,10.93,10.93,0,0,1-6.62-5.56,11.29,11.29,0,0,1-1.16-5.36V231.53a12.91,12.91,0,0,1,.61-3.76,11.34,11.34,0,0,1,2-3.74,11,11,0,0,1,3.58-2.88,11.44,11.44,0,0,1,5.36-1.16h15.12a12.85,12.85,0,0,1,3.75.61,11.34,11.34,0,0,1,3.74,2,11.09,11.09,0,0,1,2.88,3.58A11.33,11.33,0,0,1,918.42,231.53Z" transform="translate(-109.24 -204.76)" fill="#decdbe" stroke="#DD4124"/></svg>