<svg xmlns="http://www.w3.org/2000/svg" viewBox="0 0 702 447"><circle cx="3.5" cy="70.5" r="3" fill="#fff" stroke="#dce2df"/><circle cx="128.5" cy="183.5" r="3" fill="#fff" stroke="#dce2df"/><circle cx="578.5" cy="203.5" r="3" fill="#fff" stroke="#dce2df"/><circle cx="698.5" cy="253.5" r="3" fill="#fff" stroke="#dce2df"/><circle cx="378.5" cy="443.5" r="3" fill="#fff" stroke="#dce2df"/><circle cx="518.5" cy="123.5" r="3" fill="#fff" stroke="#dce2df"/><circle cx="198.5" cy="343.5" r="3" fill="#fff" stroke="#dce2df"/><circle cx="668.5" cy="173.5" r="3" fill="#fff" stroke="#dce2df"/><circle cx="98.5" cy="283.5" r="3" fill="#fff" stroke="#dce2df"/><circle cx="78.5" cy="123.5" r="3" fill="#fff" stroke="#dce2df"/><circle cx="408.5" cy="243.5" r="3" fill="#fff" stroke="#dce2df"/><circle cx="628.5" cy="293.5" r="3" fill="#fff" stroke="#dce2df"/><circle cx="242.5" cy="263.5" r="3" fill="#fff" stroke="#dce2df"/><circle cx="428.5" cy="393.5" r="3" fill="#fff" stroke="#dce2df"/><circle cx="448.5" cy="3.5" r="3" fill="#fff" stroke="#dce2df"/><circle cx="375.36" cy="267.09" r="1.64" fill="#fff" stroke="#dce2df"/><circle cx="344.03" cy="136.37" r="1.63" fill="#fff" stroke="#dce2df"/><circle cx="343.7" cy="276.03" r="1.3" fill="#fff" stroke="#dce2df"/><circle cx="450.98" cy="320.55" r="1.64" fill="#fff" stroke="#dce2df"/><circle cx="526.15" cy="209.09" r="1.63" fill="#fff" stroke="#dce2df"/><circle cx="422.99" cy="303.26" r="1.3" fill="#fff" stroke="#dce2df"/><circle cx="132.54" cy="102.49" r="1.64" fill="#fff" stroke="#dce2df"/><circle cx="266.73" cy="94.47" r="1.63" fill="#fff" stroke="#dce2df"/><circle cx="129.27" cy="69.76" r="1.3" fill="#fff" stroke="#dce2df"/></svg>