<svg xmlns="http://www.w3.org/2000/svg" viewBox="0 0 775.3 470.68"><circle cx="17.86" cy="70.5" r="3" fill="aqua" stroke="#dce2df"/><circle cx="142.86" cy="183.5" r="3" fill="aqua" stroke="#dce2df"/><circle cx="592.86" cy="203.5" r="3" fill="aqua" stroke="#dce2df"/><circle cx="712.86" cy="253.5" r="3" fill="aqua" stroke="#dce2df"/><circle cx="392.86" cy="443.5" r="3" fill="aqua" stroke="#dce2df"/><circle cx="532.86" cy="123.5" r="3" fill="aqua" stroke="#dce2df"/><circle cx="212.86" cy="343.5" r="3" fill="aqua" stroke="#dce2df"/><circle cx="682.86" cy="173.5" r="3" fill="aqua" stroke="#dce2df"/><circle cx="112.86" cy="283.5" r="3" fill="aqua" stroke="#dce2df"/><circle cx="92.86" cy="123.5" r="3" fill="aqua" stroke="#dce2df"/><circle cx="422.86" cy="243.5" r="3" fill="aqua" stroke="#dce2df"/><circle cx="642.86" cy="293.5" r="3" fill="aqua" stroke="#dce2df"/><circle cx="256.86" cy="263.5" r="3" fill="aqua" stroke="#dce2df"/><circle cx="442.86" cy="393.5" r="3" fill="aqua" stroke="#dce2df"/><circle cx="462.86" cy="3.5" r="3" fill="aqua" stroke="#dce2df"/><circle cx="389.73" cy="267.09" r="1.64" fill="aqua" stroke="#dce2df"/><circle cx="358.39" cy="136.37" r="1.63" fill="aqua" stroke="#dce2df"/><circle cx="358.06" cy="276.03" r="1.3" fill="aqua" stroke="#dce2df"/><circle cx="465.35" cy="320.55" r="1.64" fill="aqua" stroke="#dce2df"/><circle cx="540.51" cy="209.09" r="1.63" fill="aqua" stroke="#dce2df"/><circle cx="399.36" cy="303.26" r="1.3" fill="aqua" stroke="#dce2df"/><circle cx="146.9" cy="102.49" r="1.64" fill="aqua" stroke="#dce2df"/><circle cx="281.09" cy="94.47" r="1.63" fill="aqua" stroke="#dce2df"/><circle cx="143.63" cy="69.76" r="1.3" fill="aqua" stroke="#dce2df"/><circle cx="361.8" cy="198.88" r="1.3" fill="aqua" stroke="#dce2df"/><circle cx="1.8" cy="308.88" r="1.3" fill="aqua" stroke="#dce2df"/><circle cx="301.8" cy="408.88" r="1.3" fill="aqua" stroke="#dce2df"/><circle cx="511.8" cy="288.88" r="1.3" fill="aqua" stroke="#dce2df"/><circle cx="721.8" cy="48.88" r="1.3" fill="aqua" stroke="#dce2df"/><circle cx="591.8" cy="348.88" r="1.3" fill="aqua" stroke="#dce2df"/><circle cx="121.8" cy="378.88" r="1.3" fill="aqua" stroke="#dce2df"/><circle cx="431.8" cy="88.88" r="3" fill="aqua" stroke="#dce2df"/><circle cx="771.8" cy="418.88" r="3" fill="aqua" stroke="#dce2df"/><circle cx="561.8" cy="408.88" r="3" fill="aqua" stroke="#dce2df"/><circle cx="161.8" cy="428.88" r="1.3" fill="aqua" stroke="#dce2df"/><circle cx="341.8" cy="248.88" r="1.3" fill="aqua" stroke="#dce2df"/><circle cx="631.8" cy="468.88" r="1.3" fill="aqua" stroke="#dce2df"/><circle cx="331.8" cy="18.88" r="1.3" fill="aqua" stroke="#dce2df"/><circle cx="391.8" cy="248.88" r="1.3" fill="aqua" stroke="#dce2df"/><circle cx="771.8" cy="248.88" r="1.3" fill="aqua" stroke="#dce2df"/><circle cx="681.8" cy="348.88" r="1.3" fill="aqua" stroke="#dce2df"/></svg>