<svg xmlns="http://www.w3.org/2000/svg" viewBox="0 0 202 451.58"><path d="M439,356q.5-98,1-196l15-47h6l12,45q-.51,143,0,143t2.5-189.5c3-46.18,21.71-77.12,36-77,14,.12,31.59,30.32,35,74l.27,47.57c0,1.44,0,4.34,0,4.34l0,3.85.69,122.24V300" transform="translate(-410 -34)" fill="#fff" stroke="#000"/><polyline points="171.17 322 171.17 124.46 157.5 80.5 153.29 80.5 136.79 126.41 137.5 266 143.5 291.5" fill="#fff" stroke="#000"/><line x1="112.7" y1="161.25" x2="89.99" y2="161.25" fill="#fff" stroke="#000"/><path d="M607.5,411.5h-64c-.33-3-.67-6-1-9h63C606.17,405.5,606.83,408.5,607.5,411.5Z" transform="translate(-410 -34)" fill="#fff" stroke="#000"/><path d="M605.5,394.5c-.33-2.33-.67-4.67-1-7l-52-49-9-34h-65q-4,16-8,32l-55,54-.47,9.9h0l0,.59c0,.26-.49,10.25-.5,10.51l56,1v-11c-15.33-.33-39.67-.67-55-1" transform="translate(-410 -34)" fill="#fff" stroke="#000"/><polygon points="106.5 363.5 129.13 363.5 123.5 360.5 112.7 360.5 106.5 363.5" fill="#fff" stroke="#000"/><polyline points="106.5 350.5 110.5 451.5 99.5 386.5" fill="#fff" stroke="#000"/><polyline points="29 386.85 29 423.09 21.5 436.5 66.31 436.5 59.5 425.5 59.06 386.59" fill="#fff" stroke="#000"/><path d="M477,420.5l71,.18,63.51.17V386.5l-58-61-12-51-5-46-7-33.25-5-19.75-5-4-7-2.41-8,2.41-11.25,26.1-7.75,31.9-6,48-14,52-55,57v36l65.81-1.65" transform="translate(-410 -34)" fill="#fff" stroke="#000"/><path d="M581.5,427" transform="translate(-410 -34)" fill="#fff" stroke="#000"/><line x1="102" y1="198.88" x2="101" y2="346.74" fill="#fff" stroke="#000"/><line x1="129.5" y1="66.5" x2="129.77" y2="224.63" fill="#fff" stroke="#000"/><line x1="165" y1="122.04" x2="165" y2="314.11" fill="#fff" stroke="#000"/><line x1="57.13" y1="122.04" x2="57.13" y2="289.44" fill="#fff" stroke="#000"/><polygon points="130.9 436.5 174.72 436.5 171.17 421 171.17 386.77 137.99 386.69 137.5 421.32 130.9 436.5" fill="#fff" stroke="#000"/><line x1="79.84" y1="218.08" x2="122.37" y2="218.08" fill="#fff" stroke="#000"/><line x1="79.84" y1="249.13" x2="122.37" y2="249.13" fill="#fff" stroke="#000"/><line x1="5.5" y1="356.5" x2="60.03" y2="296.97" fill="#fff" stroke="#000"/><path d="M550.51,331" transform="translate(-410 -34)" fill="#fff" stroke="#000"/></svg>