<?xml version="1.0" encoding="utf-8"?>
<!-- Generator: Adobe Illustrator 25.2.1, SVG Export Plug-In . SVG Version: 6.00 Build 0)  -->
<svg version="1.1" xmlns="http://www.w3.org/2000/svg" xmlns:xlink="http://www.w3.org/1999/xlink" x="0px" y="0px"
	 viewBox="0 0 1025 512" style="enable-background:new 0 0 1025 512;" xml:space="preserve">
<style type="text/css">
	.st0{fill:#0F4C81;}
	.st1{fill:#438ABF;stroke:#0F4C81;stroke-width:4;stroke-miterlimit:10;}
</style>
<g id="banner">
	<g>
		<path class="st0" d="M148.8,447.5c0.7-0.5,1.3-0.7,2-0.7s1.3,0.3,1.9,0.9c0.6,0.6,0.8,1.3,0.8,2c0,3.2-2,6.5-6.1,9.8
			c-4.1,3.3-8.8,5-14.1,5c-7.4,0-13.6-2.8-18.6-8.3c-4.9-5.5-7.4-13.4-7.4-23.7c0-10.3,2.5-18.2,7.5-24c5-5.7,10.9-8.6,17.6-8.6
			c3.5,0,6.6,0.7,9.3,2.2c2.6,1.4,4,3.6,4,6.5c0,1-0.3,2-0.9,2.7c-0.6,0.8-1.6,1.2-3,1.2s-2.7-0.6-3.9-1.8c-1.2-1.2-1.8-2.4-1.8-3.7
			c0-0.3,0.2-0.8,0.5-1.7c-1-0.5-2.5-0.7-4.5-0.7c-5,0-9.4,2.6-13.2,7.7c-3.8,5.2-5.7,11.6-5.7,19.2c0,4.4,0.8,8.7,2.3,12.8
			c1.5,4.2,3.8,7.7,6.9,10.7c3.1,2.9,6.5,4.4,10.1,4.4c3.7,0,6.9-1,9.6-3c2.7-2,4.6-4.5,5.5-7.4C147.8,448.6,148.2,448,148.8,447.5z
			"/>
		<path class="st0" d="M187.9,421.6h-2.3c-0.7,0-1.3-0.3-1.8-0.8c-0.5-0.5-0.7-1.1-0.7-1.8c0-0.7,0.2-1.2,0.7-1.8
			c0.5-0.5,1.1-0.8,1.8-0.8h9.9c1.6,0,2.4,0.8,2.4,2.5c0,1.7-0.8,2.5-2.4,2.5h-2.2v36.8h3.6c1.5,0,2.3,0.9,2.3,2.5
			c0,0.8-0.2,1.4-0.7,1.9c-0.5,0.5-1,0.7-1.6,0.7h-7c-0.8,0-1.3-0.1-1.6-0.4c-0.3-0.3-0.4-0.8-0.4-1.6v-6.4
			c-3.7,6.1-8.6,9.1-14.7,9.1c-4.8,0-8.3-1.6-10.6-4.9c-2.3-3.2-3.4-7-3.4-11.2v-26.6h-2.2c-0.7,0-1.3-0.3-1.7-0.8
			c-0.4-0.5-0.6-1.1-0.6-1.8c0-0.7,0.2-1.2,0.6-1.8c0.4-0.5,0.9-0.8,1.7-0.8h10c0.7,0,1.3,0.3,1.8,0.8c0.5,0.5,0.7,1.1,0.7,1.8
			c0,0.7-0.2,1.2-0.7,1.8c-0.5,0.5-1,0.8-1.8,0.8h-2.4v26.7c0,2.9,0.8,5.5,2.3,7.8c1.5,2.4,3.9,3.5,7.3,3.5c3.4,0,6.5-1.7,9.3-5.1
			c2.8-3.4,4.3-7.7,4.3-12.9V421.6z"/>
		<path class="st0" d="M221.9,455.1c0.5-0.5,1.2-0.8,2.1-0.8c0.8,0,1.5,0.2,2.1,0.7c0.5,0.5,0.8,1.2,0.8,2c0,1.9-0.8,3.6-2.5,5.1
			c-1.7,1.5-3.7,2.3-6.2,2.3c-2.5,0-4.5-0.9-6.2-2.6c-1.6-1.7-2.4-3.9-2.4-6.4v-33.9h-4.2c-0.7,0-1.3-0.3-1.8-0.8
			c-0.5-0.5-0.7-1.1-0.7-1.8c0-0.7,0.2-1.2,0.7-1.8c0.5-0.5,1.1-0.8,1.8-0.8h2.4c1,0,1.7-0.1,2-0.4c0.3-0.3,0.4-0.9,0.4-1.8v-5.3
			c0-2.5,1.3-3.8,3.9-3.8c0.8,0,1.2,0.4,1.2,1.2v10.2h4.3c1.8,0,2.6,0.9,2.6,2.6c0,0.7-0.2,1.2-0.7,1.7c-0.5,0.5-1.1,0.7-2,0.7h-4.3
			v33.8c0,3.1,1,4.6,3,4.6c2,0,3-0.9,3-2.8C221.2,456.3,221.4,455.6,221.9,455.1z"/>
		<path class="st0" d="M259.7,397.5c0.5,0.5,0.8,1,0.8,1.5s-0.2,1.2-0.7,2h31.5l0.3-0.9c0.6-1.8,1.6-2.7,2.9-2.7
			c0.7,0,1.4,0.2,1.9,0.7c0.6,0.5,0.8,1.1,0.8,1.7c0,0.7-0.2,1.3-0.5,2l-3.6,6.8c-0.6,1.1-1.2,1.7-1.9,1.7c-1.4,0-2.1-0.6-2.1-1.9
			c0-0.4,0.1-0.7,0.2-1l0.5-1.7h-13.3v52.7h2.5c1.6,0,2.4,0.9,2.4,2.5c0,1.7-0.8,2.5-2.4,2.5h-10.6c-1.6,0-2.4-0.8-2.4-2.5
			c0-1.7,0.8-2.5,2.4-2.5h2.4v-52.7h-13.2l-1.6,2.5c-0.5,0.8-1.1,1.2-1.8,1.2c-0.7,0-1.2-0.2-1.5-0.5c-0.4-0.4-0.5-0.8-0.5-1.3
			s0.1-1,0.3-1.4l2.4-7c0.5-1.6,1.4-2.4,2.7-2.4C258.5,396.8,259.1,397,259.7,397.5z"/>
		<path class="st0" d="M307.4,406.1h-3.8c-1.4,0-2.2-0.8-2.2-2.5s0.7-2.5,2.2-2.5h7.2c0.8,0,1.4,0.1,1.7,0.4s0.4,0.9,0.4,1.7v22
			c1.2-2.4,3.1-4.5,5.7-6.4c2.6-1.9,5.8-2.8,9.6-2.8c3.8,0,6.6,1.5,8.7,4.4c2,2.9,3,6.3,3,10.1v28h2.8c0.7,0,1.3,0.3,1.7,0.8
			c0.4,0.5,0.6,1.1,0.6,1.8c0,0.7-0.2,1.2-0.6,1.8c-0.4,0.5-0.9,0.8-1.7,0.8h-10.8c-1.7,0-2.5-0.8-2.5-2.5c0-1.7,0.8-2.5,2.5-2.5
			h2.4v-28.3c0-2.4-0.6-4.5-1.7-6.6c-1.1-2-3-3-5.7-3c-3.6,0-6.8,1.9-9.8,5.6c-2.9,3.7-4.4,7.6-4.4,11.8v20.6h2.8
			c0.7,0,1.3,0.3,1.8,0.8c0.5,0.5,0.7,1.1,0.7,1.8c0,0.7-0.2,1.2-0.7,1.8c-0.5,0.5-1,0.8-1.8,0.8h-11.4c-1.6,0-2.4-0.8-2.4-2.5
			c0-1.7,0.8-2.5,2.4-2.5h3V406.1z"/>
		<path class="st0" d="M359.4,420.9v37.5h1.9c0.8,0,1.4,0.2,1.8,0.7c0.4,0.5,0.6,1.1,0.6,1.8c0,1.7-0.8,2.5-2.5,2.5H352
			c-1.7,0-2.5-0.8-2.5-2.5c0-1.7,0.8-2.5,2.5-2.5h2v-36.8h-2c-0.9,0-1.5-0.3-2-0.8c-0.5-0.5-0.7-1.1-0.7-1.8s0.2-1.3,0.7-1.8
			c0.5-0.5,1.1-0.7,2-0.7h18.1c3.3,0,5.8,0.7,7.5,2.1c1.7,1.4,2.5,3.2,2.5,5.3c0,1.1-0.3,2.1-0.8,3c-0.5,0.9-1.4,1.3-2.5,1.3
			c-1.2,0-2.2-0.5-3.2-1.6c-0.9-1.1-1.4-2.2-1.5-3.4c0-1.2,0-2,0.1-2.3H359.4z"/>
		<path class="st0" d="M382.2,439.9c0-7,2-12.8,6-17.3s9.4-6.8,16.3-6.8c6.8,0,12.2,2.3,16.3,6.8c4,4.5,6,10.3,6,17.3
			c0,7-2,12.8-6,17.4c-4,4.6-9.5,6.9-16.4,6.9s-12.4-2.3-16.3-6.9C384.1,452.7,382.2,446.9,382.2,439.9z M392.5,453.8
			c3.2,3.8,7.2,5.7,12,5.7c4.8,0,8.8-1.9,12-5.6c3.2-3.8,4.9-8.4,4.9-14c0-5.6-1.6-10.2-4.9-14c-3.3-3.8-7.3-5.6-12-5.6
			c-4.7,0-8.7,1.9-11.9,5.6c-3.2,3.7-4.9,8.4-4.9,13.9C387.7,445.4,389.3,450,392.5,453.8z"/>
		<path class="st0" d="M463.2,421.6H461c-0.7,0-1.3-0.3-1.8-0.8c-0.5-0.5-0.7-1.1-0.7-1.8c0-0.7,0.2-1.2,0.7-1.8
			c0.5-0.5,1.1-0.8,1.8-0.8h9.9c1.6,0,2.4,0.8,2.4,2.5c0,1.7-0.8,2.5-2.4,2.5h-2.2v36.8h3.6c1.5,0,2.3,0.9,2.3,2.5
			c0,0.8-0.2,1.4-0.7,1.9c-0.5,0.5-1,0.7-1.6,0.7h-7c-0.8,0-1.3-0.1-1.6-0.4c-0.3-0.3-0.4-0.8-0.4-1.6v-6.4
			c-3.7,6.1-8.6,9.1-14.7,9.1c-4.8,0-8.3-1.6-10.6-4.9c-2.3-3.2-3.4-7-3.4-11.2v-26.6h-2.2c-0.7,0-1.3-0.3-1.7-0.8
			c-0.4-0.5-0.6-1.1-0.6-1.8c0-0.7,0.2-1.2,0.6-1.8c0.4-0.5,0.9-0.8,1.7-0.8h10c0.7,0,1.3,0.3,1.8,0.8c0.5,0.5,0.7,1.1,0.7,1.8
			c0,0.7-0.2,1.2-0.7,1.8c-0.5,0.5-1,0.8-1.8,0.8h-2.4v26.7c0,2.9,0.8,5.5,2.3,7.8c1.5,2.4,3.9,3.5,7.3,3.5c3.4,0,6.5-1.7,9.3-5.1
			c2.8-3.4,4.3-7.7,4.3-12.9V421.6z"/>
		<path class="st0" d="M521.1,434.2c0,5.2-2,9.6-6.1,13.1c-4.1,3.5-9.1,5.2-15,5.2c-2.4,0-4.6-0.3-6.8-1l-3.8,6.9h17.1
			c3.3,0,5.7,0.8,7.2,2.3c1.5,1.5,2.2,3.4,2.2,5.6c0,2.2-1,4.1-2.9,5.8c-2,1.7-4.5,2.5-7.6,2.5c-3.1,0-6-1.1-8.6-3.4
			c-2.6-2.3-4-4.8-4.1-7.6h-7.4c-2.1,0-3.1-0.7-3.1-2.2c0-0.5,0.2-0.9,0.5-1.5l6-10.1c-2.9-1.4-5.4-3.6-7.3-6.6
			c-1.9-2.9-2.8-6.1-2.8-9.6c0-5.1,2.1-9.4,6.2-12.9c4.1-3.5,9.1-5.2,15.1-5.2c2.7,0,5.2,0.3,7.4,1l3.6-5.9c1.9-3.1,4.2-4.7,7-4.7
			c1.8,0,3.4,0.7,4.7,2.1c1.3,1.4,1.9,2.7,1.9,4c0,1.3-0.3,2.2-0.9,2.8c-0.6,0.6-1.4,0.9-2.4,0.9c-1,0-2.1-0.5-3.2-1.5
			c-1.1-1-1.8-2.2-2.1-3.6l-4.7,7.5c3.1,1.8,5.5,4,7.4,6.8C520.2,427.7,521.1,430.8,521.1,434.2z M500.6,448.3c4.4,0,8.1-1.3,11-4
			c2.9-2.7,4.4-6.1,4.4-10.1s-1.7-7.5-5.1-10.3c-3.4-2.8-7.3-4.2-11.6-4.2c-4.3,0-8,1.3-11.1,4c-3.1,2.6-4.7,6-4.7,10.2
			c0,4.2,1.7,7.6,5.2,10.3C492.2,446.9,496.2,448.3,500.6,448.3z M501.2,468.7c1.3,1.3,2.8,1.9,4.7,1.9c1.8,0,3.2-0.4,4-1.2
			c0.8-0.8,1.2-1.8,1.2-2.9c0-2.2-1.9-3.3-5.6-3.3c-2.2,0-4.3,0.1-6.4,0.4C499.2,465.7,499.9,467.4,501.2,468.7z"/>
		<path class="st0" d="M532.7,406.1h-3.8c-1.4,0-2.2-0.8-2.2-2.5s0.7-2.5,2.2-2.5h7.2c0.8,0,1.4,0.1,1.7,0.4s0.4,0.9,0.4,1.7v22
			c1.2-2.4,3.1-4.5,5.7-6.4c2.6-1.9,5.8-2.8,9.6-2.8c3.8,0,6.6,1.5,8.7,4.4c2,2.9,3,6.3,3,10.1v28h2.8c0.7,0,1.3,0.3,1.7,0.8
			c0.4,0.5,0.6,1.1,0.6,1.8c0,0.7-0.2,1.2-0.6,1.8c-0.4,0.5-0.9,0.8-1.7,0.8h-10.8c-1.7,0-2.5-0.8-2.5-2.5c0-1.7,0.8-2.5,2.5-2.5
			h2.4v-28.3c0-2.4-0.6-4.5-1.7-6.6s-3-3-5.7-3c-3.6,0-6.8,1.9-9.8,5.6c-2.9,3.7-4.4,7.6-4.4,11.8v20.6h2.8c0.7,0,1.3,0.3,1.8,0.8
			c0.5,0.5,0.7,1.1,0.7,1.8c0,0.7-0.2,1.2-0.7,1.8c-0.5,0.5-1,0.8-1.8,0.8h-11.4c-1.6,0-2.4-0.8-2.4-2.5c0-1.7,0.8-2.5,2.4-2.5h3
			V406.1z"/>
		<path class="st0" d="M616.9,455.1c0.5-0.5,1.2-0.8,2.1-0.8c0.8,0,1.5,0.2,2.1,0.7c0.5,0.5,0.8,1.2,0.8,2c0,1.9-0.8,3.6-2.5,5.1
			c-1.7,1.5-3.7,2.3-6.2,2.3c-2.5,0-4.5-0.9-6.2-2.6c-1.6-1.7-2.5-3.9-2.5-6.4v-33.9h-4.2c-0.7,0-1.3-0.3-1.8-0.8
			c-0.5-0.5-0.7-1.1-0.7-1.8c0-0.7,0.2-1.2,0.7-1.8c0.5-0.5,1.1-0.8,1.8-0.8h2.4c1,0,1.7-0.1,2-0.4c0.3-0.3,0.4-0.9,0.4-1.8v-5.3
			c0-2.5,1.3-3.8,3.9-3.8c0.8,0,1.2,0.4,1.2,1.2v10.2h4.3c1.8,0,2.6,0.9,2.6,2.6c0,0.7-0.2,1.2-0.7,1.7s-1.1,0.7-2,0.7H610v33.8
			c0,3.1,1,4.6,3,4.6c2,0,3-0.9,3-2.8C616.1,456.3,616.3,455.6,616.9,455.1z"/>
		<path class="st0" d="M630.7,406.1h-3.8c-1.4,0-2.2-0.8-2.2-2.5s0.7-2.5,2.2-2.5h7.2c0.8,0,1.4,0.1,1.7,0.4s0.4,0.9,0.4,1.7v22
			c1.2-2.4,3.1-4.5,5.7-6.4c2.6-1.9,5.8-2.8,9.6-2.8c3.8,0,6.6,1.5,8.7,4.4c2,2.9,3,6.3,3,10.1v28h2.8c0.7,0,1.3,0.3,1.7,0.8
			c0.4,0.5,0.6,1.1,0.6,1.8c0,0.7-0.2,1.2-0.6,1.8c-0.4,0.5-0.9,0.8-1.7,0.8h-10.8c-1.7,0-2.5-0.8-2.5-2.5c0-1.7,0.8-2.5,2.5-2.5
			h2.5v-28.3c0-2.4-0.6-4.5-1.7-6.6c-1.1-2-3-3-5.7-3c-3.6,0-6.8,1.9-9.8,5.6c-2.9,3.7-4.4,7.6-4.4,11.8v20.6h2.8
			c0.7,0,1.3,0.3,1.8,0.8c0.5,0.5,0.7,1.1,0.7,1.8c0,0.7-0.2,1.2-0.7,1.8c-0.5,0.5-1,0.8-1.8,0.8h-11.4c-1.6,0-2.4-0.8-2.4-2.5
			c0-1.7,0.8-2.5,2.4-2.5h3V406.1z"/>
		<path class="st0" d="M691.8,464.5c-5.9,0-10.7-2.3-14.3-7c-3.6-4.6-5.4-10.6-5.4-17.7c0-7.2,1.7-13,5.1-17.5
			c3.4-4.5,8-6.8,13.6-6.8c2.9,0,5.5,0.6,7.7,1.9c2.3,1.3,4,2.9,5.3,4.8c2.6,3.9,3.9,7.5,3.9,11c0,1.8-0.8,2.7-2.5,2.7h-27.4
			c-0.1,0.8-0.2,2.1-0.2,3.6c0,6,1.4,10.9,4.1,14.8c2.7,3.9,6.1,5.8,10.1,5.8c1.8,0,3.4-0.5,4.8-1.4c1.4-0.9,2.5-1.9,3-2.7
			c0.6-0.9,1.3-2.1,2-3.6c0.8-1.5,1.8-2.3,3.1-2.3c2,0,2.9,0.9,2.9,2.6c0,2.3-1.5,4.8-4.4,7.6C700.4,463.1,696.6,464.5,691.8,464.5z
			 M698.6,423.4c-2.1-2.4-4.7-3.6-7.8-3.6c-3.1,0-5.7,1.1-7.7,3.4c-2,2.3-3.4,4.9-4.2,7.7h23.2C701.9,428.4,700.7,425.9,698.6,423.4
			z"/>
		<path class="st0" d="M779.4,401c1.6,0,2.5,0.9,2.5,2.6c0,1.7-0.8,2.6-2.5,2.6h-2.6v55.1c0,1.8-0.9,2.6-2.6,2.6
			c-1.6,0-2.6-0.6-3.2-1.9l-26.3-50.3v46.6h2.3c1.6,0,2.4,0.9,2.4,2.5c0,1.7-0.8,2.5-2.4,2.5h-9.7c-1.6,0-2.4-0.8-2.4-2.5
			c0-1.7,0.8-2.5,2.4-2.5h2.4v-52.2h-2.4c-1.6,0-2.4-0.9-2.4-2.6c0-1.7,0.8-2.6,2.4-2.6h6.6c1,0,1.7,0.5,2.3,1.6l25.7,49.1v-45.5
			h-2.5c-1.6,0-2.4-0.9-2.4-2.6c0-1.7,0.8-2.6,2.4-2.6H779.4z"/>
		<path class="st0" d="M783.3,439.9c0-7,2-12.8,6-17.3c4-4.5,9.4-6.8,16.3-6.8s12.2,2.3,16.3,6.8c4,4.5,6,10.3,6,17.3
			c0,7-2,12.8-6,17.4c-4,4.6-9.5,6.9-16.4,6.9s-12.4-2.3-16.3-6.9C785.2,452.7,783.3,446.9,783.3,439.9z M793.6,453.8
			c3.2,3.8,7.2,5.7,12,5.7c4.8,0,8.8-1.9,12-5.6c3.2-3.8,4.9-8.4,4.9-14c0-5.6-1.6-10.2-4.9-14c-3.3-3.8-7.3-5.6-12-5.6
			s-8.7,1.9-11.9,5.6c-3.2,3.7-4.9,8.4-4.9,13.9C788.8,445.4,790.4,450,793.6,453.8z"/>
		<path class="st0" d="M837.2,421.5h-2.5c-0.8,0-1.4-0.2-1.9-0.7c-0.5-0.5-0.7-1.1-0.7-1.7c0-1.7,0.8-2.5,2.5-2.5h4.9
			c2,0,3.1,0.9,3.1,2.6v39.3h2.5c0.8,0,1.4,0.3,1.8,0.8c0.4,0.5,0.6,1.1,0.6,1.8c0,1.7-0.8,2.5-2.4,2.5h-10.4
			c-0.7,0-1.2-0.2-1.7-0.7s-0.7-1.1-0.7-1.7c0-0.7,0.2-1.3,0.7-1.8c0.5-0.6,1.1-0.8,1.7-0.8l2.5-0.1V421.5z M838.6,401.3
			c1.3,0,2.4,0.4,3.3,1.3c0.9,0.8,1.3,1.9,1.3,3.1c0,1.2-0.4,2.2-1.3,3.1c-0.9,0.8-2,1.3-3.2,1.3c-1.3,0-2.4-0.4-3.2-1.3
			c-0.9-0.8-1.3-1.9-1.3-3.1c0-1.2,0.4-2.2,1.3-3.1C836.3,401.7,837.3,401.3,838.6,401.3z"/>
		<path class="st0" d="M860.1,424.2c0,2.4,2.4,5.3,7.1,8.7l3.2,2.5c1.8,1.3,3.3,2.4,4.4,3.4c1.1,0.9,2.2,2.5,3.4,4.6
			c1.2,2.1,1.8,4.4,1.8,6.7c0,3.7-1.2,7-3.6,9.9c-2.4,3-5.7,4.5-10,4.5c-4.3,0-7.8-1-10.5-3.1c-2.7-2.1-4.1-4.7-4.1-7.9
			c0-2,0.5-3.6,1.6-5c1-1.4,2.2-2.1,3.3-2.1s2.1,0.4,2.7,1.1c0.6,0.8,0.9,1.7,0.9,2.9c0,2.4-0.8,4.1-2.4,5.3c0.1,1.3,1,2.4,2.5,3.3
			s3.6,1.4,6.1,1.4c2.5,0,4.6-0.9,6.1-2.7c1.6-1.8,2.4-3.8,2.4-5.8s-0.5-3.8-1.5-5.3c-1-1.5-2-2.6-2.9-3.4c-1-0.8-2.5-2-4.7-3.5
			l-1.8-1.3c-3.1-2.2-5.5-4.3-7.1-6.1c-1.6-1.9-2.4-4.1-2.4-6.9s1-5,2.9-6.8c2-1.8,4.4-2.7,7.3-2.7s5.5,0.8,7.7,2.5
			c2.3,1.6,3.4,3.7,3.4,6.1c0,1.1-0.3,2-0.8,2.8c-0.6,0.8-1.4,1.1-2.4,1.1c-1,0-2.1-0.6-3.1-1.8c-1-1.2-1.5-2.4-1.5-3.4
			s0.2-2,0.5-2.8c-0.6-0.5-1.7-0.7-3.5-0.7c-1.7,0-3,0.5-3.9,1.5C860.5,422,860.1,423,860.1,424.2z"/>
		<path class="st0" d="M903.1,464.5c-5.9,0-10.7-2.3-14.3-7c-3.6-4.6-5.4-10.6-5.4-17.7c0-7.2,1.7-13,5.1-17.5
			c3.4-4.5,8-6.8,13.6-6.8c2.9,0,5.5,0.6,7.7,1.9c2.3,1.3,4,2.9,5.3,4.8c2.6,3.9,3.9,7.5,3.9,11c0,1.8-0.8,2.7-2.5,2.7h-27.4
			c-0.1,0.8-0.2,2.1-0.2,3.6c0,6,1.4,10.9,4.1,14.8c2.7,3.9,6.1,5.8,10.1,5.8c1.8,0,3.4-0.5,4.8-1.4c1.4-0.9,2.5-1.9,3-2.7
			c0.6-0.9,1.3-2.1,2-3.6c0.8-1.5,1.8-2.3,3.1-2.3c2,0,2.9,0.9,2.9,2.6c0,2.3-1.5,4.8-4.4,7.6C911.7,463.1,907.9,464.5,903.1,464.5z
			 M909.9,423.4c-2.1-2.4-4.7-3.6-7.8-3.6c-3.1,0-5.7,1.1-7.7,3.4c-2,2.3-3.4,4.9-4.2,7.7h23.2C913.1,428.4,912,425.9,909.9,423.4z"
			/>
	</g>
</g>
<g id="Layer_2">
	<circle class="st1" cx="299" cy="216" r="122"/>
	<circle class="st1" cx="395.5" cy="146.5" r="30.5"/>
	<circle class="st1" cx="695.5" cy="212.5" r="16.5"/>
	<circle class="st1" cx="796" cy="163" r="45"/>
	<circle class="st1" cx="606.5" cy="317.5" r="61.5"/>
</g>
</svg>
