<svg xmlns="http://www.w3.org/2000/svg" viewBox="0 0 527.13 1216.96"><path d="M423.5,705.37c-6.41,6.74-12.86,13.45-19.22,20.24a7.88,7.88,0,0,1-5.23,2.51c-8.11.91-16.21,2.79-24.3,2.69a53.58,53.58,0,0,1-25.25-6.34c-8.69-4.74-13.92-11.93-16.91-21.14-1.62-5-4.36-9.33-9-12.18-.93-.57-2.17-1.67-2.2-2.56-.21-6.66-3-13.35.4-20,3.3-6.36,6.33-12.85,9.4-19.33,2.72-5.76-3.18-15.39-9.56-15.67q-30.46-1.33-60.92-2.63c-6.37-.27-9.72-3.12-10.06-9.64-.48-9-.85-18-.55-27,.17-5.14,3.61-9.62,4.86-14.61,2.7-10.69,8.82-18.87,16.78-26.41,17.05-16.16,33.39-33,50.16-49.52a10.62,10.62,0,0,0,3.6-8.73q-5.7-153.85-11.2-307.7-3.53-97.91-6.9-195.82c-.07-2,0-4.12-1.41-5.68-3.87-4.35-4.37-9.38-3.73-14.89a67.71,67.71,0,0,0,.27-11.48c-.27-4.94.59-9.19,4.8-12.39,2-1.52,2.28-3.92,2.3-6.35.07-8.5.37-17,.26-25.49,0-3.29,1.07-6.21,1.81-9.25q12.56-51.48,25.2-102.93c1.71-7,12.11-11.37,18.71-9.05,7.27,2.55,10.39,7.42,12.79,14.31,8.66,24.86,17.89,49.51,26.95,74.23.59,1.62.63,3.64,2.59,4.71,2.27-17.08,9-33.22,8.49-50.74a413.08,413.08,0,0,1,.43-43c.94-12.75,4.17-25.31,5.56-38,2.82-25.83,10.35-50.59,17.23-75.42,7-25.14,19.48-47.93,32.85-70.32a234,234,0,0,1,38.62-49.33c2-1.9,4-2.93,6.67-2.48a1.63,1.63,0,0,0,.49.05c9.32-1.15,15.1,3.39,21.34,10.18A260.57,260.57,0,0,1,563-385.85c9.67,16.75,19.33,33.8,24.74,52.77,3.88,13.6,9.61,26.69,13.1,40.38,3.74,14.66,5.37,29.84,8.74,44.61,6,26.25,4.58,53,6.29,79.56.71,10.94,1.62,21.91,1,32.91-.1,2,1.19,3.19,2.55,4,5.47,3.22,8,7.66,6.68,14.07a2.82,2.82,0,0,0,.77,2.84c2.16-.33,2-2.37,2.49-3.77q15-42.92,30-85.89c2.38-6.84,9.84-9.28,16.68-7.83,8.78,1.86,10.57,7.47,12.33,14.82,8.59,35.81,17.83,71.45,26.35,107.27,1.82,7.69,1.53,15.87,1.28,23.85-.1,3.38-.34,6.75,1.23,9.8,5.48,10.61,2.84,22.24,4.32,33.34a4.23,4.23,0,0,1-1.12,3.19c-3.85,3.59-3.79,8.23-4,12.93q-6.24,160.83-12.54,321.65-3.27,84.17-6.54,168.32a12.64,12.64,0,0,0,3.43,9.9c20.37,22.23,40.56,44.63,60.83,66.95a13.06,13.06,0,0,1,2.45,3.72c4.67,11,9.43,22,12.49,33.64a9.41,9.41,0,0,1-.24,6.73c-4.37,9.76-8.29,19.66-8.59,30.58-.11,4.21-2.93,4.86-6.55,5-21,.6-42-.46-63-.52-5.68,0-5.7,0-3.34,4.65a4.69,4.69,0,0,1-1.47,6.24c-6,4.76-6.17,10.16-2.76,16.61,2.17,4.09,3.18,8.79,5.23,13s1.52,7.54-.15,11.77c-5,12.68-13.14,23.49-19.88,35.13-.33.57-.64,1.34-1.17,1.59-8,3.9-16,7.91-24.82,9.9-.15,0-.33,0-.49,0-15.84,2.22-30.26-.88-42.82-11.25-2.65-2.19-4.09-1.44-4,2.16.12,4,0,8,0,12,0,3.48-1.58,5.3-5.15,5.21-.17,0-.34,0-.5,0-10.49.18-10.47.18-10.53-10.34,0-1.23.75-2.89-.81-3.58-1.38-.61-2.43.73-3.51,1.4-6,3.68-12,7.28-17.76,11.19-2.94,2-5.1,1.53-8.15-.09-11.1-5.87-18-15.51-24.07-25.88-2.22-3.78-5-5.07-9.35-5-13.27.18-13.31,0-13.89,13.56q-.88,21-1.62,41.95c-.1,2.83-.25,5.84-3.88,5.76s-3.63-3.18-3.8-5.94q-1.26-21-2.65-41.9c-.11-1.5.7-3.79-1.39-4.27-1.53-.35-2.44,1.59-3.1,2.81-5.8,10.84-15,14.34-27,16.09-10,1.46-17.19-2.25-24.71-6.44-4.91-2.72-8.19-2.31-11.34,2.07-1,1.35-2.25,2.46-3.31,3.75-1.51,1.85-3.31,3-5.61,1.7-2.06-1.19-1.91-3.21-1.47-5.32,1.95-9.47,3.82-19,5.68-28.43a16.82,16.82,0,0,0,.13-2.47c.31-.54.7-1.13.06-1.66S423.84,704.85,423.5,705.37ZM631,356.08c-1.51-2.65-4.46-2.45-6.81-3.23-10.46-3.51-10.69-3.26-9.15,7.71.09,3.44-.09,6.91,1.18,10.21,0,1.15,1,1.37,1.8,1.77l0-.11a2.47,2.47,0,0,0,1,2.11l0-.1a2.38,2.38,0,0,0,1,2.1l0-.11c1.29,7.05,5.59,12.62,8.31,19.07,2.2-1.34,2.12-2.73,2.2-4,.62-10.41,1.27-20.82,1.79-31.23.08-1.47.93-3.43-1.35-4.25ZM616.07,343l-.08-.09c2.49,3.09,6.43,3,9.72,4.16,6.74,2.45,7,2.28,6.91-4.66-.29-21.55-.75-43.1-1.16-64.65,0-1.43.24-3.11-1.77-3.62-4.42,0-8-3.62-12.55-2.92-1.6,11.31-1.12,22.74-1.76,34.1-.57,10.18.11,20.45-.92,30.67C614.21,338.4,612.73,341.31,616.07,343ZM624-5.45c-1.47,27.21-1.72,54.45-2.44,81.68A3,3,0,0,0,623,79.17l1.8.88c1.07,1.91,3.18,2.3,4.89,3.21,5.7,3,5.78,3,5.61-3.6-.59-23.72-1.09-47.44-2-71.14-.15-4.1.7-8.54-1.67-12.43C629.31-5.49,626.86-6.49,624-5.45Zm8-98.06a3,3,0,0,0-1,3.09l0-.09a2.91,2.91,0,0,0-1,3.09l0-.1c-1.93,1.21-2,3.17-2,5.13l0-.11a3.74,3.74,0,0,0-1,3l0,.29c-1.4,2.1-.92,4.5-1,6.79-.53,15.44-1.2,30.88-1.42,46.32-.1,7.4-1.37,14.86.39,22.25a11.65,11.65,0,0,0,7.81,1.66c1.16-.51,1-1.6,1.08-2.56.6-7.13,1.55-14.25,1.68-21.38.13-6.73,2.51-13.42.49-20.19-.69-4.91,1.63-9.6,1-14.5,2.73-7.28,2.88-14.79,2-22.4-.68-3.92,1.48-7.59,1-11.49,2.07-7.06,2.09-14.29,1.83-21.54,0-1.14,0-2.28-.07-3.42,0-.14-.35-.27-.53-.4l-.27.94a2.46,2.46,0,0,0-1,2.74l0-.11a3.07,3.07,0,0,0-1,3.1l0-.1a3,3,0,0,0-1,3.09l0-.09a2.86,2.86,0,0,0-1,3.09l0-.09a2.26,2.26,0,0,0-1,2.1l0-.08a3.64,3.64,0,0,0-1,3.1l0-.12a3.51,3.51,0,0,0-1,3.11l0-.11a3.31,3.31,0,0,0-1,3.11l0-.11a3.12,3.12,0,0,0-1,3.1ZM623.53,88c-1-1.21-1.44-.69-1.57.58l0,0c-.83,1.36-.69,2.88-.73,4.36-.61,22.57-1.26,45.14-1.79,67.71-.08,3.27-.85,6.63.5,9.84l0-.08c0,1.07.61,1.51,1.59,1.6l-.12-.05a18.39,18.39,0,0,0,11.08,4h-.1c2.65-.24,1.9-2.33,1.92-3.8q.6-37.12,1.08-74.25c0-1.73.55-3.78-1.68-4.77A47,47,0,0,1,623.53,88Zm.83,177c1.95-.3,3.51,2.06,5.6.83a2.11,2.11,0,0,0,1.57-2.21c.71-22.37,1.64-44.74,1.44-67.13l-.14-12.15c-3.67-2.76-7.64-4.67-12.39-4.34h.07c-2.84.54-1.78,2.84-1.83,4.43q-1.06,35.67-2,71.36C616.5,263.46,616.51,263.46,624.36,265ZM594.08,739.14c2.42-2,1.58-4.17,1.68-6.06,1.5-27.55-.56-54.94-3.84-82.27-.72-6-1.23-11.72-4.51-17.43-6.2-10.8-10.94-22.44-16.32-33.72-2.64-5.53-1.16-7.81,4.9-7.42,11.31.74,22.64,1.23,33.91,2.33,4.71.47,5.53-1.09,5.43-5.35-.27-11.32.06-22.66-.1-34-.58-41.45,1-82.91-.85-124.37-1.26-27.68-5.14-55-8.49-82.45-3.7-30.43-7.73-60.82-11.7-91.22-3.69-28.25-6.58-56.65-11.5-84.68-4.49-25.57-11.3-50.72-16.94-76.09-.81-3.64-2.92-3.33-5.54-2.88a394.86,394.86,0,0,1-59.65,5.33,22.85,22.85,0,0,1-7.35-.94c-5.89-1.82-11.83-3.47-17.79-5.06-8.81-2.35-7.6-3.56-9.7,5.94q-6.54,29.75-12.89,59.55c-1,4.6-1.88,9.23-3,14.64,4-1.71,3-6.09,5.49-6.7,6-1.49,5.42-6.15,5.95-10.42a4.7,4.7,0,0,1,4-4.47c16.83-3.16,32.53-9.69,48.28-16.07a7.15,7.15,0,0,1,4.87-.2c16.92,5,33.88,9.91,50.23,16.63,2.62,1.08,4,2.64,4.11,5.55.39,9,.9,18,1.43,27,.2,3.43-1.27,5.37-4.69,5.84-1.32.19-2.64.37-3.94.68-13,3.15-11.31,2.91-15.11-8.58-1.12-3.38-3-4.84-6.51-5.77-16.53-4.33-33.27-4.17-50.12-3.47-4,.16-6.84,1.28-8.34,4.92-3.21,7.74-8.71,11.29-17.27,11.27-5.34,0-11.15,2.8-12.48-6.92-3.63,7.82-6.39,14-6.1,21.37.81,20.48,1.15,41,1.64,61.47a14.78,14.78,0,0,1-.26,3.94,3.14,3.14,0,0,1-6,.22,13.84,13.84,0,0,1-.52-3.92c-.41-16.32-.77-32.65-1.2-49,0-1.69.47-3.53-.74-5.19-1.69,1.17-1.52,3-1.85,4.51-4,18.58-8,37.15-11.76,55.76-2.28,11.14-4.45,21.67-.62,33.7,5.92,18.64,8.64,38.31,12.67,57.55a18.86,18.86,0,0,1,.37,4.44q-1.83,83-3.7,165.93c0,1.64-.53,3.58.86,4.75,2.79,2.36,2.25,5.33,2,8.31-1.08,13.12-1.92,26.26-3.38,39.34-.53,4.77,1.17,6.41,5.42,6.58a12.21,12.21,0,0,1,8.4,3.68c14.3,13.78,31.34,20.7,51.35,20.24,3.78-.08,4.84-1.32,4.87-4.91.15-15.49.56-31,.81-46.48.15-9.66.16-19.33.27-29,0-2.12.1-4.11-3-4-6.48.29-13-.7-19.44.5a8.19,8.19,0,0,1-5.74-.91c-9.51-5.19-19.06-10.3-28.57-15.47-2.33-1.27-5.41-2.66-3.54-5.93,1.67-2.89,4.37-1.27,6.6-.07q12.56,6.75,25.08,13.52a10.23,10.23,0,0,0,5.14,1.65c6.16-.11,12.34-.26,18.49,0,3.86.18,5.14-.95,5.16-5,.07-23.16.44-46.32.69-69.48.1-9.29.08-9.16-9.1-9.38-5-.13-10.25,1.43-14.83-.82-11.22-5.5-22.79-10.21-34.14-15.42-2.22-1-4.58-2.2-3.38-5.12s3.75-2.13,6-1.15c7.32,3.23,14.82,6.12,21.87,9.85A54.54,54.54,0,0,0,505,434.48c3.54-.2,4.44-1.25,4.46-4.64q.27-40.48.89-81c.06-3.76-.71-5.5-4.89-5.21-5.47.38-11,.18-16.47.26a7.42,7.42,0,0,1-3.89-.6c-11.27-6.16-23.19-10.95-34.76-16.47-2.31-1.09-4.28-2.54-2.83-5.34,1.31-2.52,3.61-1.83,5.69-.87,5.59,2.6,11.31,4.95,16.72,7.88,11.22,6.07,22.86,9.66,35.84,8.6,3.78-.3,4.71-1.32,4.74-4.92.17-28.49.43-57,.94-85.48.09-4.84-1.32-6.31-6.1-6.09-7.26.32-14.84,1.34-21.73.47-9.21-1.18-18-5.79-26.89-9.08-1.75-.64-3.18-2.09-2.3-4.33s2.64-2.52,4.55-1.92c3.5,1.1,6.88,2.55,10.38,3.61,5.82,1.76,11.19,4.67,17.76,4.25,10.44-.68,10.47-.25,9.54-10.8-.46-5.11,1-6.74,6.09-6.62,10.83.27,21.65.63,32.48.76,4.06,0,5.83,1.78,5.63,5.77-.07,1.32,0,2.66,0,4,.32,8.37,3.61,10.51,11.61,7.54,1.25-.46,2.43-1.1,3.63-1.68l20.68-10c2-1,4-1.24,5.24,1s0,3.81-1.83,5.05a15.47,15.47,0,0,1-2.22,1.14q-13.08,6.22-26.18,12.45c-1.22.58-2.48,1.33-3.8.87-7.93-2.76-16.21-.89-24.26-1.9-4.43-.56-5.72,1-5.71,5.42,0,20-.32,40-.53,60q-.13,13.24-.29,26.49c0,2-.37,4.23,2.78,4.17,12.85-.25,25.91,2.24,38.07-4.77,6-3.46,12.81-5.6,19.24-8.35,2.48-1,5.41-2.68,6.8.89s-1.86,4.4-4.32,5.45c-10.74,4.56-21.48,9.1-32.19,13.7-1.57.67-3.1,1.29-4.81.89-6.91-1.62-13.95-.49-20.9-1.07-3.71-.3-4.95,1.06-4.92,4.78.09,10.32-.16,20.66-.27,31-.18,16.66-.37,33.32-.47,50,0,1.77-1,4.64,2.18,4.59,7-.09,14,1.11,20.86-.89,12.32-3.57,24.68-7,37-10.5,2.27-.64,4.5-.7,5.37,2s-1.16,3.93-3.35,4.58c-3.83,1.14-7.69,2.18-11.56,3.18-15.56,4-30.65,10.57-47.3,8.58-3.58-.43-3.43,2.15-3.45,4.58q-.22,25.24-.51,50.49c-.08,8.16-.19,16.33-.25,24.49,0,1.78-.39,4.06,2.4,4,7.81-.14,15.65,1,23.41-.59,9.15-1.84,18.28-3.75,27.42-5.59,2.3-.46,4.59-.33,5.22,2.41s-1.5,3.76-3.72,4.32c-1.61.4-3.27.6-4.91.92-14.8,3-29.47,7.12-44.82,5.35C516,531.14,515,533,515,537c-.44,24.82.2,49.67-1.18,74.47-.21,3.74,1.24,4.57,4.58,4.39,9.31-.49,18.63-.78,27.95-1.18,2.55-.11,5.62-.45,5.94,2.88.36,3.78-2.93,3.82-5.63,3.92-9.81.35-19.6,1.58-29.44,1.09-2.71-.13-3.84.76-4,3.61q-1.59,38.46-3.42,76.91c-.13,2.75.7,4,3.6,3.87,4.83-.15,9.67.09,14.49-.1a7.09,7.09,0,0,1,7,3.72c2.33,3.84,5.14,7.4,7.44,11.25a42.38,42.38,0,0,0,15,15.07c2.33,1.39,4.06,1.48,6.35,0,7.27-4.71,14.68-9.2,22-13.83,1.73-1.09,3.37-2.36,5.5-1.28,2.38,1.2,2.15,3.43,2.16,5.65C593.36,731.13,592.49,734.94,594.08,739.14ZM314.77,48.94h2.78c0,13,0,26,0,39,0,1.69-.6,3.82,2.05,4.43,13.8,3.16,26.87,10.58,41.83,7,2.36-.57,5.1-.32,5.52,2.7s-2.15,3.64-4.6,4c-8.76,1.25-17.37,2.1-25.92-1.69-4.52-2-9.57-2.81-14.35-4.27-2.86-.88-4.27-.62-4.12,3q1.54,38.2,2.76,76.42c.09,2.63.88,3.91,3.69,4.11,12.45.89,24.84,2.68,37.37,2.38,2.52,0,5.59-.33,5.8,3.1.22,3.94-3.1,3.52-5.75,3.67-12.05.66-23.92-1.42-35.86-2.32-3.93-.29-4.83.85-4.68,4.59q1.46,35.72,2.48,71.44c.1,3.68,1.43,4.84,4.88,5.2,11.58,1.2,23,3.78,34.8,2.27,2.27-.29,4.68.2,4.88,3s-2.05,3.69-4.37,3.71c-5.78.05-11.48,1.45-17.38.18s-11.89-1.47-17.82-2.41c-3.32-.52-4.45.41-4.31,3.86q1.33,34.22,2.4,68.44c.07,2.34.75,3.82,3.29,4,9.49.85,19,4.42,28.38-.77,2-1.12,4.45-1,5.46,1.61.93,2.42-.86,3.77-2.8,4.54-6,2.38-11.81,5.24-18.68,3.15-3.31-1-6.95-.81-10.37-1.52-3.85-.8-4.87.44-4.7,4.33.86,19.3,1.51,38.62,2.08,57.94.09,3.06.91,4.57,4.19,4.68,7.93.27,15.79,2.74,23.81.58a3.22,3.22,0,0,1,4.29,2.42c.4,1.84-.79,3.21-2.52,3.83-3.1,1.12-6.09,2.3-9.66,1.64-4.9-.9-10-.9-14.89-1.66-3.84-.59-4.87.53-4.68,4.44.76,15.64,1.16,31.3,1.76,46.95.06,1.59-.73,3.84.94,4.59s2.78-1.39,3.88-2.48c14.81-14.64,29.55-29.36,44.37-44a16.1,16.1,0,0,0,4.51-8.14c5.5-23.69,11.64-47.25,16.5-71.07,3.58-17.54,9.43-34.37,9.13-53.06-1.37-87-1.32-174-1.78-260.93,0-1.16-.35-2.46.05-3.47,1.31-3.36-.09-6.09-1.49-9-2.09-4.28-4.44-8.26-4.57-13.49-.93-35.14-2.25-70.27-3.44-105.41a37.55,37.55,0,0,0-2.32-11.7Q379.26-141.46,361-191.72c-1.65-4.51-7.13-9.14-10.59-8.31-4.6,1.11-6.9,4.46-8,9.16-6.5,27.05-12.71,54.19-20,81a176.44,176.44,0,0,0-5.88,52.37c.1,3.46-.58,6.18-3.37,8.34s-3.92,5.18-3.8,8.78c.1,3.32-.14,6.66-.25,10-.14,3.83-.66,7.77,1.75,11.13,3,4.23,4.66,8.63,3.52,14-.46,2.16-.49,4.88,2.83,5.42,15.37,2.48,30.21,8.69,46.26,6.46,2.57-.36,6-.72,6.14,3.12.15,3.44-3,3.41-5.5,3.59-8.13.59-16.18,1-24.23-1.37-6.7-2-13.72-2.76-20.49-4.52-4.13-1.08-4.69.31-4.62,4.05C314.91,24,314.77,36.45,314.77,48.94ZM637.14,385.28c-.35,6.65-.69,13.31-1.08,20-.13,2.19-.27,4.45.71,6.39C642,422,646,433,654.35,441.63c11,11.39,21.31,23.39,32,35.09.95,1.06,1.76,3,3.35,2.56,2-.61.93-2.85,1.31-4.35a4.73,4.73,0,0,0,0-1q3.08-79.9,6.14-159.82Q703.08,160.8,709,7.47c.23-6,1.35-12-.08-17.91a7.63,7.63,0,0,1,1.62-7.32c2-2.45,4.37-4.87,4.09-8.32-.84-10.37.68-21.13-5-30.73-1-1.63-.78-3.48-.69-5.36.58-11.34.29-22.6-2.54-33.72-4.93-19.38-9.62-38.81-14.41-58.21-3.76-15.2-7.69-30.37-11.21-45.62-1.16-5.06-5-5.31-8.65-6-2.86-.51-5.56.78-6.33,3.72-4.7,18.1-14.34,34.45-15.37,54-2.31,44.4-6.43,88.72-10,133-.37,4.54,1,6.25,5.22,7.08,5,1,10,2.61,15,3.94C663-3.19,665.24-2,664.33.93c-.82,2.66-3.21,2.44-5.45,1.82-4.66-1.28-9.4-2.33-14-3.9-4.07-1.4-5.5-.79-5.36,3.93.85,27.48,1.47,55,2,82.44.06,2.88,1,4.63,3.62,5.85,3.47,1.63,6.84,3.46,10.13,5.41,1.7,1,2.66,2.72,1.47,4.69-1,1.7-2.8,1.78-4.43,1.07a64.33,64.33,0,0,1-6.67-3.4c-2.86-1.67-4-1.32-4.08,2.33q-.4,37-1.14,74c-.07,3.32,1.21,4.8,4.17,5.7,3.82,1.15,7.57,2.57,11.31,4,2.15.8,4.19,2,3.17,4.74s-3.4,2.22-5.54,1.53c-3-1-6-2-8.94-3.2-3.23-1.34-4.4-.52-4.5,3.07q-1.05,37-2.41,73.93c-.11,3.12,1,4.5,3.94,5.21,4.2,1,8.34,2.33,12.48,3.59,2.23.68,4.2,1.91,3.34,4.63s-3.16,2.51-5.39,1.85c-3.19-.93-6.45-1.71-9.56-2.88-3.81-1.44-4.92-.41-4.8,3.65.58,19,.91,38,1.32,57,.27,12.72.26,12.72,12,16.73.48.16,1,.31,1.42.48,2.13.76,3.61,2.1,2.84,4.49s-3,2.38-5,1.86-3.82-1.18-5.73-1.78c-6-1.87-6-1.87-6.35,4.16Q637.72,374.55,637.14,385.28ZM430.78,347.53c-2.33,1.33-2,3.21-2.28,4.72Q417.73,406.13,407.09,460a9.13,9.13,0,0,1-2.6,5.22c-34.2,32.42-68.08,65.19-102.76,97.08-9.65,8.88-15.76,18.32-17.06,31.26-.58,5.86-1.06,5.81,4.77,5.47l83.28-5L425.08,591c2.72-.16,5.15-.13,5.41-4.1.78-12.13,1.92-24.23,2.91-36.35.12-1.48.53-3.18-.67-4.29-2.3-2.12-2-4.73-1.94-7.41q1.84-82.91,3.69-165.82C434.69,364.38,432.76,356.21,430.78,347.53ZM618.07,443a25.07,25.07,0,0,0-.23,2.56q-.08,72.71-.19,145.4c0,3.84,1.78,4.18,4.81,4.37,24.93,1.54,49.85,3.25,74.78,4.82,15.79,1,31.59,1.77,47.37,2.84,4.15.29,5.18-1.31,4.87-5.15-.46-5.64-.63-11.31-.64-17a11.06,11.06,0,0,0-3.74-8.3q-49-48.51-97.84-97.17c-9.85-9.83-20.91-18.67-27.22-31.57A1.47,1.47,0,0,0,618.07,443ZM344.92,634.42c-1.5,0-3,0-4.5,0s-3.75-.91-4.69.57c-1.13,1.8.72,3.47,1.76,4.81,2.84,3.63,2.81,7,.55,11-3.48,6.24-6.41,12.81-9.44,19.29-2.55,5.46-3.48,12.52.53,16,7.05,6.18,9.06,14.5,13,22a16.87,16.87,0,0,0,4.08,5.58,42.88,42.88,0,0,0,33.49,9.76c20-2.38,19.75-2.63,33.36-17,10.71-11.27,18.57-23.45,20-39.53.95-10.4,3.85-20.61,5.74-30.94.24-1.3,2-3.82-1.61-3.65-4.15.19-8.29.48-12.44.57C398.18,633.58,371.57,635.11,344.92,634.42ZM620.69,394l-1.79.45c.53,9.54,1,19.09,1.66,28.61.26,3.62-.44,7.49,1.44,10.81,3.92,7,7.47,14.25,13.18,19.94Q694,512.33,752.94,570.66a6.2,6.2,0,0,1,2.27,4.26q.54,14.73,1,29.46c.11,3-1.28,4.67-4.39,4.86-2.81.18-5.65.86-8.43.69-21.93-1.35-43.86-2.84-65.78-4.31q-47.58-3.18-95.16-6.41c-3.2-.22-3.93.76-2.5,3.66,3.22,6.58,6.82,13,9.33,19.89,2.45,6.64,6.58,8.36,13.28,8.23,26.81-.53,53.61.79,80.43.85,24.13,0,48.27,1.06,72.42,1.16,4.42,0,6.7-1.34,6.47-5.87-.28-5.54,2-10.36,4-15.32,1.58-4,4.81-8,3.86-12.22-3-13.34-7-26.55-15.49-37.52-6.2-8-13.46-15.2-20.34-22.67q-21.33-23.13-42.39-46.5c-17.06-18.9-34-37.9-51.14-56.74a9.94,9.94,0,0,1-2.5-4.23C634.21,418.31,625.78,406.93,620.69,394ZM640,638.58v-1.09c-12.14,0-24.29,0-36.43,0-6.17,0-6-.06-5.58,5.82,1.79,23.19,6.23,46.2,4.82,69.6-.15,2.53,1,4,3,5.19,6.31,3.71,12.53,7.59,18.84,11.29a11.26,11.26,0,0,0,4.62,1.69c13.3.88,26.25-.35,38.17-7.06a9.85,9.85,0,0,0,3.71-3.24c5.87-9.27,11.84-18.46,16.61-28.41,2.44-5.1,2.72-9.6.23-14.65-2-4-2.88-8.59-5-12.48-3.54-6.38-3.63-11.75,2.52-16.52,1.23-1,2.55-2.45,1.08-4.28-2.5-3.12-4.82-6.06-9.66-5.94C664.58,638.78,652.27,638.58,640,638.58ZM502.5,705.69c.32-2.42.68-4.19.76-6,1.11-24.29,2.11-48.58,3.33-72.86.19-3.72-1.17-4.74-4.52-4.31-10.76,1.37-20.72-1.18-30.35-5.87-4-2-8.36-3.28-12.53-4.95a12.55,12.55,0,0,1-3-1.64c-4.55-3.64-4.58-3.67-5.74,2.32Q440,665.84,429.65,719.29c-.48,2.5-1.42,5-.75,8.85,3.62-5,7-3.1,10.49-1.14,4.21,2.35,8.61,4.36,12.9,6.58,2,1,4,1.86,6.19,1.58,5.78-.74,11.55-1.56,17.32-2.37a7.33,7.33,0,0,0,4.54-2.81c6.24-7.11,11.43-14.67,12.07-24.57.23-3.47,1.16-6.89,1.72-10.34.38-2.36,1.33-4.23,4-4.26s3.17,2.38,3.48,4.15C502.21,698.27,502.21,701.69,502.5,705.69ZM356.37,628.31c26.69-.8,50-1.55,73.3-2.13,3.16-.08,4.82-1.4,6.09-4.1,2.84-6,5.19-12.47,9.09-17.74,2.87-3.87.95-4.35-1.7-5.25a32.42,32.42,0,0,0-6.34-1.29c-8-1-16,0-23.92.48-48,2.77-96,5.76-144.06,8.63-14.82.89-11.42-.72-11.71,13.36-.06,2.71,1,3.81,3.82,3.93C293.88,625.56,326.81,627,356.37,628.31Zm66.19-318.72c-.53,2-.75,2.77-.94,3.57-8.66,36.78-17.83,73.45-25.71,110.4a68.27,68.27,0,0,1-20.67,37.11c-35.4,33.84-69.74,68.78-104.35,103.43-8.89,8.89-10.57,21.17-14,32.54-.73,2.44.41,4.14,3.47,3.92,4.15-.3,8.32-.43,12.48-.5,2.89,0,4-1.53,4.54-4.23,1.26-6.7,2.83-13.35,4.07-20.06a12.54,12.54,0,0,1,4-7.19Q340.65,516.4,395.71,464.1a18.23,18.23,0,0,0,5.61-10.25c7.73-39.19,15.35-78.4,23.53-117.49C426.73,327.41,425.17,319.3,422.56,309.59ZM511.83,91.45c16.62.29,31.85-2.59,47.19-4.49,3.58-.44,4.28-1.73,3.4-5.14-2.2-8.53-4.15-17.13-5.94-25.76-.64-3.08-1.91-4.14-5.06-3.76-4.79.57-9.62.71-14.43,1.07-17.19,1.32-34.4,3.55-51.38-1.75-1.89-.58-3.94-.65-5.87-1.12-2.3-.57-3.35.3-3.84,2.54-2,9.26-4.06,18.51-6.21,27.74-.6,2.58.42,3.67,2.75,4.26C485.74,88.38,498.6,94.46,511.83,91.45Zm1.81-43.18c12-.79,23.91-1.69,35.88-2.33,3.49-.18,4-1.41,2.6-4.3-1.7-3.62-3.15-7.35-4.81-11-4-8.76-4-8.86-13.43-7.1-13.63,2.56-27.19,4.48-40.67-.76-1.69-.65-3.59-.77-5.32-1.35-2.43-.82-3.72-.11-4.39,2.39-1.5,5.63-3.1,11.23-4.76,16.81-.57,1.9,0,2.88,1.89,3.18C491.59,45.59,502.29,49.33,513.64,48.27Zm63.59-208.15c.53-20.93-2.64-47.06-4.77-73.25-.22-2.63-.34-5.93-4.17-5.47-3.55.43-2.33,3.68-2.57,6a5.51,5.51,0,0,0,.08,1C570.1-192.88,571-154,570.45-115a27.71,27.71,0,0,0,.3,4.46,2.74,2.74,0,0,0,3,2.65,3.1,3.1,0,0,0,3.17-2.64,20.13,20.13,0,0,0,.27-4C577.23-127.84,577.23-141.15,577.23-159.88ZM567.11,174c-.35-4.73-.76-8.53-.89-12.34-.08-2.46-.92-3.9-3.33-4.86-8.18-3.26-16.5-6.1-24.84-8.92-3-1-4.24,0-5,2.74-1.15,4.16-2.44,8.28-3.81,12.37-.9,2.7-.07,4,2.73,4.49,5.88,1,11.71,2.38,17.6,3.35,3,.49,4.87,1.82,5.63,4.78.45,1.77,1.22,3.45,1.65,5.22.79,3.23,2.29,4.81,6,4,3.42-.73,4.86-2.25,4.32-5.79A29.88,29.88,0,0,1,567.11,174Zm-99.23,8.56c5.22.39,9.56-2.43,12-8,2.53-5.79,6.35-9.08,13.15-7.94,2.23.37,4.63-.31,7-.36,2.15-.05,3.12-.75,2.39-3.05-1.21-3.81-2.34-7.65-3.47-11.48-.56-1.89-1.55-3.07-3.62-2-7.71,3.79-16.13,5.17-24.32,7.34a4.31,4.31,0,0,0-3.57,3.67c-1.09,6.4-2.15,12.8-3.24,19.2C463.81,182,464.65,183,467.88,182.54Zm99.44-463.36c-.06-.49-.11-1-.17-1.48-2.73-21.42-5.08-42.92-14.12-62.92-1.24-2.75-1.81-7.47-5.66-6.18-4.57,1.52-1.49,5.67-.64,8.55,3.09,10.5,8.14,20.37,9.51,31.41,1.28,10.39,2.84,20.74,4.37,31.1.32,2.17,1,4.57,3.9,4.14C567-276.57,567.34-278.69,567.32-280.82ZM516.63,3c-10.4-2.08-18.7,3.06-27.09,7.9-1,.59-2.2,1.18-2.19,2.49,0,1.58,1.58,1.38,2.58,1.75,15.55,5.75,31.28,4.56,47.08,1.22,2.39-.51,2.81-1.26,1.27-3.22C533.38,6.89,528.54.66,519.12,3A10.88,10.88,0,0,1,516.63,3Zm-1.12,162.69c4.61,1.19,7-1.2,8-5.9a101,101,0,0,1,3.34-10.92c.92-2.66.57-3.92-2.49-5.05a19.76,19.76,0,0,0-16.28.79c-2.76,1.3-3.9,2.67-2.86,5.68a81.74,81.74,0,0,1,3.28,10.94C509.28,165.17,511.29,166.61,515.51,165.66Zm3.15,57.75v-.36c-3.65,0-7.31,0-11,0-1.95,0-5-.25-4,2.61s-2.26,8.17,4,8.42c7.46.3,14.93.36,22.39.76,3.47.19,4.92-1,4.58-4.51-.3-3.17.85-7.09-4.56-6.94C526.3,223.5,522.48,223.41,518.66,223.41ZM417.57,297.78c2.33-5.63,2.29-7.07,0-10.36ZM607.13,305c.41,3.06.83,6.11,1.26,9.17l.56-.07C608.58,311,610.56,307.51,607.13,305Z" transform="translate(-249.94 442.14)" fill="#ee7768"/><path d="M594.08,739.14c-1.59-4.2-.72-8-.75-11.73,0-2.22.22-4.45-2.16-5.65-2.13-1.08-3.77.19-5.5,1.28-7.32,4.63-14.73,9.12-22,13.83-2.29,1.47-4,1.38-6.35,0a42.38,42.38,0,0,1-15-15.07c-2.3-3.85-5.11-7.41-7.44-11.25a7.09,7.09,0,0,0-7-3.72c-4.82.19-9.66-.05-14.49.1-2.9.09-3.73-1.12-3.6-3.87q1.8-38.46,3.42-76.91c.12-2.85,1.25-3.74,4-3.61,9.84.49,19.63-.74,29.44-1.09,2.7-.1,6-.14,5.63-3.92-.32-3.33-3.39-3-5.94-2.88-9.32.4-18.64.69-27.95,1.18-3.34.18-4.79-.65-4.58-4.39,1.38-24.8.74-49.65,1.18-74.47.07-4,1-5.82,5.29-5.33,15.35,1.77,30-2.36,44.82-5.35,1.64-.32,3.3-.52,4.91-.92,2.22-.56,4.38-1.5,3.72-4.32s-2.92-2.87-5.22-2.41c-9.14,1.84-18.27,3.75-27.42,5.59-7.76,1.57-15.6.45-23.41.59-2.79,0-2.41-2.24-2.4-4,.06-8.16.17-16.33.25-24.49q.27-25.24.51-50.49c0-2.43-.13-5,3.45-4.58,16.65,2,31.74-4.58,47.3-8.58,3.87-1,7.73-2,11.56-3.18,2.19-.65,4.26-1.78,3.35-4.58s-3.1-2.62-5.37-2c-12.35,3.49-24.71,6.93-37,10.5-6.9,2-13.91.8-20.86.89-3.17.05-2.19-2.82-2.18-4.59.1-16.67.29-33.33.47-50,.11-10.33.36-20.67.27-31,0-3.72,1.21-5.08,4.92-4.78,7,.58,14-.55,20.9,1.07,1.71.4,3.24-.22,4.81-.89,10.71-4.6,21.45-9.14,32.19-13.7,2.46-1.05,5.69-2,4.32-5.45s-4.32-1.94-6.8-.89c-6.43,2.75-13.22,4.89-19.24,8.35-12.16,7-25.22,4.52-38.07,4.77-3.15.06-2.79-2.18-2.78-4.17q.13-13.25.29-26.49c.21-20,.53-40,.53-60,0-4.4,1.28-6,5.71-5.42,8,1,16.33-.86,24.26,1.9,1.32.46,2.58-.29,3.8-.87q13.08-6.25,26.18-12.45a15.47,15.47,0,0,0,2.22-1.14c1.79-1.24,3.07-2.85,1.83-5.05s-3.24-1.94-5.24-1l-20.68,10c-1.2.58-2.38,1.22-3.63,1.68-8,3-11.29.83-11.61-7.54,0-1.33-.09-2.67,0-4,.2-4-1.57-5.72-5.63-5.77-10.83-.13-21.65-.49-32.48-.76-5.05-.12-6.55,1.51-6.09,6.62.93,10.55.9,10.12-9.54,10.8-6.57.42-11.94-2.49-17.76-4.25-3.5-1.06-6.88-2.51-10.38-3.61-1.91-.6-3.73-.19-4.55,1.92s.55,3.69,2.3,4.33c8.9,3.29,17.68,7.9,26.89,9.08,6.89.87,14.47-.15,21.73-.47,4.78-.22,6.19,1.25,6.1,6.09-.51,28.49-.77,57-.94,85.48,0,3.6-1,4.62-4.74,4.92-13,1.06-24.62-2.53-35.84-8.6-5.41-2.93-11.13-5.28-16.72-7.88-2.08-1-4.38-1.65-5.69.87-1.45,2.8.52,4.25,2.83,5.34,11.57,5.52,23.49,10.31,34.76,16.47a7.42,7.42,0,0,0,3.89.6c5.49-.08,11,.12,16.47-.26,4.18-.29,4.95,1.45,4.89,5.21q-.64,40.49-.89,81c0,3.39-.92,4.44-4.46,4.64a54.54,54.54,0,0,1-29.38-6.07c-7.05-3.73-14.55-6.62-21.87-9.85-2.23-1-4.76-1.8-6,1.15s1.16,4.1,3.38,5.12c11.35,5.21,22.92,9.92,34.14,15.42,4.58,2.25,9.87.69,14.83.82,9.18.22,9.2.09,9.1,9.38-.25,23.16-.62,46.32-.69,69.48,0,4-1.3,5.15-5.16,5-6.15-.28-12.33-.13-18.49,0a10.23,10.23,0,0,1-5.14-1.65q-12.54-6.76-25.08-13.52c-2.23-1.2-4.93-2.82-6.6.07-1.87,3.27,1.21,4.66,3.54,5.93,9.51,5.17,19.06,10.28,28.57,15.47a8.19,8.19,0,0,0,5.74.91c6.44-1.2,13-.21,19.44-.5,3.06-.13,3,1.86,3,4-.11,9.66-.12,19.33-.27,29-.25,15.49-.66,31-.81,46.48,0,3.59-1.09,4.83-4.87,4.91-20,.46-37.05-6.46-51.35-20.24a12.21,12.21,0,0,0-8.4-3.68c-4.25-.17-5.95-1.81-5.42-6.58,1.46-13.08,2.3-26.22,3.38-39.34.24-3,.78-6-2-8.31-1.39-1.17-.9-3.11-.86-4.75q1.85-83,3.7-165.93a18.86,18.86,0,0,0-.37-4.44c-4-19.24-6.75-38.91-12.67-57.55-3.83-12-1.66-22.56.62-33.7,3.8-18.61,7.8-37.18,11.76-55.76.33-1.53.16-3.34,1.85-4.51,1.21,1.66.69,3.5.74,5.19.43,16.32.79,32.65,1.2,49a13.84,13.84,0,0,0,.52,3.92,3.14,3.14,0,0,0,6-.22,14.78,14.78,0,0,0,.26-3.94c-.49-20.49-.83-41-1.64-61.47-.29-7.39,2.47-13.55,6.1-21.37,1.33,9.72,7.14,6.9,12.48,6.92,8.56,0,14.06-3.53,17.27-11.27,1.5-3.64,4.37-4.76,8.34-4.92,16.85-.7,33.59-.86,50.12,3.47,3.56.93,5.39,2.39,6.51,5.77,3.8,11.49,2.07,11.73,15.11,8.58,1.3-.31,2.62-.49,3.94-.68,3.42-.47,4.89-2.41,4.69-5.84-.53-9-1-18-1.43-27-.12-2.91-1.49-4.47-4.11-5.55-16.35-6.72-33.31-11.62-50.23-16.63a7.15,7.15,0,0,0-4.87.2c-15.75,6.38-31.45,12.91-48.28,16.07a4.7,4.7,0,0,0-4,4.47c-.53,4.27,0,8.93-5.95,10.42-2.48.61-1.5,5-5.49,6.7,1.09-5.41,2-10,3-14.64q6.41-29.79,12.89-59.55c2.1-9.5.89-8.29,9.7-5.94,6,1.59,11.9,3.24,17.79,5.06a22.85,22.85,0,0,0,7.35.94,394.86,394.86,0,0,0,59.65-5.33c2.62-.45,4.73-.76,5.54,2.88,5.64,25.37,12.45,50.52,16.94,76.09,4.92,28,7.81,56.43,11.5,84.68,4,30.4,8,60.79,11.7,91.22,3.35,27.42,7.23,54.77,8.49,82.45,1.9,41.46.27,82.92.85,124.37.16,11.33-.17,22.67.1,34,.1,4.26-.72,5.82-5.43,5.35-11.27-1.1-22.6-1.59-33.91-2.33-6.06-.39-7.54,1.89-4.9,7.42,5.38,11.28,10.12,22.92,16.32,33.72,3.28,5.71,3.79,11.42,4.51,17.43,3.28,27.33,5.34,54.72,3.84,82.27C595.66,735,596.5,737.12,594.08,739.14Z" transform="translate(-249.94 442.14)" fill="#fefefe"/><path d="M314.77,48.94c0-12.49.14-25-.08-37.46-.07-3.74.49-5.13,4.62-4.05C326.08,9.19,333.1,10,339.8,12c8.05,2.37,16.1,2,24.23,1.37,2.48-.18,5.65-.15,5.5-3.59-.17-3.84-3.57-3.48-6.14-3.12-16.05,2.23-30.89-4-46.26-6.46-3.32-.54-3.29-3.26-2.83-5.42,1.14-5.34-.49-9.74-3.52-14-2.41-3.36-1.89-7.3-1.75-11.13.11-3.33.35-6.67.25-10-.12-3.6.94-6.59,3.8-8.78s3.47-4.88,3.37-8.34a176.44,176.44,0,0,1,5.88-52.37c7.33-26.83,13.54-54,20-81,1.12-4.7,3.42-8,8-9.16,3.46-.83,8.94,3.8,10.59,8.31q18.31,50.25,36.64,100.49a37.55,37.55,0,0,1,2.32,11.7c1.19,35.14,2.51,70.27,3.44,105.41.13,5.23,2.48,9.21,4.57,13.49,1.4,2.88,2.8,5.61,1.49,9-.4,1-.06,2.31-.05,3.47.46,87,.41,174,1.78,260.93.3,18.69-5.55,35.52-9.13,53.06-4.86,23.82-11,47.38-16.5,71.07A16.1,16.1,0,0,1,381,445c-14.82,14.63-29.56,29.35-44.37,44-1.1,1.09-2.15,3.24-3.88,2.48s-.88-3-.94-4.59c-.6-15.65-1-31.31-1.76-46.95-.19-3.91.84-5,4.68-4.44,4.93.76,10,.76,14.89,1.66,3.57.66,6.56-.52,9.66-1.64,1.73-.62,2.92-2,2.52-3.83a3.22,3.22,0,0,0-4.29-2.42c-8,2.16-15.88-.31-23.81-.58-3.28-.11-4.1-1.62-4.19-4.68-.57-19.32-1.22-38.64-2.08-57.94-.17-3.89.85-5.13,4.7-4.33,3.42.71,7.06.52,10.37,1.52,6.87,2.09,12.7-.77,18.68-3.15,1.94-.77,3.73-2.12,2.8-4.54-1-2.63-3.44-2.73-5.46-1.61-9.37,5.19-18.89,1.62-28.38.77-2.54-.22-3.22-1.7-3.29-4q-1.11-34.23-2.4-68.44c-.14-3.45,1-4.38,4.31-3.86,5.93.94,12,1.15,17.82,2.41s11.6-.13,17.38-.18c2.32,0,4.57-.94,4.37-3.71s-2.61-3.3-4.88-3c-11.76,1.51-23.22-1.07-34.8-2.27-3.45-.36-4.78-1.52-4.88-5.2q-1-35.73-2.48-71.44c-.15-3.74.75-4.88,4.68-4.59,11.94.9,23.81,3,35.86,2.32,2.65-.15,6,.27,5.75-3.67-.21-3.43-3.28-3.15-5.8-3.1-12.53.3-24.92-1.49-37.37-2.38-2.81-.2-3.6-1.48-3.69-4.11Q319.49,141.24,318,103c-.15-3.63,1.26-3.89,4.12-3,4.78,1.46,9.83,2.27,14.35,4.27,8.55,3.79,17.16,2.94,25.92,1.69,2.45-.35,5-.89,4.6-4s-3.16-3.27-5.52-2.7c-15,3.61-28-3.81-41.83-7-2.65-.61-2-2.74-2.05-4.43-.05-13,0-26,0-39Z" transform="translate(-249.94 442.14)" fill="#fefefe"/><path d="M637.14,385.28q.6-10.74,1.2-21.46c.34-6,.35-6,6.35-4.16,1.91.6,3.79,1.29,5.73,1.78s4.2.6,5-1.86-.71-3.73-2.84-4.49c-.47-.17-.94-.32-1.42-.48-11.79-4-11.78-4-12-16.73-.41-19-.74-38-1.32-57-.12-4.06,1-5.09,4.8-3.65,3.11,1.17,6.37,2,9.56,2.88,2.23.66,4.53.89,5.39-1.85s-1.11-3.95-3.34-4.63c-4.14-1.26-8.28-2.56-12.48-3.59-2.9-.71-4.05-2.09-3.94-5.21q1.37-37,2.41-73.93c.1-3.59,1.27-4.41,4.5-3.07,2.92,1.21,5.94,2.21,8.94,3.2,2.14.69,4.53,1.17,5.54-1.53s-1-3.94-3.17-4.74c-3.74-1.4-7.49-2.82-11.31-4-3-.9-4.24-2.38-4.17-5.7q.76-37,1.14-74c.05-3.65,1.22-4,4.08-2.33a64.33,64.33,0,0,0,6.67,3.4c1.63.71,3.41.63,4.43-1.07,1.19-2,.23-3.68-1.47-4.69-3.29-2-6.66-3.78-10.13-5.41-2.6-1.22-3.56-3-3.62-5.85-.58-27.48-1.2-55-2-82.44-.14-4.72,1.29-5.33,5.36-3.93,4.55,1.57,9.29,2.62,14,3.9,2.24.62,4.63.84,5.45-1.82.91-3-1.3-4.12-3.76-4.78-5-1.33-9.93-2.93-15-3.94-4.2-.83-5.59-2.54-5.22-7.08,3.62-44.33,7.74-88.65,10-133,1-19.59,10.67-35.94,15.37-54,.77-2.94,3.47-4.23,6.33-3.72,3.64.65,7.49.9,8.65,6,3.52,15.25,7.45,30.42,11.21,45.62,4.79,19.4,9.48,38.83,14.41,58.21,2.83,11.12,3.12,22.38,2.54,33.72-.09,1.88-.27,3.73.69,5.36,5.66,9.6,4.14,20.36,5,30.73.28,3.45-2.14,5.87-4.09,8.32a7.63,7.63,0,0,0-1.62,7.32c1.43,5.89.31,11.94.08,17.91q-5.84,153.32-11.8,306.64Q694.08,394,691,473.93a4.73,4.73,0,0,1,0,1c-.38,1.5.66,3.74-1.31,4.35-1.59.49-2.4-1.5-3.35-2.56-10.66-11.7-21-23.7-32-35.09C646,433,642,422,636.77,411.63c-1-1.94-.84-4.2-.71-6.39C636.45,398.59,636.79,391.93,637.14,385.28Z" transform="translate(-249.94 442.14)" fill="#fefefe"/><path d="M430.78,347.53c2,8.68,3.91,16.85,3.7,25.49q-2,82.91-3.69,165.82c-.06,2.68-.36,5.29,1.94,7.41,1.2,1.11.79,2.81.67,4.29-1,12.12-2.13,24.22-2.91,36.35-.26,4-2.69,3.94-5.41,4.1l-52.36,3.11-83.28,5c-5.83.34-5.35.39-4.77-5.47,1.3-12.94,7.41-22.38,17.06-31.26,34.68-31.89,68.56-64.66,102.76-97.08a9.13,9.13,0,0,0,2.6-5.22q10.64-53.89,21.41-107.78C428.8,350.74,428.45,348.86,430.78,347.53Z" transform="translate(-249.94 442.14)" fill="#fefefe"/><path d="M618.07,443a1.47,1.47,0,0,1,2,.83c6.31,12.9,17.37,21.74,27.22,31.57q48.81,48.7,97.84,97.17a11.06,11.06,0,0,1,3.74,8.3c0,5.66.18,11.33.64,17,.31,3.84-.72,5.44-4.87,5.15-15.78-1.07-31.58-1.84-47.37-2.84-24.93-1.57-49.85-3.28-74.78-4.82-3-.19-4.82-.53-4.81-4.37q.23-72.71.19-145.4A25.07,25.07,0,0,1,618.07,443Z" transform="translate(-249.94 442.14)" fill="#fefefe"/><path d="M620.69,394c5.09,13,13.52,24.34,17.19,38a9.94,9.94,0,0,0,2.5,4.23C657.51,455,674.46,474,691.52,492.9q21.06,23.36,42.39,46.5c6.88,7.47,14.14,14.67,20.34,22.67,8.52,11,12.5,24.18,15.49,37.52,1,4.24-2.28,8.23-3.86,12.22-2,5-4.23,9.78-4,15.32.23,4.53-2,5.89-6.47,5.87-24.15-.1-48.29-1.11-72.42-1.16-26.82-.06-53.62-1.38-80.43-.85-6.7.13-10.83-1.59-13.28-8.23-2.51-6.85-6.11-13.31-9.33-19.89-1.43-2.9-.7-3.88,2.5-3.66q47.57,3.25,95.16,6.41c21.92,1.47,43.85,3,65.78,4.31,2.78.17,5.62-.51,8.43-.69,3.11-.19,4.5-1.85,4.39-4.86q-.51-14.73-1-29.46a6.2,6.2,0,0,0-2.27-4.26Q694,512.27,635.18,453.78c-5.71-5.69-9.26-13-13.18-19.94-1.88-3.32-1.18-7.19-1.44-10.81-.7-9.52-1.13-19.07-1.66-28.61Z" transform="translate(-249.94 442.14)" fill="#252f42"/><path d="M502.5,705.69c-.29-4-.29-7.42-.88-10.73-.31-1.77-.8-4.19-3.48-4.15s-3.63,1.9-4,4.26c-.56,3.45-1.49,6.87-1.72,10.34-.64,9.9-5.83,17.46-12.07,24.57a7.33,7.33,0,0,1-4.54,2.81c-5.77.81-11.54,1.63-17.32,2.37-2.23.28-4.23-.57-6.19-1.58-4.29-2.22-8.69-4.23-12.9-6.58-3.53-2-6.87-3.89-10.49,1.14-.67-3.85.27-6.35.75-8.85Q440,665.85,450.41,612.41c1.16-6,1.19-6,5.74-2.32a12.55,12.55,0,0,0,3,1.64c4.17,1.67,8.51,3,12.53,4.95,9.63,4.69,19.59,7.24,30.35,5.87,3.35-.43,4.71.59,4.52,4.31-1.22,24.28-2.22,48.57-3.33,72.86C503.18,701.5,502.82,703.27,502.5,705.69Z" transform="translate(-249.94 442.14)" fill="#fefefe"/><path d="M356.37,628.31c-29.56-1.29-62.49-2.75-95.43-4.11-2.78-.12-3.88-1.22-3.82-3.93.29-14.08-3.11-12.47,11.71-13.36,48-2.87,96-5.86,144.06-8.63,7.95-.46,15.93-1.52,23.92-.48a32.42,32.42,0,0,1,6.34,1.29c2.65.9,4.57,1.38,1.7,5.25-3.9,5.27-6.25,11.72-9.09,17.74-1.27,2.7-2.93,4-6.09,4.1C406.37,626.76,383.06,627.51,356.37,628.31Z" transform="translate(-249.94 442.14)" fill="#252f42"/><path d="M422.56,309.59c2.61,9.71,4.17,17.82,2.29,26.77-8.18,39.09-15.8,78.3-23.53,117.49a18.23,18.23,0,0,1-5.61,10.25q-55.15,52.2-110.25,104.48a12.54,12.54,0,0,0-4,7.19c-1.24,6.71-2.81,13.36-4.07,20.06-.51,2.7-1.65,4.19-4.54,4.23-4.16.07-8.33.2-12.48.5-3.06.22-4.2-1.48-3.47-3.92,3.42-11.37,5.1-23.65,14-32.54,34.61-34.65,68.95-69.59,104.35-103.43a68.27,68.27,0,0,0,20.67-37.11c7.88-36.95,17-73.62,25.71-110.4C421.81,312.36,422,311.57,422.56,309.59Z" transform="translate(-249.94 442.14)" fill="#252f42"/><path d="M511.83,91.45c-13.23,3-26.09-3.07-39.39-6.41-2.33-.59-3.35-1.68-2.75-4.26,2.15-9.23,4.2-18.48,6.21-27.74.49-2.24,1.54-3.11,3.84-2.54,1.93.47,4,.54,5.87,1.12,17,5.3,34.19,3.07,51.38,1.75,4.81-.36,9.64-.5,14.43-1.07,3.15-.38,4.42.68,5.06,3.76,1.79,8.63,3.74,17.23,5.94,25.76.88,3.41.18,4.7-3.4,5.14C543.68,88.86,528.45,91.74,511.83,91.45Z" transform="translate(-249.94 442.14)" fill="#fefefe"/><path d="M513.63,48.27c-11.34,1.06-22-2.68-33-4.45-1.9-.3-2.46-1.28-1.89-3.18,1.66-5.58,3.26-11.18,4.76-16.81.67-2.5,2-3.21,4.39-2.39,1.73.58,3.63.7,5.32,1.35,13.48,5.24,27,3.32,40.67.76,9.41-1.76,9.45-1.66,13.43,7.1,1.66,3.64,3.11,7.37,4.81,11,1.35,2.89.89,4.12-2.6,4.3C537.55,46.58,525.6,47.48,513.63,48.27Z" transform="translate(-249.94 442.14)" fill="#252f42"/><path d="M577.23-159.88c0,18.73,0,32,0,45.35a20.13,20.13,0,0,1-.27,4,3.1,3.1,0,0,1-3.17,2.64,2.74,2.74,0,0,1-3-2.65,27.71,27.71,0,0,1-.3-4.46c.54-39-.35-77.85-4.65-116.62a5.51,5.51,0,0,1-.08-1c.24-2.28-1-5.53,2.57-6,3.83-.46,4,2.84,4.17,5.47C574.59-206.94,577.76-180.81,577.23-159.88Z" transform="translate(-249.94 442.14)" fill="#fefefe"/><path d="M567.11,174a29.88,29.88,0,0,0,0,5.06c.54,3.54-.9,5.06-4.32,5.79-3.71.79-5.21-.79-6-4-.43-1.77-1.2-3.45-1.65-5.22-.76-3-2.64-4.29-5.63-4.78-5.89-1-11.72-2.32-17.6-3.35-2.8-.5-3.63-1.79-2.73-4.49,1.37-4.09,2.66-8.21,3.81-12.37.77-2.78,2-3.76,5-2.74,8.34,2.82,16.66,5.66,24.84,8.92,2.41,1,3.25,2.4,3.33,4.86C566.35,165.45,566.76,169.25,567.11,174Z" transform="translate(-249.94 442.14)" fill="#252f42"/><path d="M467.88,182.54c-3.23.46-4.07-.53-3.7-2.72,1.09-6.4,2.15-12.8,3.24-19.2A4.31,4.31,0,0,1,471,157c8.19-2.17,16.61-3.55,24.32-7.34,2.07-1,3.06.16,3.62,2,1.13,3.83,2.26,7.67,3.47,11.48.73,2.3-.24,3-2.39,3.05-2.33.05-4.73.73-7,.36-6.8-1.14-10.62,2.15-13.15,7.94C477.44,180.11,473.1,182.93,467.88,182.54Z" transform="translate(-249.94 442.14)" fill="#252f42"/><path d="M567.32-280.82c0,2.13-.37,4.25-2.81,4.62-2.93.43-3.58-2-3.9-4.14-1.53-10.36-3.09-20.71-4.37-31.1-1.37-11-6.42-20.91-9.51-31.41-.85-2.88-3.93-7,.64-8.55,3.85-1.29,4.42,3.43,5.66,6.18,9,20,11.39,41.5,14.12,62.92C567.21-281.81,567.26-281.31,567.32-280.82Z" transform="translate(-249.94 442.14)" fill="#fefefe"/><path d="M516.63,3a10.88,10.88,0,0,0,2.49,0c9.42-2.29,14.26,3.94,19.16,10.16,1.54,2,1.12,2.71-1.27,3.22-15.8,3.34-31.53,4.53-47.08-1.22-1-.37-2.56-.17-2.58-1.75,0-1.31,1.18-1.9,2.19-2.49C497.93,6,506.23.89,516.63,3Z" transform="translate(-249.94 442.14)" fill="#fefefe"/><path d="M515.51,165.66c-4.22,1-6.23-.49-7-4.46a81.74,81.74,0,0,0-3.28-10.94c-1-3,.1-4.38,2.86-5.68a19.76,19.76,0,0,1,16.28-.79c3.06,1.13,3.41,2.39,2.49,5.05a101,101,0,0,0-3.34,10.92C522.48,164.46,520.12,166.85,515.51,165.66Z" transform="translate(-249.94 442.14)" fill="#252f42"/><path d="M518.66,223.41c3.82,0,7.64.09,11.45,0,5.41-.15,4.26,3.77,4.56,6.94.34,3.53-1.11,4.7-4.58,4.51-7.46-.4-14.93-.46-22.39-.76-6.28-.25-3.08-5.55-4-8.42s2.07-2.6,4-2.61c3.65,0,7.31,0,11,0Z" transform="translate(-249.94 442.14)" fill="#252f42"/><path d="M417.57,297.78V287.42C419.86,290.71,419.9,292.15,417.57,297.78Z" transform="translate(-249.94 442.14)" fill="#fefefe"/><path d="M607.13,305c3.43,2.53,1.45,6,1.82,9.1l-.56.07C608,311.09,607.54,308,607.13,305Z" transform="translate(-249.94 442.14)" fill="#fefefe"/><path d="M423.5,705.37c.34-.52.68-1.15,1.41-.56s.25,1.12-.06,1.66Z" transform="translate(-249.94 442.14)" fill="#fefefe"/></svg>