<svg xmlns="http://www.w3.org/2000/svg" viewBox="0 0 466.58 1017.68"><rect x="67.25" y="946.12" width="326.1" height="71.56" fill="#fff"/><polygon points="393.34 946.12 60.01 946.12 56.82 328.3 393.34 331.61 393.34 946.12" fill="#fff"/><polygon points="136.31 331.61 56.82 328.3 97.8 228.07 136.31 331.61" fill="#fff"/><polygon points="390.89 328.3 315.68 328.3 350.4 220.39 390.89 328.3" fill="#fff"/><polygon points="243.71 35.78 199.29 34.43 154.41 140.12 139.7 329.24 310.5 333.51 299.15 195.82 282.45 112.13 243.71 35.78" fill="#fff"/><polygon points="67.25 813.23 12.03 868.53 1 897.28 1 946.12 67.25 946.12 67.25 813.23" fill="#fff"/><polygon points="420.67 830.68 393.34 799.27 393.34 946.12 465.34 931.09 463.19 891.56 459.34 866.09 420.67 830.68" fill="#fff"/><path d="M545.58,97.92c-.27,3.5,4,10.42,1.09,12.22-.8,0-1.55.32-1.37,1.32.85,1.94,3.9.58,3.82,3.57,3.53,5.16.25,24.61,5.86,23.21-1.49,45.34,10.68,102,4.53,150.38-2.28-25.41,0-51.29-1.2-76.87.78-12.23-5.59-59.28-3.36-28.38,4.19,34.06,1.15,68.31,2.15,102.5,0,2.69-.93,3.17-3.32,3.43-42.27,3.18-86.3,5.21-127.82-3.26C443.61,175.82,419,129.76,502.69,24.66c2.39-2,2.57-14.4,4.86-9.69,1,14.64,17.29,23.4,21.5,37.26,1.67,2.62.39,2.69-1.2,4.77,7.73,1.84,7.58,15.81,11.66,22.93,2.62,3.52-3.78,2.88-1.3,4.69,6.63.93,4,9.33,7.45,13.42Zm-95.23,54.4c-19,35.23-6.93,78.94-12.49,117-5,25.47,18,18.26,35.2,19.39,5.35-1.32-1.19-17.26,1.77-23.32.15-.54.5-1.24-.29-1.64-3.24-1.58,1.6-2.91.55-4.6-6.77-30.92,12.29-77.55-12.76-99.43-3.7,1.4-6.36-8.17-7.93-4.74,1.31,1.94-1.83,1.92-2.34.5C451.62,154.49,451.7,153.25,450.35,152.32Zm90,111.05c7.68-1-1.15,24.54,4.64,25.15,13.2,2.41,10-7.46,10-16.92.69-46.52.25-93.18-9.55-138.85.14-2.81-3.47-3-2.9-.05-3.71,28.81-1.54,57-.46,86-1.74,4.42,3.07,2-.31,8.6,4.27,3-1,10.16,1.44,13.37,3,4.4-1.57,12.36-1.07,17.06C545.13,260.62,542.27,261.46,540.31,263.37Zm13.1-95.82c2.23-7.05-2.38-18.9-4-27.24Q551.41,153.93,553.41,167.55ZM459.6,153.1c-.07,1.9-1.6,3.27-.07,4.83C461.48,158.81,462.16,154.4,459.6,153.1Z" transform="translate(-285.66 -13.91)" fill="#ee7768"/><path d="M404.73,399.63c-4.91-2.79,4.3-30.85-1.48-31.91-4.05-1.07-14.61,3.57-14.26-2.89,0-5.16.33-6.26-5.25-6.08-4.09.7-12.85-2.77-11.33,4.23,0,5.24-.52,5.61-5.78,4.55-5.12-1.58-.44-7.92-3.85-12.06,12.76-2.24,34.08,5.13,41.82-4.49-2.48-30.15-16.28-58.74-19.91-89.1-.38-6.47-7.48-29.81,2.27-15.81,14.51,31.38,25.9,69.25,35,99.45,6.72-12.95.36-34.4,2.48-51.14,1.09,3.1,0,5.67,1.47,8.13,2.91-3.34-2.39-10.51,4.72-8.62,15.47,4,1.13,103.65,9.27,123.16-.5-40.27-1-80.53-1.49-121.08,4.12,39.77,1.31,81.32,3.35,121.68-.92,4.92-8.57.08-12,.47-5.39,21.19-4.31-46.81-4.84-52.09-12.43,32-1.89,70.34-4.85,104.7q1,79.18,2.13,158.34c-1.49,53.85,14,114.41-28.86,156.73,5.17-46.76,5.26-92.8,6.49-139.09-15.17,0-31.15,1.2-46.51-4,15.91,3.14,31.85,2.84,48.87.42-6.86-1.73-.38-9-2.28-14,1.76-20-5.84-47.33,3.19-64-1.71-2.62-7.41-.18-3.78-5.65,3.05-21.68-6.82-52.31,3.23-70.84-17.66,1.24-35.07.66-52.26-3.29a189,189,0,0,0,52.72-.42c-11.32-.81-.89-4.86-4.06-12.57,2.18-21.64-1.44-49.07,8.11-67.54-14.16-3.32-29.38.93-44-1.66C375.35,398.87,391.47,403,404.73,399.63Zm30.73,17c2.77-36.95-1.19-80.41-.62-119.51C432.5,334.5,435.91,377.43,435.46,416.64Zm-3.28-66.85c-.13-17.81.74-35.7-.91-53.54C432.08,314.07,431.93,331.9,432.18,349.79Zm.8,28.36c-.28,9.09-.28,19.61,0,28.7Z" transform="translate(-285.66 -13.91)" fill="#ee7768"/><path d="M585,418.36c-3-39.05,5.5-90-3-123.37,14.09-9.13,7.54,10.53,8.91,19,1.25-3.71,0-10,.44-14.55,4.68,6-1.52,55.66,9,41.66,2.92-37,22-70.41,31.74-106,7.89-7.66-2.63,43.76-2.56,49.95-3.25,26.33-13.63,50.18-11.62,76.71,2,9.07-2,27.33,4.35,32.84l-3.55,1.56c14.58,1.81,28.34,1,42.1.85-15.18,3.61-34.44-.06-47.86,5.34,6.22,1.88,6.1,1.87,6,8.82,4.48,21.3-1.19,45.18,2.26,65.78,2.68,4.84-6,2.48-8.46,3.27,18.61,3.39,37.25,2.32,55.9.7a225.35,225.35,0,0,1-53.18,3.31c12.16,14-2.15,53.39,5.5,72.24,1.88,3.5-3.36,3.33-6,4.43,11.3,9.22,2.18,37.65,6.88,52.42-5.35,6.83,3.27,18.44-2.11,26.1a170.92,170.92,0,0,0,44.57-.09c-17.23,8.42-49.53-7.7-42.15,18.79a957.64,957.64,0,0,0,7.06,101.07c-37.78-59.5-28.16-133.06-29.21-200.29-3.43-63.94,8.55-131.36-4.8-193.37-1.33,18.24.21,36.5-1.1,54.95C593,414.19,590.2,416.88,585,418.36Zm2.22-123.22c-3,36.89-.19,80.83,0,120Zm2,118.81c.73-15.22.74-33.54,0-48.54Zm.1-118.68a251.58,251.58,0,0,0,0,38.92Z" transform="translate(-285.66 -13.91)" fill="#ee7768"/><path d="M481.89,412.07l-1.82,2.45c-1.35-38.3.13-78.92-2.6-115.64-1,40,.59,80.24.69,120.32-6.42,17.27-2.16-44.69-3.49-49.91,2.65-14.73-7.28-67.6,3.59-72.22,21.25-.22,42.49.17,63.72-.72,2.33-.1,2.93.28,2.95,3,2.84,23.73-4.47,59.09,4,78.14,9.39-2.39,4.29,25.26,4.8,32.26-5.34-8.76-.82-18.8-4.27-27.61-.27,15.71,1.2,22.17-8.1,3.45.81,5.32,7.06,12.67,4.63,17-5.87-2.84-4.22-14.69-9.21-20.08.41,5.91,9.37,21.25-1,20.73-7.59,0,1.88,11.46-7.83,9.19-42.74,4-1.5-11.19-42.75-8.17-.95-34.64.34-71.36-1.71-104.72-1.67,37.41,3.82,75.84-1.66,112.7ZM529,298.46c-1.2,10.38,3.89,77.61-4.89,55.61-1-10.53,2.1-33.72-1.11-38.05-.78,14.33,2.3,31.61-1.2,44,0,3.36,2.94,6.78-.25,10.07,27.59,9.33,9.43-52.78,14.32-71.85-4,19.28,1,47.1-.72,69.62C522.54,348.67,534.68,320.39,529,298.46Zm12.48-.9c-4.17,18.21.25,40-.93,59.47,1.72,8.75-2.75,18.48,1.56,25.89C543.81,354.36,542,326.33,541.43,297.56Zm-32.62,49.87c-1.19,17.94,1.63,6.36-9.24,21.34-1.49,3.38,6.89,1.34,8.92,1.36,1.55-1.23.69-5,2.23-7,.39-1,.89-2.11-.31-2.61C506.92,357.53,509.6,351.59,508.81,347.43Zm-18.3,42.39c.58-28.7-.69-57.44-.23-86.17C489.44,332.38,489.41,361.1,490.51,389.82Zm5.24-31.59c.47-14.16.48-30.21,0-44.2Q495.75,336.13,495.75,358.23Zm22-42.64a346.46,346.46,0,0,0,0,40.25Q517.72,335.71,517.71,315.59Zm-19,34.21c.43-9.52.43-21.1,0-30.59Zm9-32.1a93.7,93.7,0,0,0,0-17.08Zm-5.66-5.23-.2-.16C501.74,328.78,502.15,329.15,502.05,312.47Zm8.81-11.6v15.24A70,70,0,0,0,510.86,300.87ZM505,304a126.29,126.29,0,0,0,0,14.43Zm9.57,51.42a103.51,103.51,0,0,0,0-13.18Zm10.93-56.26a38.09,38.09,0,0,0,0,12.87Z" transform="translate(-285.66 -13.91)" fill="#ee7768"/><path d="M467.44,431c-6.83,1.39-22.3-6.26-24.34,2,.37,14.32.81,28.64,1,42.95-.78,39.82,1.43,79.52.2,119.28,2.62,29.77,11.2-62.06,16.84-74.43-6.07,55.05-16.52,109.41-26.88,163.74-.09,3.76-1.66,1.23-3.38.16q-1.43-128-2.35-256c0-4.16.22-4.31,4.24-3.47C443.56,429,457.67,426.52,467.44,431ZM434,672.91a257.35,257.35,0,0,0,6.92-37.85Q437.42,654,434,672.91Zm11.5-63.07c-1,4.41-2.48,8.79-2.38,14.27C444.29,618.88,445.46,614.49,445.47,609.84Z" transform="translate(-285.66 -13.91)" fill="#ee7768"/><path d="M439.7,706.38c3.7,108.2-111.27,129-136.52,217.87,44.78,7.22,100.3,2.6,148.45.72,7.27-1.44.75,5.83.44,9.24-1.9,5.76-1.88,5.62-7.76,5.64-45.85.16-91.67.73-137.49,1.35-18.56.91-1.17-25.71-.42-36-14,13.77-8.17-3.34-2.7-10.85,14-18.69,34.5-39,49.07-52.14,8.54,1.27-10.75,12.49-11.25,17.64,52.9-52.94,91-73.11,98.18-153.46Z" transform="translate(-285.66 -13.91)" fill="#ee7768"/><path d="M617.67,771.82c28,36.44,67.48,62.77,99.19,96.21,19.08,11.67,17.14,57.55,34.22,53.23-26,16.24-62.43,8.26-93.74,11.66-18.33-1.19-41.25,6.8-57.42,1.32.21-3.34-6.89-12-1-11.68,38.88.24,77.62-2.55,116.36-5.48,5.86-2.22,22.11,2.08,22-5.55-14.85-63.15-88.95-86.64-119.52-139.77Z" transform="translate(-285.66 -13.91)" fill="#ee7768"/><path d="M569.53,429.21c4.86-4.07,13.53-2.11,19.56-5.24,3.19-1.06,3.79.09,3.79,3.08-.78,67.13,1.41,134.77-.57,201.65-13-58.58-12.85-117.65-12-177.33C579.09,441.65,585.83,423.22,569.53,429.21Z" transform="translate(-285.66 -13.91)" fill="#ee7768"/><path d="M484.09,486.19c-5.82-2.8,1.84-5.06,4.47-6.1,23.39-12.66,48.89-14.27,71.14,2-5,.47-13.05-8.28-14.05.3-2.49,5.55,3.16,6.55,4.32,10.63-3.23,1.15-4-6-7.19-1.23-2.24,2.8-10.11-3.15-11.55,2.11-4.06-4.52-10.88-2.32-14.79-.09-3.4-5.29-9.55,2.26-12.53-2.49-10.29,1.67-4.24,13.29-20-5.23,14.73,14.13,24-.05,12.45-6.25C493.08,482.17,483.75,481.54,484.09,486.19Zm43.58-13.95c.21,8.05,13.82,21.27,14.9,7.7C543.51,473.92,532.64,474.18,527.67,472.24Zm-17.39,2.88c4.31,1.5-.86,6.51,3.14,8,1.76.52,2.08-1.17,2.47-2.51C518.34,473.82,516.36,474.44,510.28,475.12Z" transform="translate(-285.66 -13.91)" fill="#ee7768"/><path d="M557.68,909.89c-23.15,1.37-46.32,2.07-69.76,0,11.19-2.25,29.8,4.59,36.94-2.76,1.15-14.47-24.58-3.6-33.1-8.07,9.83-2.91,36.06,8.16,33-9.7-.19-23.25-.46-46.49-.54-69.73-6.07-8.62-25.8-.73-36.43-5.06,10.27-2.07,31.82,6.46,36.39-3.51-.2-27.87-.21-55.75-.28-83.62.86-10.15-26.22-3.2-34-5.84,51.86,3.85,29.4-6.89,33.66-48.56C521,629.51,536.06,633,488.86,630.27c11.07-2.24,37.37,9.14,34.42-9.56-.15-25.88-.35-51.75-.34-77.62-2.16-10-20.15-1.69-28.17-5.87q28.38.38,56.76,0c-7.73,4.14-24.87-3.54-27.33,5.57q.36,42.74.42,85.47c3.83,6.52,21.44.88,25.84,2.68-4.07,2.64-23.52-3.38-25.8,4.61q.21,41.44.13,82.87c3.19,7.91,18.17,0,25.57,3-7.23,2.43-24.06-3.84-25.58,5.32.17,27.87.15,55.75.2,83.62-.38,10.07,17.49,2.9,24.32,4.65-6.92,2.09-21.09-2.73-24.2,4.08q.36,38.43.52,76.87c2.82,7.14,16.79,1.28,23.54,3.11-6.5,2.24-21.5-3.16-23.19,4.7C523.73,915.87,549.49,907.65,557.68,909.89Z" transform="translate(-285.66 -13.91)" fill="#ee7768"/><path d="M545.66,98c-1.14-15.56-11.95-29.62-13.19-44.32,21.08,34.93,42.9,76.8,44.77,116.68-6.77-15.06-7.81-40-20.12-51.86C548.81,120.19,550.38,102.82,545.66,98Z" transform="translate(-285.66 -13.91)" fill="#ee7768"/><path d="M470.26,460.27c3.76-16.06,7.11-32.5,11.64-48.21l-.08.15c8.76-15-7.4,20.1-1.39,21.43,41.67-1.12,17.35,1.7,29.34-15.45C544.71,417,526,415,536.31,431.9c1.36-.15,3,.31,4.07-.26,2.66-1.39,3.51,2.93,6,1.6-16.18,6-45.09,4.76-62.87,2.12-1.11,3.73-6.83-.52-7.56,4.75C474.61,444.68,472.51,464.45,470.26,460.27Zm50.56-32.2c-2.86.36-15.22-.07-8.85,4.7C520.82,434.6,543.13,429,520.82,428.07Z" transform="translate(-285.66 -13.91)" fill="#ee7768"/><path d="M582.65,215.33c1.81,4.4,12.3,98-.08,61.15.39-13.69,1.85-27.74,1.58-41.3C579.08,230.84,581.61,221.67,582.65,215.33Z" transform="translate(-285.66 -13.91)" fill="#ee7768"/><path d="M582,576.8c4.47,36.59,11.92,72.67,19.29,108.76C588.71,650.38,586.32,613.42,582,576.8Z" transform="translate(-285.66 -13.91)" fill="#ee7768"/><path d="M470.5,298.41c-2.32,40.27,5.1,85.73-1.15,123.55C470.89,383.13,466.2,335,470.5,298.41Z" transform="translate(-285.66 -13.91)" fill="#ee7768"/><path d="M425.27,986.84c-7.71,6.11-35.85,12-35.68,8.23-10.51-1.57-21.32-1.74-31-7.09C381,994.29,403.07,992.45,425.27,986.84Z" transform="translate(-285.66 -13.91)" fill="#ee7768"/><path d="M531.35,521.48c6.23-1.58,5.8,4.11,6.64,8.88.08,2.72-.76,3.58-3.58,3.59-9.38,0-9.26.14-9.34-9.25C524.56,520.21,528.53,521.57,531.35,521.48Z" transform="translate(-285.66 -13.91)" fill="#ee7768"/><path d="M520.86,527.73c0,5.67.39,6.81-5.93,5.7-8.95,1.83-9.45-14.77-.93-12.63C520.92,520.8,520.92,520.8,520.86,527.73Z" transform="translate(-285.66 -13.91)" fill="#ee7768"/><path d="M662,985.12c-15.82,4.62-38.27,11-51.83.31C626.65,986.53,644.91,989.11,662,985.12Z" transform="translate(-285.66 -13.91)" fill="#ee7768"/><path d="M585,418.28c-6.77-34.45-2.21-81.8-1.78-120.18C584.42,337.81,581.1,379.49,585,418.28Z" transform="translate(-285.66 -13.91)" fill="#ee7768"/><path d="M423.78,1007.65c-10.94,9-50.89,9.85-62.19,1.76C384.75,1014,393.64,1013.75,423.78,1007.65Z" transform="translate(-285.66 -13.91)" fill="#ee7768"/><path d="M464.9,420c.27-39.9-2.45-82.72-.72-121.2C463.61,338.41,467.81,382.68,464.9,420Z" transform="translate(-285.66 -13.91)" fill="#ee7768"/><path d="M362.19,971.6c14.51,4.39,29.89,1.49,45.43,5.93C389.08,980.09,379.83,977.33,362.19,971.6Z" transform="translate(-285.66 -13.91)" fill="#ee7768"/><path d="M557.21,297.22v85.83C556.19,380.73,555.37,307.07,557.21,297.22Z" transform="translate(-285.66 -13.91)" fill="#ee7768"/><path d="M470.26,460.27c-1.82,8-1.16-23.1-1.29-27.86-1.51-4,4.32-3.42,6.64-2.29.9.64-.3,3.56-1.65,2.56C468.3,430.57,473.49,455,470.26,460.27Z" transform="translate(-285.66 -13.91)" fill="#ee7768"/><path d="M561.74,439.63c-3.23-15.39.18-32.25-1.06-48.17C563.74,404.75,560.7,424.26,561.74,439.63Z" transform="translate(-285.66 -13.91)" fill="#ee7768"/><path d="M658,1005.63c-11.74,4.49-37.76,4.83-45.9-.2C627.05,1007.49,642,1008.12,658,1005.63Z" transform="translate(-285.66 -13.91)" fill="#ee7768"/><path d="M352.71,361.08c-.57,1.22,1.57,4.43-1.55,4.72-3,1.77-4.12-12.72-1.15-11.41C353.75,354.47,352.52,358.12,352.71,361.08Z" transform="translate(-285.66 -13.91)" fill="#ee7768"/><path d="M663.38,967.36c-10.29,3.66-21.18,4.56-31.77,6.81C641.83,970.16,652.71,969.27,663.38,967.36Z" transform="translate(-285.66 -13.91)" fill="#ee7768"/><path d="M356.86,797.19a104.09,104.09,0,0,0,23.89,2.95C376.08,805.26,363.34,799.38,356.86,797.19Z" transform="translate(-285.66 -13.91)" fill="#ee7768"/><path d="M560.69,490.08c-2-2.56,3.19-3.78,1.17-6.5,4.34,2.3,6,28-.41,23.94-.92-2.11,2.63-.8,2.59-2.7C564,500.66,567.18,486.16,560.69,490.08Z" transform="translate(-285.66 -13.91)" fill="#ee7768"/><path d="M480,487.51c1.17,7.33.12,14.74,3.75,21.53C478.16,507.66,479.24,492.59,480,487.51Z" transform="translate(-285.66 -13.91)" fill="#ee7768"/><path d="M459.24,306.93c-.19,13.17.36,27.09-.19,39.9C459.24,333.66,458.68,319.74,459.24,306.93Z" transform="translate(-285.66 -13.91)" fill="#ee7768"/><path d="M460,371.4c-.19,12.7.37,26.14-.19,38.47C460,397.18,459.47,383.73,460,371.4Z" transform="translate(-285.66 -13.91)" fill="#ee7768"/><path d="M444,400.32c.43-11.78-.82-25.25.43-36.2C444,375.94,445.22,389.19,444,400.32Z" transform="translate(-285.66 -13.91)" fill="#ee7768"/><path d="M345.66,362.13c.39-2.81-5.42-10.07-2.23-13.13C347,351.5,344.83,359.47,345.66,362.13Z" transform="translate(-285.66 -13.91)" fill="#ee7768"/><path d="M564.76,453c.61-7.67-1-17.81.29-24.21C566.7,434,567.35,449,564.76,453Z" transform="translate(-285.66 -13.91)" fill="#ee7768"/><path d="M443.53,310.18c-.25,9.64.48,20.24-.24,29.41C443.53,330,442.81,319.38,443.53,310.18Z" transform="translate(-285.66 -13.91)" fill="#ee7768"/><path d="M580,393.43c-.21,7.41.41,15.65-.21,22.66C580,408.64,579.36,400.58,580,393.43Z" transform="translate(-285.66 -13.91)" fill="#ee7768"/><path d="M482.31,462.55c-.39-3.41,3.51-5.08,3.49-.88C486,464.37,482,466.17,482.31,462.55Z" transform="translate(-285.66 -13.91)" fill="#ee7768"/><path d="M617.75,771.76c-3.45-3.61-4.46-8.41-6.09-12.91C613.73,763.06,616.48,767.42,617.75,771.76Z" transform="translate(-285.66 -13.91)" fill="#ee7768"/><path d="M453.79,315.41c.18-5.17-.35-11,.18-15.86C453.79,304.72,454.31,310.59,453.79,315.41Z" transform="translate(-285.66 -13.91)" fill="#ee7768"/><path d="M347.13,400.27c2.69-.89,4.65-.17,6.78.86C351.52,402.47,349.56,401.73,347.13,400.27Z" transform="translate(-285.66 -13.91)" fill="#ee7768"/><path d="M296.5,934.39c-3.55.34-6.26.69-9.2-.54C290.53,932.38,293.05,932.45,296.5,934.39Z" transform="translate(-285.66 -13.91)" fill="#ee7768"/><path d="M439.7,706.39a29.05,29.05,0,0,1,1.36-13.12C441.09,697.68,439.32,702,439.7,706.39Z" transform="translate(-285.66 -13.91)" fill="#ee7768"/><path d="M579.63,182.78c-.67-1.37-2.6-5.85-.73-6C580.73,177.1,580.48,181.13,579.63,182.78Z" transform="translate(-285.66 -13.91)" fill="#ee7768"/><polyline points="95.1 227.76 56.82 325.68 67.25 809.89" fill="none" stroke="#000" stroke-miterlimit="10" stroke-width="2"/><polyline points="350.4 220.39 393.34 328.3 393.34 797.09" fill="none" stroke="#000" stroke-miterlimit="10" stroke-width="2"/><path d="M591,1018l18-7q-2-16.5-4-33l146-33c1.66-15.58-6-65-6-65s-74.64-70-115.77-120.83c-58.37-72.2-8.45-137.16-69-328.57-15-47.23-28-75-42.51-74.76-15.39.28-27,32.21-41.8,84.27,0,0-44.56,156.53-66.81,325.2h0a715.29,715.29,0,0,1-58.26,63.84c-36.54,35.44-51.58,42.29-58.93,66.85-7.78,26-4.6,63.89-4.6,63.89h0C405.56,957.81,441.84,967,443.85,979c1.23,7.38-9.92,19.14-4.41,32.3,2.53,6,7.48,9.77,11.23,12" transform="translate(-285.66 -13.91)" fill="none" stroke="#000" stroke-miterlimit="10" stroke-width="2"/></svg>