<svg xmlns="http://www.w3.org/2000/svg" viewBox="0 0 1005.96 205.41"><path d="M34.32,481.39c-3.05-5.34-8.61-8.37-10.41-14.26S19.69,456,19,449.84-1.73,437.4-1.58,431.26,7.6,418,8.45,412c.89-6.24-6.11-15.46-4.64-21.22,1.6-6.28,8.88-12.36,10.93-17.73,2.46-6.42,18.74-6.57,21.45-11.14,4.52-7.64,6.53-28.93,10.2-29.19,4.44-.31,12.36,20.14,16,29.08,2.18,5.32-10.37,17.95-7.57,24.5,2.49,5.83,5.55,13.86,9,19.51s28.36-6.87,33.21-2.5,6,1.68,12.56,3.8c5.25,1.71,5.33,29.58,12,30.08,6,.45,12.64-25.81,18.82-26,6.57-.2,14.5,26.53,20.09,26,9-.87,17.43,3.14,19.89,2.75,5.16-.81,7.34-18.39,12.08-18.64s15-15,20.15-13.15c5.59,2,7,17.8,10,21.18,3.29,3.69,8,7,11,11.26,2.65,3.76,2.19,8.81,6.72,12.19,5,3.71,8.41,9.08,14.28,10.44,5.61,1.3,11.46-6.35,17.8-6.56,5.72-.18,14.05,21,20.29,20.08,5.74-.84,6.59-32.92,12.71-34,6.82-1.21,11.72,2.38,16.22,1.07,6.72-2,7.1-9.13,11.64-11.22,4.77-2.19,11.72-3.31,18.16-5.52,4.41-1.51,17.65,24.67,24.49,23.21,4.54-1,8.61-6.29,15.06-7.14,5.09-.68,9.52-12.33,15.58-12.65,5.3-.28,10.71,19.22,16.62,19.37,5.38.14,13.47-34.39,19.27-33.76,5.4.59,11.72,6,17.4,7.16,5.36,1.05,8.65,14.43,14.19,16.05,9.91,2.88,7.74,17.47,11.89,19.52,3.78,1.87,9.59,5.71,19.38,8.54,5.63,1.62,14.47-4.65,21.24-2.92,6.09,1.56,13.75-2.19,20.27-1.14s12.85-15.89,19.25-15.88c6.65,0,8.86,2.52,15,.84S607,471,612.13,466.8c6-4.79-1.82-23.51,1.41-28.27,4.8-7.09,10.35-11.27,16.64-11.07,6.56.2-5.95,16.73-1,24.12,3.27,4.93,12.35,16.66,19.27,21.05,6,3.76,20.42,7.66,27.22,8.63s16.13-19.86,22.81-21c7.23-1.27,16.48,2.85,22.1,0,8.76-4.49,1.48-18.54,4.46-23.22,3.12-4.89,3.73-20.67,11.7-25.92,5.16-3.39,19.07-.2,24.49-1.22,5.62-1.06,13.57,8.71,19.39,9.37,5.58.63,12.73-3.38,18.41-2,5.53,1.39,7.57,16.81,13.14,18.25s11.54,6.79,17.15,7.58c5.77.83,13.47-7.21,19.15-7.86s2.33-21.42,7.72-24.19c6-3.06,7.82-.46,11.82-5.19,4.11-4.88,34.07,6.39,36.78.65s-14.32-20.62-12.29-26.39c2.32-6.61-.73-15.69,1.64-20.72,3.34-7.1,17.11,10.6,23.22,10.33,4.92-.22-.65-8.82,6-.1,3.14,4.12,10.74,6,15.31,13.09,3.16,4.87,5.1,11.46,9.2,18,3.57,5.67,21.36,2,24.53,7,3.61,5.76-13.36,23.79-10.26,28.77,3.69,5.93,17.54,4.73,20.48,9.58,3.87,6.36,16.63,6.36,19.18,10.91,5.35,9.54-4.11,18.33-4.64,20.45-1.27,5.14,5.41,22.44-1,25.83-4.49,2.37-12.34,9.2-19,10.83-5.25,1.29-13.75-3.45-20.18-2.57-5.52.77-14.28-25.87-20.57-25.37-5.66.45-9.79,29.58-16,29.84-5.73.24-12.12-5.61-18.27-5.51-5.78.1-11.89,13-18,12.95-5.82,0-11.48-35.72-17.56-35.81-5.85-.1-12.57,35.18-18.62,35-5.87-.16-11.58-11.84-17.6-12.05s-11.67-6-17.67-6.25-11.13-17.15-17.11-17.42-11.71-3.24-17.68-3.52-13,23.38-19,23.09-11.46-9.63-17.41-9.91-12.33,8.52-18.26,8.24-11.46-11-17.37-11.25-11.63-9.17-17.53-9.4-12-1-17.91-1.15c-6.12-.2-12.62,12.48-18.64,12.33s-12.13-4.67-18.16-4.77-12.11-14.22-18.13-14.28-12.39,17.94-18.42,17.93-12.15,12.29-18.17,12.32-12.2-5.92-18.22-5.84-12.23-2.48-18.25-2.36-12.23-.78-18.25-.61-12.7-13.81-18.71-13.6-12.34-.46-18.35-.2-12.45-2.22-18.45-1.92-10.61,30.72-16.61,31.06-12.37-3.41-18.37-3S421,503,415,503.44,402,492.85,396,493.31s-11.46,10.53-17.44,11c-6.14.51-11.85,5-17.82,5.54-6.14.54-12.76-5.27-18.72-4.72-6.15.57-11.34,10.12-17.3,10.69-6.15.6-11.1,11.88-17.05,12.48-6.15.62-15.83-34.56-21.77-34C279.7,495,275.23,511,269.3,511.6c-6.17.64-11.48,8.4-17.4,9-6.18.64-10.94,14.11-16.86,14.7-6.19.63-13.17-7.62-19.07-7.06-6.21.6-13.41-11.25-19.31-10.74-6.23.54-10.93,18.77-16.82,19.21-6.26.46-12.72-1.51-18.59-1.2-6.29.34-13.41-27.81-19.26-27.66-6.33.15-12.15,27.57-18,27.47-6.37-.1-13.27,2.19-19,1.74-6.38-.5-12.13-9.93-17.82-10.9-6.33-1.09-9-14.44-14.51-16.19-6.08-2-11.86-.59-16.92-3.47-5.4-3.08-23.67,8.44-27.94,4.17S37.45,486.87,34.32,481.39Z" transform="translate(2.08 -332.22)" fill="#dce2df"/><path d="M34.32,481.39c-3.05-5.34-8.61-8.37-10.41-14.26S19.69,456,19,449.84-1.73,437.4-1.58,431.26,7.6,418,8.45,412c.89-6.24-6.11-15.46-4.64-21.22,1.6-6.28,8.88-12.36,10.93-17.73,2.46-6.42,18.74-6.57,21.45-11.14,4.52-7.64,6.53-28.93,10.2-29.19,4.44-.31,12.36,20.14,16,29.08,2.18,5.32-10.37,17.95-7.57,24.5,2.49,5.83,5.55,13.86,9,19.51s28.36-6.87,33.21-2.5,6,1.68,12.56,3.8c5.25,1.71,5.33,29.58,12,30.08,6,.45,12.64-25.81,18.82-26,6.57-.2,14.5,26.53,20.09,26,9-.87,17.43,3.14,19.89,2.75,5.16-.81,7.34-18.39,12.08-18.64s15-15,20.15-13.15c5.59,2,7,17.8,10,21.18,3.29,3.69,8,7,11,11.26,2.65,3.76,2.19,8.81,6.72,12.19,5,3.71,8.41,9.08,14.28,10.44,5.61,1.3,11.46-6.35,17.8-6.56,5.72-.18,14.05,21,20.29,20.08,5.74-.84,6.59-32.92,12.71-34,6.82-1.21,11.72,2.38,16.22,1.07,6.72-2,7.1-9.13,11.64-11.22,4.77-2.19,11.72-3.31,18.16-5.52,4.41-1.51,17.65,24.67,24.49,23.21,4.54-1,8.61-6.29,15.06-7.14,5.09-.68,9.52-12.33,15.58-12.65,5.3-.28,10.71,19.22,16.62,19.37,5.38.14,13.47-34.39,19.27-33.76,5.4.59,11.72,6,17.4,7.16,5.36,1.05,8.65,14.43,14.19,16.05,9.91,2.88,7.74,17.47,11.89,19.52,3.78,1.87,9.59,5.71,19.38,8.54,5.63,1.62,14.47-4.65,21.24-2.92,6.09,1.56,13.75-2.19,20.27-1.14s12.85-15.89,19.25-15.88c6.65,0,8.86,2.52,15,.84S607,471,612.13,466.8c6-4.79-1.82-23.51,1.41-28.27,4.8-7.09,10.35-11.27,16.64-11.07,6.56.2-5.95,16.73-1,24.12,3.27,4.93,12.35,16.66,19.27,21.05,6,3.76,20.42,7.66,27.22,8.63s16.13-19.86,22.81-21c7.23-1.27,16.48,2.85,22.1,0,8.76-4.49,1.48-18.54,4.46-23.22,3.12-4.89,3.73-20.67,11.7-25.92,5.16-3.39,19.07-.2,24.49-1.22,5.62-1.06,13.57,8.71,19.39,9.37,5.58.63,12.73-3.38,18.41-2,5.53,1.39,7.57,16.81,13.14,18.25s11.54,6.79,17.15,7.58c5.77.83,13.47-7.21,19.15-7.86s2.33-21.42,7.72-24.19c6-3.06,7.82-.46,11.82-5.19,4.11-4.88,34.07,6.39,36.78.65s-14.32-20.62-12.29-26.39c2.32-6.61-.73-15.69,1.64-20.72,3.34-7.1,17.11,10.6,23.22,10.33,4.92-.22-.65-8.82,6-.1,3.14,4.12,10.74,6,15.31,13.09,3.16,4.87,5.1,11.46,9.2,18,3.57,5.67,21.36,2,24.53,7,3.61,5.76-13.36,23.79-10.26,28.77,3.69,5.93,17.54,4.73,20.48,9.58,3.87,6.36,16.63,6.36,19.18,10.91,5.35,9.54-4.11,18.33-4.64,20.45-1.27,5.14,5.41,22.44-1,25.83-4.49,2.37-12.34,9.2-19,10.83-5.25,1.29-13.75-3.45-20.18-2.57-5.52.77-14.28-25.87-20.57-25.37-5.66.45-9.79,29.58-16,29.84-5.73.24-12.12-5.61-18.27-5.51-5.78.1-11.89,13-18,12.95-5.82,0-11.48-35.72-17.56-35.81-5.85-.1-12.57,35.18-18.62,35-5.87-.16-11.58-11.84-17.6-12.05s-11.67-6-17.67-6.25-11.13-17.15-17.11-17.42-11.71-3.24-17.68-3.52-13,23.38-19,23.09-11.46-9.63-17.41-9.91-12.33,8.52-18.26,8.24-11.46-11-17.37-11.25-11.63-9.17-17.53-9.4-12-1-17.91-1.15c-6.12-.2-12.62,12.48-18.64,12.33s-12.13-4.67-18.16-4.77-12.11-14.22-18.13-14.28-12.39,17.94-18.42,17.93-12.15,12.29-18.17,12.32-12.2-5.92-18.22-5.84-12.23-2.48-18.25-2.36-12.23-.78-18.25-.61-12.7-13.81-18.71-13.6-12.34-.46-18.35-.2-12.45-2.22-18.45-1.92-10.61,30.72-16.61,31.06-12.37-3.41-18.37-3S421,503,415,503.44,402,492.85,396,493.31s-11.46,10.53-17.44,11c-6.14.51-11.85,5-17.82,5.54-6.14.54-12.76-5.27-18.72-4.72-6.15.57-11.34,10.12-17.3,10.69-6.15.6-11.1,11.88-17.05,12.48-6.15.62-15.83-34.56-21.77-34C279.7,495,275.23,511,269.3,511.6c-6.17.64-11.48,8.4-17.4,9-6.18.64-10.94,14.11-16.86,14.7-6.19.63-13.17-7.62-19.07-7.06-6.21.6-13.41-11.25-19.31-10.74-6.23.54-10.93,18.77-16.82,19.21-6.26.46-12.72-1.51-18.59-1.2-6.29.34-13.41-27.81-19.26-27.66-6.33.15-12.15,27.57-18,27.47-6.37-.1-13.27,2.19-19,1.74-6.38-.5-12.13-9.93-17.82-10.9-6.33-1.09-9-14.44-14.51-16.19-6.08-2-11.86-.59-16.92-3.47-5.4-3.08-23.67,8.44-27.94,4.17S37.45,486.87,34.32,481.39Z" transform="translate(2.08 -332.22)" fill="none" stroke="#000"/></svg>