<svg xmlns="http://www.w3.org/2000/svg" viewBox="0 0 1963.09 1753.98"><path d="M1374.8,1726.18c33.52,5.43,82-19.11,95.93,22.31,10.88,6.63,10.24-24.27,23.54-21.41,20.58,6.86,75.74-8.88,78.86,9-14.83,28-30,55.79-46.8,82.62,16.86,62.3,91.45,117.17,136.34,168.24,192.45,182.54,449.38,294.6,714.26,310.33,35.3,2.17,70.62,1.77,105.92,1.72-627,23.41-1315.72,5.69-1963.08,16.43,257.48-21.63,599.59-124,796-352.07,34.28-45.73,101.79-94.8,109-148.67C1408.13,1785.53,1386,1757.25,1374.8,1726.18Zm-303.8,578c273.31,3.15,552.84-2,828.26-2.35-44.86-27.93-93.65-48.33-137.29-78.7C1247.48,1848.69,1707.19,1951.6,1071,2304.22Zm-441.41,2.28c259.56,33.26,503.52-113.47,687.68-285.63,23.12-32.48,133.23-109.6,88.43-142C1216.19,2097,936.75,2282.75,629.59,2306.5Zm1689.22-7.91C2016,2271.86,1740,2093.33,1547.35,1880.48c-33.88,30.24,46,77.69,63.42,105.43C1797.71,2164.29,2051.45,2327.6,2318.81,2298.59Zm-179.48,3.17c-245.43-64.28-446.62-217.53-612.92-390.35-26.47,30.72,37,61.83,52.53,88.53C1731.07,2141.54,1922.51,2302.66,2139.33,2301.76Zm-1297.8,4.72c189.48,11.7,423.39-183.74,549.75-317.34,11.92-22.7,63.66-47.93,40.73-73.72-6.93-11.61-11.75,1.21-17.52,6.51-41.29,53-88.77,100.88-139.21,145.19C1150.35,2177.52,1000.56,2257.53,841.53,2306.48Zm592-488.73c5.67-11.67,19.72-19.45,11.91-31.7-14.69-15.72-19.18-50.84-41.6-54.54C1357.41,1723.62,1426.92,1796.37,1433.55,1817.75Zm71.89,110.34c-22.06-35.5-26.43-45.39-51.3-4.73-7.45,13.87,14.29,25.69,20,37.45C1485.64,1968.09,1499.84,1937.46,1505.44,1928.09ZM1565,1734.81c-34.32-8.44-39.21,26-54.51,48.49-8.93,15.22-9.09,15.13,1.18,29.26C1523.66,1832.39,1559.07,1748.08,1565,1734.81Zm-67,58c7-18,36.4-45.06,27.17-58.46C1478.15,1723.2,1468.25,1761.33,1498,1792.77Zm-44.91-4.7c26.69-26.69,10-65.2-27.6-56.8C1417.37,1745.44,1446.25,1769.31,1453.08,1788.07Zm58.16,133.54c25-19,4.8-35.28-9.6-53.58-7.05-8.68-11.49,8.61-16.32,12.35C1480.15,1894.68,1502.25,1910.81,1511.24,1921.61Zm-52.35-56.15c-15.29,13.94-43.6,52.38-9.55,54.49C1462.92,1901.15,1484.71,1884.46,1458.89,1865.46Zm15.13-99.4c-19.53,20.19-17,35,.59,54.33,7.8,7.61,12.47-13,17.51-17.37C1496.39,1790,1479.43,1779.09,1474,1766.06Zm-15.92,86.32c22.36-16.07,11.93-36.67-5.6-51.12C1431.07,1817.93,1442.54,1836,1458.1,1852.38Zm39.48.54c4.74-10.66,17-18.77,15.17-29.15-4.84-3.88-10.1-22.49-16.85-16.08C1480.93,1824.72,1481.13,1836.06,1497.58,1852.92Zm-19.49,27c5-7.64,16.85-16,14-25-5-3.75-9.82-21.2-16.69-15.41C1460.76,1854.06,1462.56,1866.53,1478.09,1879.92Z" transform="translate(-519.77 -561.48)" fill="#ee7968"/><path d="M1071,2304.22c637.18-353.44,176.09-455.33,691-81,43.65,30.36,92.43,50.76,137.31,78.68C1623.86,2302.24,1344.28,2307.37,1071,2304.22Z" transform="translate(-519.77 -561.48)" fill="#f0c05a"/><path d="M629.59,2306.5c307.13-23.72,586.66-209.58,776.09-427.67,45.27,31.64-65.84,110.32-88.41,142.05C1133.13,2193,889.12,2339.77,629.59,2306.5Z" transform="translate(-519.77 -561.48)" fill="#fff"/><path d="M2318.81,2298.59c-267.38,29-521.07-134.28-708-312.68-18-28.39-96.78-74.46-63.44-105.4C1740.09,2093.37,2015.91,2271.83,2318.81,2298.59Z" transform="translate(-519.77 -561.48)" fill="#fff"/><path d="M2139.33,2301.76c-216.83.89-408.24-160.21-560.39-301.81-15.77-26.89-78.72-57.63-52.55-88.52C1692.7,2084.24,1894,2237.52,2139.33,2301.76Z" transform="translate(-519.77 -561.48)" fill="#f0c05a"/><path d="M841.53,2306.48c159-48.95,308.82-129,433.75-239.36,50.44-44.31,97.91-92.18,139.21-145.19,5.64-5.19,10.68-18.2,17.51-6.51,23.3,25.51-29.12,51.26-40.71,73.71C1265,2122.67,1031.22,2318.11,841.53,2306.48Z" transform="translate(-519.77 -561.48)" fill="#f0c05a"/><path d="M1433.55,1817.75c-6.59-21.31-76.15-94.13-29.71-86.23,22.44,3.68,26.92,38.81,41.62,54.52C1453.28,1798.32,1439.21,1806.05,1433.55,1817.75Z" transform="translate(-519.77 -561.48)" fill="#fff"/><path d="M1505.44,1928.1c-5.57,9.4-19.82,39.94-31.25,32.72-5.78-11.76-27.48-23.59-20.06-37.46C1479,1882.68,1483.41,1892.61,1505.44,1928.1Z" transform="translate(-519.77 -561.48)" fill="#f0c05a"/><path d="M1565,1734.81c-5.9,13.25-41.19,97.43-53.32,77.76-10.28-14.14-10.12-14-1.19-29.27C1525.75,1760.79,1530.64,1726.36,1565,1734.81Z" transform="translate(-519.77 -561.48)" fill="#fff"/><path d="M1498,1792.77c-29.77-31.47-19.8-69.57,27.16-58.46C1534.4,1747.73,1504.93,1774.71,1498,1792.77Z" transform="translate(-519.77 -561.48)" fill="#fff"/><path d="M1453.08,1788.07c-6.82-18.71-35.71-42.66-27.61-56.8C1463.06,1722.87,1479.76,1761.39,1453.08,1788.07Z" transform="translate(-519.77 -561.48)" fill="#fff"/><path d="M1511.24,1921.61c-9-10.78-31.08-26.94-25.92-41.22,4.81-3.77,9.29-21,16.33-12.36C1516,1886.32,1536.28,1902.61,1511.24,1921.61Z" transform="translate(-519.77 -561.48)" fill="#fff"/><path d="M1458.89,1865.46c25.82,19,4,35.69-9.55,54.48C1415.29,1917.81,1443.6,1879.42,1458.89,1865.46Z" transform="translate(-519.77 -561.48)" fill="#fff"/><path d="M1474,1766.06c5.42,13,22.36,23.89,18.1,37-5,4.38-9.72,25-17.52,17.39C1457.07,1801.08,1454.49,1786.24,1474,1766.06Z" transform="translate(-519.77 -561.48)" fill="#fff"/><path d="M1458.1,1852.38c-15.56-16.34-27-34.46-5.59-51.12C1470,1815.72,1480.46,1836.31,1458.1,1852.38Z" transform="translate(-519.77 -561.48)" fill="#fff"/><path d="M1497.58,1852.92c-16.45-16.87-16.65-28.2-1.67-45.22,6.76-6.44,12,12.2,16.83,16.07C1514.58,1834.15,1502.32,1842.25,1497.58,1852.92Z" transform="translate(-519.77 -561.48)" fill="#fff"/><path d="M1478.09,1879.92c-5.15-7.07-16.43-15.34-14-24,4.88-4,9.81-22.51,16.82-16.3C1496.44,1854,1492.75,1866.15,1478.09,1879.92Z" transform="translate(-519.77 -561.48)" fill="#fff"/><path d="M1545.67,1736.84c-10.91,1.52-19.2,17.73-30.4,9.8-16.49-6.63-17.66-32.64-37.79-29.34-13.41.18-5.58,39.51-8.86,50.34-.2,3.66,1.81,9.81-3.5,10-8,2.68-4.83-41.44-7.2-49.48-10.83,2.9-10.3,16.43-22.37,15.47-30,9.2-33.18-18-48.85,1.7-17.3,13.34,14-93.44,13-103.34,2.47-8-7.63-5.09-12.28-5.49-55.94,3.4-111.91,1.62-167.77-2.12-12.06.37-7.4-11.18-8.32-19-2.66-16.68,4.51-31.17,10.12-46,17.86-20.71,38.95-39.36,58.29-58.88,5.33-5.11,7.18-10.32,6.88-17.58q-3.73-89.39-6.9-178.79c-4.62-108-5.26-217-12.45-324.47-6.55-10.88-4.65-24.7-1.87-35.48,5.91-4.53,6-10.95,5.45-17.29-1.79-19.45,4.71-37.54,9-55.95,8.76-21,13.39-117.39,48-73.6,11.1,25.59,16.36,53.78,30.54,77.59a105.15,105.15,0,0,0,8.88-43c-1.23-65.58,12.07-131.32,36-192.22,15.15-25.19,40.56-84.1,70.54-88.2,21.43,4.43,31.82,30.74,44.64,46.68,32.35,49.51,46.44,107.63,55.84,165.22,5.91,23.08-3.47,88,10.62,101.68,4.47,4.12,2.15,19.9,8.94.69,8.68-24.5,17.92-48.84,25.45-73.69,2-13,24.43-16.4,29-2.31,9.34,37.86,18.92,75.65,27.85,113.6,2.88,10.41-.73,22.44,2.4,32.74,5.48,10.28,3.26,21.52,4.39,32.34-13.88,71.68-6.78,148.93-12.81,222.67-3.65,93.22-7,186.47-11.19,279.67-.38,7.85,1.46,13.75,7,19.65,25.4,33.81,84.57,70.13,67.58,117.77-6.28,7.74.94,27-13.17,25-16,.11-32-.14-48-.35-35.33-.47-70.65-1-106-1.45-6.7-.07-7.3.81-6.69,7.66-.88,17.9,19,112.77-10.08,99.91C1545.1,1745.82,1549.57,1740.71,1545.67,1736.84Zm-141.32-518.39c-10.06,21.45-10.55,47.37-17.1,70.55,1.19,32.77,16.84,64,15,98-4.53,67.26.27,134.67-3.47,201.33-.31,3.69.22,6.83,4.74,7.17,18.57,8.91,33.3,25.91,56.39,24,8.22.06,8.46-.15,8.67-8.28q.85-33.46,1.33-67c.89-21.55-12.2,6.42-59-26.56-7-11.92,15.09.33,18.42,3,7.25,6.21,42.41,15.23,40.75.07q.4-34,.46-68c2.08-15.24-17.76-4.23-26.22-10.15-11-5.56-22.49-10.07-33.55-15.44-5-5.46,3.91-6.36,7.43-3.49,12.31,3.77,46.84,26.36,52.59,7.64.3-25.32.86-50.63,1.13-76,.09-8-.47-9-8.57-8.33-11.82.93-22.19-2.23-32.29-7.91-5.09-4.64-22.21-6-21.65-13.34,4.46-6,15.44,4.87,21.29,6.1,9.16,4.46,44.14,19.47,41.42-1,.2-22.67.52-45.33.41-68-.11-21.44,4.27-19.25-19-18.52-8.15-.21-35.46-5.82-36.94-12.56,2.19-9,41,17.23,42.07.42-.43-5.4-1.69-13.4,6.25-12.53,9.2,2.61,34.31-4,36.93,6.15-1.93,24.93,25.58,4.83,36.8.33,6.14-2.24,5.41,6,.29,6.88-10.31,3.65-20.08,12.59-31,12.88-5.82-2.1-11.88-1.19-17.84-1.33-10.55-.27-10.6-.14-10.7,10-.17,27-.6,54-.56,81,1.43,10.11,28.59,5.51,36.23,2.19,7.38-1.95,24.28-14.67,29.88-9.27-.18,7.81-16.21,8.4-21.81,13-31.36,18.92-48.17-15.75-45.13,36.3,2.57,10.69-7.54,62.62,6.3,60.09,18.14.88,35-7.15,52.45-11.23,6.09-2.85,8.65,6,1.82,6.33-85,26.8-56.33-13.65-61.75,87.52-1.53,17.85,43.13,2.1,53.71,1.65,6.3-.65,4.69,7.3-.87,6.87-14.38,2.14-28.18,7.64-43.25,6-9.5-1-9.67-.15-9.84,9q-.63,33-1.16,66c-.15,9.44-.1,9.58,9.23,9.36,8.11,1.62,23.58-5.36,28.35,1.89.23,2.67-1.95,3.2-4,3.34-8.31.56-16.61,1.19-24.93,1.49-8.83.32-9,.16-9.47,8.69-1.11,20-2.26,39.91-3,59.88-5,28.69,15.32,5.76,26.32,21.86,11.39,18.29,19.52,33.42,41,15.37,12.63-11.62,19.21.44,18.4-16.61.35-25.17-2.09-50.87-6.09-75.49-7.8-10.57-11.66-23.11-17.5-34.65-4.13-8.16-2.92-10.08,6.48-9.09,15.39,1.6,30.86,1.88,46.28,3,35.53,2.69,71.13,4.69,106.71,6.76,20.79,1.22,17.41,1.79,17.33-16.9-5.13-26.38-53.93-56.89-71.81-80.63-74.59-65.82-59.55-65-71.23-157.54-11.46-82.35-17.78-165.71-39.08-246.3-1.93-16.67-24.75-1.83-35.59-3.82-90.62,6.64-52.22-40.71-80.93,70.69-2,10.77,13-7.66,11.78-13.14.14-2.59,3.21-2.94,5.54-3.43,18.16-2.14,34.35-15.18,52.25-15.36,15.3,6.63,42.76,7.85,52.3,21.22-1.87,12.63,10.63,33-9.83,34-14.37,4.48-7.64-15.32-22-15.84-18-1.37-45.33-10.48-57.83,6.13-5.06,9-20.06,10.34-27.74,3-13.84,18.5,3.73,72.24-6.94,86.13C1401.79,1267,1406.94,1232.73,1404.35,1218.45Zm-111,276.27c4.75-1.22,6.39-3.89,8.46-5.94,14.58-17.74,38.48-30.51,46.12-52.65,6.51-28.24,13.27-56.42,19.89-84.63,9.68-49.07,1.63-100.41,3.56-150.3-3.72-58,6.18-118.6-6.74-174.69-2.76-38.72,1.42-78.43-6.46-116.5-9.41-13.29-38.61-145.93-55.3-94.3-8.42,41.91-26.05,82.74-25.49,125.92.47,5.41.29,10.65-4.64,14.49-3.89,9.35-4.15,23.11,1.67,32.59,1.68,2.24,1.28,5.13.94,7.78-1.72,12.5,40.12,14.11,49.94,13.57,5.84-1.33,6.73,6.83.44,6.47-13.78,5.68-54.51-14.74-49.93.71,3.85,15.51-4.68,78.4,10.68,80.42,11.9,3.08,23.45,7.81,36.17,5.56,2-.35,4.32,0,4.52,2.6-5,15.4-49.45-10.7-47.87,1.7,3.54,13.29-5.13,82.32,9.69,80,7.2,2.09,38.63-.63,39.21,5.2-1.41,7.06-17.17,2.52-22.88,2.88-8,.41-25.19-7-22.49,6.66q.93,32.48,2.26,64.93c-2.82,13.19,29.22,9.74,38,10.47,2.27-.18,5.36-.51,5.63,2.54-1.71,7.85-17.31,3.58-23.57,3.74-8.26-.37-22.37-7.09-19.58,7,1.07,18.63,1.61,37.28,2,55.93.35,10.9,1,11.47,12.11,12.63,8.22,3.39,20.86-4.65,24.88-.36-2.47,11.12-20.36,7.65-28.81,6.51-6.61-.59-7-.53-6.86,6,2.9,11.74-4.4,60.93,8.37,60.83,7.81,2.87,18.94-1.81,25,2.74.72,2.6-1.45,3.32-3.22,4.21-7.73,5.75-26.59-7.6-27.81,4.85C1292,1460.81,1292.68,1477.37,1293.37,1494.72Zm310.51-393.29c-4.34,23.09-.76,47.63-2.23,71.36-3.16,17.63,17.46,9.85,18.2,19.51-3.45,8.76-20-9.89-18.48,4.57q-1.18,34-2.09,67.94c-2.32,11.3,9.89,9.45,17.34,13.25,3.42,1,1.74,6.71-1.8,5.69-7-.91-17.43-8.31-15.54,4.24.32,19.32.84,38.64,1.35,58,.23,8.4.34,8.36,8.15,11.18,3,1.08,8.34,1.27,7.45,5-1.19,5-6,1.94-9.27,1.27-13.21-6.47-6.2,27.43-9.48,35.81-2,16.61,5.5,29.93,15,42,12.7,13.55,23.76,31.4,39.3,40.92,3.09-48.45,4.06-97.09,6.26-145.61,7.52-117.74,2.29-239.59,16.89-355.32,4.15-12.29-2.86-26.48-4.16-39-1.64-11.36.5-23.33-3-34.68-7.14-12.76-21.63-136.32-40.94-105.15-23.82,57.4-17.2,121.89-25.08,182.78-3.31,13.29,12.63,10.88,20.94,15.1,8.47,7.71-6.09,5.88-10.38,3.74-11.3-2.93-11.42-2.93-11.18,8.31.5,22.65,1.43,45.3,1.58,68-.26,10.54,1.29,18.15,13.69,19.84C1623.33,1109.68,1608,1103.94,1603.88,1101.43Zm-212.14,252.35c-15.16,35.86-10.27,83.19-29.22,118-30.74,36.47-105.91,82.9-116.65,125.19-5.19,13.7,88.38-2.44,101.7.07,10.41-3.15,43.43,3.49,44.62-9.21,3-41.37-.64-82.69,1.88-124.33C1392.23,1427.32,1401.79,1388.71,1391.74,1353.78Zm190.59,44.56c-3.95,12.37-1.72,35.29,6.32,48.15,34.62,41.59,76.06,77.61,114.17,116,10.91,10.39,15.6,21.06,15,35.75-.67,15.23-.1,15.67-15.68,14.84-39.23-2.1-78.44-4.57-117.6-7.73-7.18,1.59-51-9.28-41.2,4.65,5.63,8.19,6.4,24.58,18.63,24.51,51.32.19,102.62,1.33,153.93,2.09,3.77.06,7.1-.91,7.19-5.06-.25-10.73,7.69-19.4,7.91-29.62-4.13-13-6.84-26.73-16.24-37.21C1670.45,1509.4,1609.13,1465.22,1582.33,1398.34Zm-114.65,236.78c3.93-15.61-18.81-4.53-31.64-13.82-8.17-1.79-25.16-17.21-25.23-1.19-6.41,33-13,66-19.29,99-4.19,11.33,11.09,10.59,17.72,16.06,17.82,9.58,39-.85,43.26-20.2,2.37-5.81,0-18.89,7.3-20.21C1469.76,1700.34,1465.2,1643.15,1467.68,1635.12Zm-83.45-318.32c-18,43.75-15.55,97.29-39.09,138.32-37.81,45.76-109.91,89-127,144.36-2.19,9,22.23,8,22.25-8.69,11.81-39.16,84.79-86.21,114.32-121.09,21.61-38.56,19.11-89,31.81-131.66C1388,1330.86,1387.21,1324.43,1384.23,1316.8Zm23.27,287.56c-59.63-8.42-121.85,6-182.43,6.54-6.42.44-6.88,1.13-6.94,8.19-.06,7.29.21,7.62,6.48,8.42,54.84,3.53,109.82,5.16,164.72,2C1401,1628,1401,1613.14,1407.5,1604.36ZM1472.19,1095c16,.52,30.7-2.43,45.51-4.2,6.09-.73,6.62-1.68,5.3-7.84-4.14-8.26-.35-28-13.08-26.89-22.39,1.36-44.94,5.47-67.12-1.74-9.68-1.87-7.61,21-11.18,27.63C1429.55,1093.59,1464.28,1096,1472.19,1095Zm40.84-46.12c-3.89-40.39-28-12-53.7-21.61-14.26-4.26-14.44-3.67-18,11.45C1434.26,1059.9,1501.05,1049.44,1513,1048.87Zm90.83-175.44c-21,34.15-16.95,74.15-18.09,112.49-.49,6.61,10.53,7,9.64.39C1598.06,948.68,1601.71,911.11,1603.86,873.43Zm-25.6,381.3c-.6,7,.92,14.71,9.73,14.21,7-.13,3.75-7.12,5.17-10.89.92-21.26-.05-42.58,2-63.8,1.07-5.72-5.3-10.75-11.64-10.63C1575.52,1183.53,1582,1242.85,1578.26,1254.73Zm15.47,66h-.53c-2.62-13,7.58-44.91-11.28-46-3.28,0-3.86,2-3.93,4.52-.61,20.92-1.17,41.83-1.82,62.75-.35,6.63,7,6.72,11.63,8.54C1599.21,1353.47,1591.66,1327.55,1593.73,1320.68Zm-11.37-186.5h-.7c3,13-9.34,43.63,10.47,44.7,5.19-.64,3.23-5.1,3.28-8,.17-23.93.91-48,.48-71.84C1575.05,1072.54,1584.14,1123.54,1582.36,1134.18Zm12.63-47.67c.13-12.94,4.62-87.1-5.94-88.76-4.86-.14-3.35,3.94-3.57,6.54-2,23.58-1.43,47.24-1.9,70.86C1583.41,1083.63,1584.63,1084.61,1595,1086.51Zm-66.9,88.44h-.3c4-16.48-12.56-17.32-24-22.06-7.82-2.6-8-2.54-10.48,5.12-4.75,14.44-4.94,11.64,8.7,14.59,7.59,1.65,15.19,2.16,16.4,12.2.29,2.41,2.25,4,5.1,3.52C1530.15,1187.45,1527.61,1179.65,1528.09,1175Zm.56-452.37c-.53-8.72-8.33-68.7-20.06-70.16-4.15,1.65-1.69,5.86-.52,8.71a165.85,165.85,0,0,1,11.65,47.26c1.77,5.51-.79,17,6.08,18.54C1528.89,726.62,1528.63,723.8,1528.65,722.58ZM1426,1180.17c-.47,5.83.12,6,6,5.28,10.56-1.42,9.21-17.11,21.13-15.32,4.36-.41,12.74.07,9.59-6.58-2.53-13.61-7-10-17.45-6.31C1427.46,1162,1427.45,1162,1426,1180.17Zm22.92-163.51c8.09,6.42,51.43,9.68,49.86-.74C1488.68,999.81,1461.81,1005.08,1448.9,1016.66Zm83-155.11h.09c1.87,8-4.42,30.89,3.71,33.57,2.46-.14,3-2.42,3-4.45-2.05-11.9,4.53-56.37-3.39-60.87C1527.89,831.78,1533.52,854.36,1531.86,861.55Zm57.45,536.28c3.42.17,7-41.12.42-40C1560.73,1344.73,1583.56,1387.68,1589.31,1397.83Zm-52.57-594.44c-2.07-6.53.79-48-9.47-36.62C1526.07,771.79,1529.65,827.87,1536.74,803.39Zm-60.28,365.94c3.41,0,6.68.08,7.58-3.74,1.12-5.58,6.57-12,2.63-17.75-6.75-5-26.49-1.29-18.83,11C1468.88,1163.51,1470.35,1170.77,1476.46,1169.33Zm4.38,68.26v.35c5-.94,14.55,3,15-4.69.07-4-1.53-6.3-5.75-6.36l-19-.3c-7.68-2-8.18,11.76-.3,11C1474.19,1237.52,1477.52,1237.59,1480.84,1237.59Z" transform="translate(-519.77 -561.48)" fill="#d96759"/><path d="M1404.35,1218.45c2.59,14.33-2.57,48.4,4.93,55.68,10.66-13.82-6.89-67.7,6.94-86.13,7.68,7.31,22.68,6,27.75-3,12.48-16.78,39.82-7.34,57.82-6.14,14.43.59,7.63,20.33,22,15.84,20.92-1.48,7.69-21.2,9.83-34-9.15-13.31-37.25-14.6-52.3-21.22-17.9.16-34.09,13.23-52.25,15.36-2.33.49-5.4.84-5.54,3.43,1.35,5-13.77,24.37-11.77,13.14,28.76-111.66-9.71-63.94,80.92-70.69,10.87,1.8,33.65-12.57,35.59,3.82,21.3,80.59,27.62,164,39.07,246.3,11.82,93.24-3.49,91.36,71.24,157.54,18.12,24,66.46,54,71.82,80.63.07,18.69,3.45,18.12-17.34,16.9-35.58-2.07-71.18-4.07-106.71-6.76-15.42-1.17-30.89-1.45-46.28-3-9.4-1-10.61.93-6.48,9.09,5.84,11.54,9.7,24.08,17.5,34.65,4,24.62,6.43,50.3,6.09,75.49.76,17.26-5.8,4.9-18.39,16.62-21.43,17.58-29.25,3.67-41-15.38-10.89-15.92-31.62,6.47-26.32-21.86.7-20,1.85-39.93,3-59.88.47-8.53.64-8.37,9.47-8.69,8.32-.3,16.62-.93,24.93-1.49,2-.14,4.22-.67,4-3.33-4.71-7.07-20.27-.43-28.35-1.9-9.33.22-9.38.08-9.23-9.36q.54-33,1.16-66c.17-9.13.34-10,9.84-9,15.07,1.67,28.87-3.83,43.25-6,5.47.18,7.25-7.29.87-6.88-11,.52-54.57,16.23-53.71-1.64,5.43-101.13-23.31-60.73,61.75-87.52,6.74-.38,4.35-9.13-1.82-6.33-17.41,4.08-34.31,12.11-52.44,11.23-13.8,2.76-3.77-49.55-6.32-60.09-3.06-52,13.85-17.42,45.14-36.31,6-4.89,21-4.74,21.81-13-5.93-5.4-22.35,7.36-29.87,9.26-7.55,3.21-34.82,8.06-36.25-2.17,0-27,.4-54,.57-81,.1-10.15.15-10.28,10.7-10,6,.14,12-.77,17.84,1.33,10.92-.32,20.67-9.2,31-12.88,5-.62,5.94-9.4-.29-6.88-11.17,4.37-38.76,24.68-36.8-.32-2.7-10.49-27.67-3.34-36.93-6.17-7.93-.77-6.69,7.06-6.25,12.54-1,16.72-39.85-9.24-42.07-.42,1,6.36,29.18,12.66,36.94,12.56,23.32-.73,18.94-2.92,19,18.52.11,22.66-.21,45.32-.41,68,2.66,20.34-32.1,5.53-41.42,1-6-1.35-16.65-12-21.29-6.12-.35,7.47,16.5,8.65,21.65,13.36,10.1,5.67,20.47,8.83,32.29,7.9,8.1-.63,8.66.35,8.57,8.33-.27,25.32-.83,50.63-1.13,76-5.87,18.74-40.13-3.86-52.58-7.64-3.42-2.91-12.54-1.93-7.44,3.49,11.06,5.37,22.58,9.88,33.55,15.44,8.45,6,28.31-5.12,26.22,10.15q-.07,34-.46,68c2,15.26-33.8,5.94-40.74-.07-3.42-2.44-25.29-15.16-18.43-3,46.81,33,59.9,5,59,26.56q-.46,33.48-1.33,67c-.21,8.13-.45,8.34-8.68,8.28-23.08,1.84-37.81-15-56.37-24-4.53-.34-5.06-3.48-4.76-7.17,3.74-66.66-1-134.07,3.49-201.33,1.88-34-13.77-65.21-15-98C1393.79,1265.8,1394.3,1239.93,1404.35,1218.45Z" transform="translate(-519.77 -561.48)" fill="#fff"/><path d="M1293.37,1494.72c.38-66.2-15-53.07,25.77-55.33,1.77-.89,3.94-1.61,3.22-4.21-6.1-4.45-17.23.06-25-2.74-12.68.85-5.56-50-8.39-60.83-.17-6.5.26-6.56,6.87-6,8.43,1.34,26.35,4.49,28.81-6.51-3.7-4.17-16.83,3.67-24.88.36-11.14-1.16-11.76-1.73-12.11-12.63-.39-18.65-.93-37.3-2-55.93-2.79-14.1,11.32-7.36,19.58-7,6.26,0,21.87,4,23.57-3.73-.27-3-3.36-2.72-5.63-2.55-8.8-.64-40.89,2.62-38-10.46q-1.29-32.46-2.26-64.93c-2.72-13.69,14.52-6.26,22.49-6.67,6.11-.41,20.88,4.32,22.88-2.87-.31-5.76-32.2-3.16-39.21-5.21-4.81-.15-7.3-1.82-7.44-7,.94-25.32-4.82-52.69-.57-77,13.61.51,36,14.81,46.19,2.34-.2-2.64-2.57-3-4.52-2.6-12.72,2.25-24.27-2.48-36.16-5.56-15.46-2.39-6.76-64.42-10.69-80.42-4.67-15.52,36.4,5,49.93-.72,6.26.67,5.43-8.09-.44-6.47-15,1.77-29-2.73-43.38-5.61-9.94-.62-4.37-10.09-7.5-15.73-5.85-9.63-5.53-23.12-1.68-32.6,4.94-3.83,5.12-9.07,4.65-14.48-1.69-19.69,3.85-38.32,8.38-57.07,30.21-154.61,39-52.39,72.41,25.45,9.56,48.55.47,99.63,12.54,147.23-3.79,126.92,16.44,256-22.8,378.89a29.26,29.26,0,0,1-8.45,15.38C1323.18,1465.27,1311.46,1483.34,1293.37,1494.72Z" transform="translate(-519.77 -561.48)" fill="#fff"/><path d="M1603.88,1101.43c4.1,2.5,19.46,8.25,12.52-1.34-12.4-1.67-14-9.32-13.69-19.84-.15-22.65-1.08-45.3-1.58-68-.24-11.24-.12-11.24,11.18-8.31,4.39,2.2,18.85,3.91,10.38-3.74-8.32-4.23-24.24-1.77-20.94-15.1,3.37-42.84,7.39-85.64,9.71-128.53,27-137,41.3,2.25,56.31,50.9,3.46,11.36,1.32,23.31,3,34.68,1.31,12.47,8.31,26.73,4.17,39-14.61,115.74-9.38,237.57-16.9,355.32-2.2,48.52-3.17,97.16-6.26,145.6-15.54-9.45-26.61-27.42-39.31-40.91-9.45-12-16.93-25.37-15-42,3.23-8-3.67-42.51,9.48-35.81,3.29.67,8.08,3.73,9.27-1.27.89-3.75-4.47-3.94-7.45-5-7.81-2.82-7.92-2.78-8.15-11.18-.51-19.32-1-38.64-1.35-58-1.88-12.61,8.58-5.06,15.54-4.24,3.55.89,5.21-4.54,1.8-5.69-7.45-3.86-19.66-1.93-17.34-13.24q.87-34,2.09-68c-1.55-14.46,15,4.17,18.48-4.57-.71-9.63-21.37-1.9-18.2-19.51C1603.12,1149.06,1599.54,1124.53,1603.88,1101.43Z" transform="translate(-519.77 -561.48)" fill="#fff"/><path d="M1391.74,1353.78c10,34.92.49,73.54,2.33,109.72-2.52,41.64,1.09,83-1.88,124.33-1.14,12.8-34.25,6-44.61,9.2-13.6-2.35-106.86,13.45-101.71,0,10.4-41.91,86.16-89,116.64-125.21C1381.47,1437,1376.58,1389.63,1391.74,1353.78Z" transform="translate(-519.77 -561.48)" fill="#fff"/><path d="M1582.33,1398.34c26.8,66.88,88.12,111.07,132.38,166.42,9.4,10.48,12.11,24.24,16.24,37.21-.22,10.22-8.16,18.89-7.91,29.62-.09,4.15-3.42,5.12-7.19,5.06-51.31-.76-102.61-1.9-153.93-2.09-12.27.1-13-16.35-18.63-24.51-10-13.85,34.31-3.1,41.2-4.65,39.16,3.16,78.37,5.63,117.6,7.73,15.58.83,15,.39,15.68-14.84.65-14.69-4-25.36-14.94-35.75-38.12-38.44-79.56-74.46-114.18-116C1580.58,1433.56,1578.4,1410.74,1582.33,1398.34Z" transform="translate(-519.77 -561.48)" fill="#283447"/><path d="M1467.68,1635.12c-2.47,8.06,2.08,65.12-7.88,59.67-9.73,4.14-3.65,22.54-11.51,30.21-12.35,19.41-33.73,14.9-50.7,4.44-7.3-3-7.45-2.84-6.07-10.31,6.26-33,12.88-66,19.29-99,.07-16.06,17.06-.55,25.23,1.19C1448.93,1630.61,1471.57,1619.51,1467.68,1635.12Z" transform="translate(-519.77 -561.48)" fill="#fff"/><path d="M1384.23,1316.8c3,7.63,3.74,14.06,2.26,21.24-12.68,42.68-10.2,93.11-31.79,131.66-29.48,34.81-102.67,82.1-114.34,121.09,0,16.78-24.4,17.59-22.23,8.69,17.38-55.76,89.06-98.41,127-144.37C1368.68,1414.08,1366.27,1360.56,1384.23,1316.8Z" transform="translate(-519.77 -561.48)" fill="#283447"/><path d="M1407.5,1604.36c-6.46,8.78-6.55,23.61-18.17,25.16-54.9,3.15-109.88,1.52-164.72-2-6.27-.8-6.54-1.13-6.48-8.42.06-7.06.52-7.75,6.94-8.18C1285.65,1610.37,1347.86,1595.94,1407.5,1604.36Z" transform="translate(-519.77 -561.48)" fill="#283447"/><path d="M1472.19,1095c-8,1-42.53-1.39-40.56-13,3.51-6.61,1.55-29.5,11.17-27.65,22.18,7.22,44.73,3.11,67.12,1.75,12.77-1.17,8.89,18.63,13.09,26.89,1.31,6.16.78,7.11-5.31,7.84C1502.89,1092.56,1488.19,1095.51,1472.19,1095Z" transform="translate(-519.77 -561.48)" fill="#283447"/><path d="M1513,1048.87c-11.89.57-78.76,11-71.75-10.16,3.61-15.12,3.79-15.71,18-11.45C1485,1036.84,1509.14,1008.48,1513,1048.87Z" transform="translate(-519.77 -561.48)" fill="#fff"/><path d="M1603.86,873.43c-2.15,37.68-5.8,75.25-8.45,112.88.89,6.64-10.13,6.22-9.64-.39C1586.91,947.59,1582.87,907.58,1603.86,873.43Z" transform="translate(-519.77 -561.48)" fill="#283447"/><path d="M1578.26,1254.73c3.68-12-2.71-71.27,5.23-71.11,6.35-.12,12.71,4.91,11.65,10.63-2,21.22-1.06,42.54-2,63.8-1.42,3.8,1.81,10.73-5.17,10.89C1579.18,1269.41,1577.66,1261.77,1578.26,1254.73Z" transform="translate(-519.77 -561.48)" fill="#283447"/><path d="M1593.73,1320.68c-2.07,6.94,5.49,32.71-5.93,29.85-4.58-1.82-12-1.92-11.63-8.54.65-20.92,1.21-41.83,1.82-62.75.07-2.51.65-4.54,3.92-4.52,18.85,1,8.68,33,11.29,46Z" transform="translate(-519.77 -561.48)" fill="#283447"/><path d="M1582.36,1134.18c1.78-10.64-7.31-61.64,13.53-35.1.43,23.89-.31,47.91-.48,71.84-.05,2.86,1.91,7.32-3.28,8-19.81-1-7.43-31.69-10.47-44.7Z" transform="translate(-519.77 -561.48)" fill="#283447"/><path d="M1595,1086.51c-10.36-1.9-11.58-2.88-11.41-11.36.47-23.62-.11-47.28,1.9-70.86.22-2.6-1.29-6.68,3.57-6.54C1599.64,999.52,1595.1,1073.38,1595,1086.51Z" transform="translate(-519.77 -561.48)" fill="#283447"/><path d="M1528.09,1175c-.48,4.7,2.06,12.5-4.59,13.37-2.85.51-4.81-1.11-5.1-3.52-1.21-10-8.81-10.55-16.4-12.2-13.64-2.95-13.45-.15-8.7-14.59,2.39-14.62,17.65-.07,26.36.54,9,1.73,8.43,9.1,8.13,16.4Z" transform="translate(-519.77 -561.48)" fill="#283447"/><path d="M1528.65,722.58c0,1.22.24,4-2.85,4.35-6.87-1.49-4.31-13-6.09-18.54a165.5,165.5,0,0,0-11.64-47.26c-1.17-2.85-3.63-7.06.51-8.7C1520.26,653.74,1528.14,713.88,1528.65,722.58Z" transform="translate(-519.77 -561.48)" fill="#fff"/><path d="M1426,1180.17c1.47-18.19,1.48-18.16,19.31-22.94,10.41-3.67,14.93-7.31,17.45,6.32,3.15,6.65-5.23,6.17-9.59,6.58-11.92-1.79-10.57,13.89-21.13,15.32C1426.1,1186.17,1425.51,1186,1426,1180.17Z" transform="translate(-519.77 -561.48)" fill="#283447"/><path d="M1448.9,1016.66c12.88-11.58,39.8-16.85,49.86-.74C1500.29,1026.33,1457.12,1023.11,1448.9,1016.66Z" transform="translate(-519.77 -561.48)" fill="#283447"/><path d="M1531.86,861.55c1.61-7-3.88-30.15,3.37-31.75,7.89,4.19,1.38,49.17,3.4,60.87,0,2-.51,4.31-3,4.45-8.11-2.55-1.85-25.64-3.71-33.57Z" transform="translate(-519.77 -561.48)" fill="#fff"/><path d="M1589.31,1397.83c-5.74-10.11-28.58-53.12.42-40C1596.29,1356.83,1592.78,1397.59,1589.31,1397.83Z" transform="translate(-519.77 -561.48)" fill="#fff"/><path d="M1536.74,803.39c-7.09,24.44-10.66-31.5-9.47-36.62C1537.52,755.4,1534.67,796.83,1536.74,803.39Z" transform="translate(-519.77 -561.48)" fill="#fff"/><path d="M1476.46,1169.33c-6.11,1.44-7.58-5.82-8.63-10.54-7.65-12.24,12.1-16,18.84-11,3.94,5.74-1.51,12.17-2.63,17.75C1483.14,1169.41,1479.87,1169.29,1476.46,1169.33Z" transform="translate(-519.77 -561.48)" fill="#fff"/><path d="M1480.84,1237.59c-3.32,0-6.65-.07-10,0-7.88.75-7.38-13,.3-11,7.47,1.87,24.35-4.68,24.71,6.66-.47,7.71-10,3.75-15,4.69Z" transform="translate(-519.77 -561.48)" fill="#fff"/></svg>