<svg xmlns="http://www.w3.org/2000/svg" viewBox="0 0 1185.02 1343.17"><path d="M1212.63,2605.83c1.16-111.37,75.26-207.24,191.91-225.68,14.46-2.28,29.2-3.65,43.83-2,7,.81,10.06-1.82,13.1-7.54a385.41,385.41,0,0,1,78.1-101.87c56.66-52.9,123.22-86.83,198.83-103.29a462.2,462.2,0,0,1,73.24-9.64,315.35,315.35,0,0,1,94.11,9.33c50.37,12.57,99,29.34,143.17,57.24,63.15,39.85,112.57,92.33,146.36,159.08,3.57,7,7.28,9.07,15.23,8.81,91.33-3,168.52,60,184.07,147,10.73,60-6.9,112.68-48.87,157-28,29.59-62.23,47.62-102.49,53.77a173.74,173.74,0,0,1-64.55-2c-8.82-2-8.79-1.9-13,6-16.51,30.69-36,59.18-61.55,83.19a69.42,69.42,0,0,0-8.57,9.72c-5.12,7.05-10.59,13.84-17.1,19.53-21.86,19.11-37.74,42.93-53.69,66.77-10,15-21.41,28.92-33.19,42.52a111.22,111.22,0,0,0-14,19.43c-5.92,10.83-13,20.91-20.07,31-18.12,26.08-27.53,56-38.49,85.36-3.9,10.42-5.27,19.4.71,29.85s7.35,22.76,12.81,33.51a6.92,6.92,0,0,1,.75,2.88c.4,25.55,3.27,51.17-8.12,75.69-8.71,18.77-18.33,37-28.2,55.14-12.46,22.88-23.56,46.29-28.36,72.23a60.46,60.46,0,0,0,2.22,31,232.87,232.87,0,0,1,10.94,64.75c.26,8.21-5.66,13.66-6.65,21.18-.41,3.06-4.51,3.43-7.51,1.36-2-1.4-2.9-3.6-3.76-5.77a145.12,145.12,0,0,1-10.17-41.53c-1.44-17-2.45-33.89-1.19-50.89.27-3.55-1.09-6.42-2.65-9.42-8.74-16.85-16.93-34-26.14-50.6-13.09-23.6-21.1-48.81-25.91-75.2-3.1-17-6.43-34-9.55-51.07A61.7,61.7,0,0,1,1789,3186c1.62-6.31,1-12.34-.39-18.7-8.77-39-20.42-77.26-32.51-115.37a52.93,52.93,0,0,0-4.95-12c-9.6-15.57-18.91-31.34-29-46.56-9.12-13.73-21.57-24.46-34.45-34.56q-32.24-25.3-62.9-52.47a48.42,48.42,0,0,0-5.41-4.43c-20.56-13.35-38-30.31-54.84-47.9-12.45-13-26.3-24.59-38.53-37.79-3.55-3.82-6.64-2.87-10.67-1.39a217.48,217.48,0,0,1-81.29,13.86c-117-3-202.48-89.72-218.62-189.48C1213.54,2627.7,1213.6,2616,1212.63,2605.83Zm858-181.38c7.59,4.88,10.12,13.79,15.7,20.19,2.87-1.11,4.4-3.4,6.34-5.19a188.4,188.4,0,0,1,37.14-26.88c14.15-7.7,14.31-7.76,4.8-21.56-42.16-61.22-98.07-105.44-166.45-134.15-1.37-.57-2.84-1.86-4.51.25a30.2,30.2,0,0,0,2,3.2c27.91,35,40.82,74.74,39.78,119.61-.79,34.27-.07,68.52-3.23,102.78-2.69,29.14-3.14,58.5-4.35,87.78-.73,17.65-1.71,35.42-5.1,52.62-6.23,31.64-13.12,63.2-21.82,94.28-5.49,19.58-9.5,39.44-13.46,59.35-5.41,27.16-7.85,54.67-9.39,82.25-.71,12.7-1.34,25.5-.43,38.28,2-.17,2-1.31,2.42-2.13,27.1-59.36,54.56-118.56,80.21-178.57,8.76-20.49,18.14-40.75,23.59-62.52,1-4.1,1.27-7.57-.57-11.48-6.25-13.34-9.42-27.62-12.93-41.87a145.06,145.06,0,0,1-1.61-62.27c5.57-29.74,17.57-56.52,36.73-79.89,4.33-5.29,4.79-9.52,1.41-15.17-3.23-5.41-5.76-11.24-8.59-16.88ZM1696,2447.9l0,2.42c-6.85-2.73-13.5-2-20.39.39-8.68,3.05-9,2.87-7.54,11.83,3.52,21,7.81,41.87,12.71,62.61,4.62,19.52,12.2,38,18.31,57,14.22,44.18,14.94,89.83,13.13,135.55-1.45,36.6-6.09,73.06-4.5,109.79.23,5.32.09,10.61,1.09,15.92a618.28,618.28,0,0,0,15.85,66c10.72,35,19.82,70.5,29.44,105.83,2.62,9.61,4.13,19.65,8.71,28.6a156.53,156.53,0,0,1,15.06,45.29c1.46,8.52,1.89,17.18,4.11,25.61,3,11.26,5.15,22.73,8.09,34,1.21,4.62.85,9.9,4.71,14.07,5.58-13.47,7.07-27.4,9.11-41.21,3.31-22.46,4.33-45.31,11.45-67.16-1.29,24.63-3.11,49.2-4.69,73.8-1.18,18.33-3.58,36.44-8.77,54.1-2,7-1.2,13.72.41,20.63,7.56,32.43,14.53,65,19.93,97.85.86,5.23,1.59,10.52,3.93,15.44,8.44,17.75,16.73,35.57,25.16,53.33.89,1.87,1.18,4.46,4.79,5.11,4.7-24.88,15.44-47.37,27.11-69.5a16.21,16.21,0,0,0,1.44-6.76q1.35-37,.46-74a268,268,0,0,1,1.49-37.92c3-25.8,5.7-51.62,7.61-77.53,1-13.93,2-28,4.68-41.66a955.46,955.46,0,0,1,32.85-124.46,56.92,56.92,0,0,0,2.72-14.63c1.6-22.3.09-44.62.89-66.93,1-29.37,4.58-58.36,9.4-87.31,5.76-34.57,15.93-68.06,24.35-101.95,10-40.23,17.13-80.69,19-122.11,1.15-25.62,1.89-51.3,4.39-76.81,3.91-39.91,3.8-79.86,3.14-119.84a112.4,112.4,0,0,0-6.12-36.29c-6.91-19.31-17.24-36.74-29.41-53.15a27.32,27.32,0,0,0-10.44-9.06c-10.58-4.9-20.94-10.35-31.78-14.57a64.6,64.6,0,0,0-39-3c-13.93,3.15-27.86,6.66-42.32,8.33-18.06,2.1-35.75,7.92-50,20.77-3.37,3-4.7,6.14-4.48,10.41.71,13.28,6.56,24.44,15,34.13,6.23,7.15,16.31,6.6,22.71-.47,3.79-4.19,7.14-8.78,10.85-13.06,1.86-2.16,4-5.69,7.08-3.77s2.26,5.92.91,9.1a25.13,25.13,0,0,1-2.94,5.2c-2.78,3.75-5.6,7.48-8.64,11-10.94,12.69-27.22,13.23-39.37,1.44-5.86-5.69-9.37-12.9-13-20-4.81-9.29-5.49-19-3.18-29.14,1-4.17,2.6-7.51,6.27-9.72,10.53-6.37,20.7-13.4,32.89-16.55,2.69-.7,6-.54,8.1-3.58-4.41-1.79-8.86-1.09-12.85-.05-18,4.7-36.63,6.39-54.23,13.12-14.94,5.71-28.54,13.06-39.29,24.83-19.43,21.27-32.32,46.35-40.6,73.75-6.23,20.63-7.12,42-6.45,63.37.28,8.94-.52,17.95,1.19,26.72,4.09,1.43,7.64.21,11.08-.85C1684.93,2439.92,1691.16,2441.39,1696,2447.9Zm178-218c-8.38-.82-16.49-2-24.64-2.35-34.74-1.68-69.22.34-103.32,7.62-66.94,14.29-126.58,43.29-176.93,89.81-74.14,68.5-107.79,155.15-111.18,254.69a338.57,338.57,0,0,0,6.1,74.56,427.13,427.13,0,0,0,20.29,70.88,13,13,0,0,0,3.33-.35c24-10,43.61-25.54,57.6-47.63a312.86,312.86,0,0,0,20.54-38.67A24.93,24.93,0,0,0,1568,2625c-1.32-11.9-3.14-23.82-1.84-35.85,3.38-31.2,13.1-60.43,28-88,12.39-23,29.26-41.28,54.34-50.59,4.48-1.66,4.62-4.24,4.34-8.43-1.65-24.62-1.92-49.2,1.79-73.75,4.12-27.28,16.32-51.13,29.78-74.67,20.19-35.34,52.14-51.91,90.74-58.31,2.92-.49,6.26-1,8.91,0,4.85,1.68,9,.37,13.49-1,11.11-3.34,22.17-4.61,32.9,1.58,4,2.3,8.39,1.7,12.7,1.06,8.23-1.23,16.45-2.51,24.67-3.79C1870,2232.87,1872.51,2233,1874,2229.9Zm-173,624.35c2.07-5.91-1.24-11.14-1.29-16.53-.27-29.62-1.14-59.3,2.31-88.77,2.18-18.52,2.82-37.14,3-55.64a462,462,0,0,0-3.14-57.62c-2.44-21.26-6.57-42-14.94-61.7-15-35.36-24.64-72.21-31.4-109.9-.87-4.88-2.1-5.69-6.71-3.19-11.22,6.07-21.11,13.81-29,24-13,16.8-21,36.16-28.25,55.86-6.59,17.88-10.72,36.54-11.33,55.38-.52,15.77,2.25,31.66,7,47,6.7,21.85,18,41.47,28.71,61.4,2.23,4.15,3.66,9.13,8,12.57,1.16-1.66,2-2.66,2.62-3.78,19.5-34.62,29.53-71.71,29-111.54,0-3.34,0-6.67.05-10,0-1.7.38-3.61,2.51-3.57,1.83,0,2.7,1.73,3.12,3.39a14.67,14.67,0,0,1,.3,3,232.92,232.92,0,0,1-2.7,47.71c-4.48,27.58-14.63,53.15-28.72,77.15-2.18,3.71-2.47,6.46-.41,10,6.47,11.24,12.71,22.62,19.15,33.88,15.84,27.72,33.42,54.48,46.65,83.67C1696.7,2849.58,1697.23,2852.82,1701,2854.25Zm364.94-184c-6.44,18.8-14.34,36.37-21.8,54.12-9.15,21.77-19,43.22-29,64.62-15.06,32.24-28.73,65.12-44.62,97-4.6,9.22-8.87,18.63-12.7,28.19-10.27,25.6-19.61,51.5-26.83,78.19-10.38,38.43-21,76.77-25.13,116.53a12.65,12.65,0,0,0,1.68,9c3.8-10.39,7.08-19,10.09-27.64,8-23,16.39-45.77,29.85-66.23,10.06-15.29,20.08-30.58,27.66-47.33,1.06-2.36,3-4.34,4.67-6.42,13.6-17.19,27.49-34.14,39.71-52.41,11.66-17.41,23.78-34.53,39.47-48.7,4.93-4.45,10.34-8.39,15-13.09,15-15.12,29.18-30.94,43.17-47,15.6-17.9,28.17-37.83,39.75-58.42,4.38-7.77,3.63-9.49-4.41-12.59-32.85-12.7-59.86-32.86-79.86-62.09C2071.22,2673.8,2069.76,2671.44,2066,2670.23Zm-641.56-50.32c-2.26-3.8-4.19-6.78-4.77-10.57-2.21-14.44-4.13-28.85-4.16-43.53-.06-26.59-.2-53.14,5.82-79.29,1.35-5.89-.37-7.34-6.11-6-30.68,7.17-57.41,21.12-76.54,46.89-31.1,41.88-35.8,86.88-13.79,134.21,13,28,35.79,46.58,62,61.41,12.09,6.83,25.42,8.93,39,11.11,15.55,2.5,30.1-.58,46.25-3.67-25.44-52.84-36-107.63-33.15-165.2-2.15,15.5-8.4,30-9.2,45.55C1429.56,2614.55,1427.49,2616.9,1424.39,2619.91Zm675.12-105.25c-1.94,32.36-7,64.5-17.19,95.68-4.46,13.61-8.09,27.44-12.06,41.18-1.84,6.36-.68,11.42,3.13,16.74,21.36,29.8,49,51.44,83.16,64.66,7.92,3.06,8,2.94,11.63-5a331.45,331.45,0,0,0,25.74-87.85c1.25-8.44.91-8.05-6.24-12.89-12.42-8.39-24.55-17.28-30.35-32a64.39,64.39,0,0,1,26.16-78.55c4.32-2.7,7.36-4.72,5.59-10.8-8.82-30.23-22.51-58.32-36.81-86.18-2.4-4.67-5-4.05-8.81-2.19a173.09,173.09,0,0,0-48.45,34.78c-2.93,3-3.64,5.7-2.35,9.77C2098,2479,2098.08,2496.74,2099.51,2514.66Zm-359.68,488.63q-1.71-8.19-3.41-16.37c-8.64-41.32-24.39-80-42.87-117.78-12.89-26.33-26.76-52.09-42.57-76.8-9.68-15.13-18.5-30.78-27.24-46.48-4.26-7.66-5.56-7.6-10.9-1.17a244.67,244.67,0,0,1-39.23,38.1c-11.13,8.56-23.08,15.69-35.4,22.33-5.21,2.81-5.48,4.05-1.44,8.06,4.47,4.44,9.63,8.2,14.13,12.61,11.9,11.66,23.6,23.53,35.41,35.28s24.23,22.8,38.36,31.75a67,67,0,0,1,7.73,6.27c16.64,14.28,33.23,28.61,50,42.69C1703.89,2959.77,1725,2978.05,1739.83,3003.29ZM1571.56,2646c-.53.3-1.4.5-1.54.93-4.31,13.18-12.7,23.52-21.36,34.2-16.23,20-34.44,36.91-58.56,46.67-4.36,1.77-5.46,4.37-3.85,8.54.48,1.24.9,2.5,1.3,3.77,7.19,22.76,23.22,40.06,36.45,59.08,3.12,4.48,6.73,2.7,10.52.86,30.17-14.68,55-35.77,75.8-62,3.7-4.67,3.68-8,.67-13.23-14.33-24.73-28.66-49.51-37.56-76.91C1573.14,2647,1572.87,2646,1571.56,2646ZM2085,2464.6c-39.56,43.32-51,129.85-27,172.19C2079.2,2581.68,2095,2526.23,2085,2464.6ZM1428.54,2568c1.6-7.3,3.62-13.63,5.38-20,3.88-14.16,10.21-27.48,14-41.56,10-36.62,25.66-70.65,45.27-103,.81-1.34,2.13-2.66,1.15-5-7.25-2.49-15.07-3.7-22.86-5.17-4.72-.89-7.53.6-9.32,5.09-3.06,7.73-6.63,15.27-9.71,23-17.31,43.52-25.58,88.79-25.94,135.56A25.64,25.64,0,0,0,1428.54,2568Zm762.54-165.1a106.83,106.83,0,0,0-20.58,4.38c-5.27,1.55-5.82,2.7-3.82,7.77a76.7,76.7,0,0,0,3.52,7.17,234.62,234.62,0,0,1,18.75,47.14c3.15,11.53,5.79,23.17,8.53,34.79.66,2.76,1.15,5.76,4.85,4.51,5.56-1.87,11.2-1.15,16.82-1.43,6.18-.3,6.31-.46,5.36-6.24-.91-5.56-1.71-11.14-2.87-16.65-5.41-25.76-13.92-50.54-23.94-74.83C2196.09,2405.65,2194.16,2402.16,2191.08,2402.93Zm80.54,168.42c0-17.76-13.2-39.06-29.69-47.73-2-1-4.14-3-6.44-1.44-2.81,1.9-1.1,4.71-.79,7.26a202.27,202.27,0,0,1,.32,43.72c-1.39,14.77-2,29.68-5.09,44.3-1.1,5.22,1.19,6.65,6.24,4.62C2255.38,2614.35,2272.28,2594.09,2271.62,2571.35ZM1894,3231.43c-.87,9.17-2.75,18.23-2.22,27.53.51,9-1,18.09.76,27.93,13.74-17.52,30-54.13,30.64-73.8.55-16,4.29-32.69-5.2-47.78-1.36-2.17-1.74-5-2.29-7.61-1.2-5.61-3.91-10.44-8.14-17.25-7.08,32.77-8.75,63.84-7.66,95.09C1896.14,3235.67,1897,3231.39,1894,3231.43Zm298.49-707.75c-7.85,3-13.27,8.07-17.64,13.77-8.66,11.32-13.53,23.79-11.65,38.74,1.34,10.63,5.74,19.52,10.65,28.64,3.88,7.18,9.61,11.59,16.63,14.8,5.66,2.59,7,1.83,7.07-4.69C2197.81,2584.78,2199.44,2554.52,2192.46,2523.68Zm36.44,34.38c0-4.32.15-8.65,0-13s-.81-8.61-1.06-12.93c-.87-15.28-2-16.25-17.18-14.46-1.32.15-2.6.55-3.92.74-4,.59-5.95,2.58-5,6.81.36,1.62.48,3.29.75,4.93a347.39,347.39,0,0,1,4.75,63.59c-.16,7.64-1.07,15.27-1.4,22.91-.38,8.56-.08,8.75,8.65,9,7.63.2,7.91-.08,9.17-7.05C2227.22,2598.59,2228.53,2578.36,2228.9,2558.06Zm-354.28,923.56c2-18.71-6.2-35.75-8.73-53.79C1866,3446.18,1866.61,3464.43,1874.62,3481.62Zm-171.46-622.3c-.15-.23-.25-.54-.46-.66s-.41.23-.62.36l.77,1.05Z" transform="translate(-1212.63 -2155.41)" fill="#da6a5c"/><path d="M1696,2447.9c-4.79-6.51-11-8-18.57-5.65-3.44,1.06-7,2.28-11.08.85-1.71-8.77-.91-17.78-1.19-26.72-.67-21.4.22-42.74,6.45-63.37,8.28-27.4,21.17-52.48,40.6-73.75,10.75-11.77,24.35-19.12,39.29-24.83,17.6-6.73,36.24-8.42,54.23-13.12,4-1,8.44-1.74,12.85.05-2.07,3-5.41,2.88-8.1,3.58-12.19,3.15-22.36,10.18-32.89,16.55-3.67,2.21-5.32,5.55-6.27,9.72-2.31,10.15-1.63,19.85,3.18,29.14,3.68,7.1,7.19,14.31,13,20,12.15,11.79,28.43,11.25,39.37-1.44,3-3.53,5.86-7.26,8.64-11a25.13,25.13,0,0,0,2.94-5.2c1.35-3.18,2.2-7.14-.91-9.1s-5.22,1.61-7.08,3.77c-3.71,4.28-7.06,8.87-10.85,13.06-6.4,7.07-16.48,7.62-22.71.47-8.44-9.69-14.29-20.85-15-34.13-.22-4.27,1.11-7.38,4.48-10.41,14.28-12.85,32-18.67,50-20.77,14.46-1.67,28.39-5.18,42.32-8.33a64.6,64.6,0,0,1,39,3c10.84,4.22,21.2,9.67,31.78,14.57a27.32,27.32,0,0,1,10.44,9.06c12.17,16.41,22.5,33.84,29.41,53.15a112.4,112.4,0,0,1,6.12,36.29c.66,40,.77,79.93-3.14,119.84-2.5,25.51-3.24,51.19-4.39,76.81-1.85,41.42-9,81.88-19,122.11-8.42,33.89-18.59,67.38-24.35,101.95-4.82,28.95-8.36,57.94-9.4,87.31-.8,22.31.71,44.63-.89,66.93a56.92,56.92,0,0,1-2.72,14.63,955.46,955.46,0,0,0-32.85,124.46c-2.67,13.68-3.65,27.73-4.68,41.66-1.91,25.91-4.58,51.73-7.61,77.53a268,268,0,0,0-1.49,37.92q.95,37-.46,74a16.21,16.21,0,0,1-1.44,6.76c-11.67,22.13-22.41,44.62-27.11,69.5-3.61-.65-3.9-3.24-4.79-5.11-8.43-17.76-16.72-35.58-25.16-53.33-2.34-4.92-3.07-10.21-3.93-15.44-5.4-32.87-12.37-65.42-19.93-97.85-1.61-6.91-2.45-13.68-.41-20.63,5.19-17.66,7.59-35.77,8.77-54.1,1.58-24.6,3.4-49.17,4.69-73.8-7.12,21.85-8.14,44.7-11.45,67.16-2,13.81-3.53,27.74-9.11,41.21-3.86-4.17-3.5-9.45-4.71-14.07-2.94-11.27-5.13-22.74-8.09-34-2.22-8.43-2.65-17.09-4.11-25.61a156.53,156.53,0,0,0-15.06-45.29c-4.58-8.95-6.09-19-8.71-28.6-9.62-35.33-18.72-70.78-29.44-105.83a618.28,618.28,0,0,1-15.85-66c-1-5.31-.86-10.6-1.09-15.92-1.59-36.73,3-73.19,4.5-109.79,1.81-45.72,1.09-91.37-13.13-135.55-6.11-19-13.69-37.5-18.31-57-4.9-20.74-9.19-41.59-12.71-62.61-1.49-9-1.14-8.78,7.54-11.83,6.89-2.42,13.54-3.12,20.39-.4,2.24,2.18,4.6,4.13,8.65,4.59A18.14,18.14,0,0,0,1696,2447.9Z" transform="translate(-1212.63 -2155.41)" fill="#fff"/><path d="M2068.35,2426.48c2.84,5.64,5.37,11.47,8.6,16.88,3.38,5.65,2.92,9.88-1.41,15.17-19.16,23.37-31.16,50.15-36.73,79.89a145.06,145.06,0,0,0,1.61,62.27c3.51,14.25,6.68,28.53,12.93,41.87,1.84,3.91,1.6,7.38.57,11.48-5.45,21.77-14.83,42-23.59,62.52-25.65,60-53.11,119.21-80.21,178.57-.38.82-.45,2-2.42,2.13-.91-12.78-.28-25.58.43-38.28,1.54-27.58,4-55.09,9.39-82.25,4-19.91,8-39.77,13.46-59.35,8.7-31.08,15.59-62.64,21.82-94.28,3.39-17.2,4.37-35,5.1-52.62,1.21-29.28,1.66-58.64,4.35-87.78,3.16-34.26,2.44-68.51,3.23-102.78,1-44.87-11.87-84.61-39.78-119.61a30.2,30.2,0,0,1-2-3.2c1.67-2.11,3.14-.82,4.51-.25,68.38,28.71,124.29,72.93,166.45,134.15,9.51,13.8,9.35,13.86-4.8,21.56a188.4,188.4,0,0,0-37.14,26.88c-1.94,1.79-3.47,4.08-6.34,5.19-5.58-6.4-8.11-15.31-15.71-20.19a3.08,3.08,0,0,0-1.16-1.52,19.74,19.74,0,0,0-1.73-2.3c-.87-.87-2-2-3.2-.89s0,2.38.67,3.4a16.76,16.76,0,0,0,2,2.08A2.42,2.42,0,0,0,2068.35,2426.48Zm-10.71-15.08-.43-.59.52.51c.64,2,1.45,3.85,4,4,.21.6-.26,2.07,1.27,1l-1.31-1A4.56,4.56,0,0,0,2057.64,2411.4Z" transform="translate(-1212.63 -2155.41)" fill="#fff"/><path d="M1701,2854.25c-3.78-1.43-4.31-4.67-5.45-7.2-13.23-29.19-30.81-56-46.65-83.67-6.44-11.26-12.68-22.64-19.15-33.88-2.06-3.57-1.77-6.32.41-10,14.09-24,24.24-49.57,28.72-77.15a232.92,232.92,0,0,0,2.7-47.71,14.67,14.67,0,0,0-.3-3c-.42-1.66-1.29-3.35-3.12-3.39-2.13,0-2.47,1.87-2.51,3.57-.08,3.33-.09,6.66-.05,10,.51,39.83-9.52,76.92-29,111.54-.63,1.12-1.46,2.12-2.62,3.78-4.38-3.44-5.81-8.42-8-12.57-10.69-19.93-22-39.55-28.71-61.4-4.72-15.38-7.49-31.27-7-47,.61-18.84,4.74-37.5,11.33-55.38,7.26-19.7,15.21-39.06,28.25-55.86,7.91-10.18,17.8-17.92,29-24,4.61-2.5,5.84-1.69,6.71,3.19,6.76,37.69,16.35,74.54,31.4,109.9,8.37,19.67,12.5,40.44,14.94,61.7a462,462,0,0,1,3.14,57.62c-.19,18.5-.83,37.12-3,55.64-3.45,29.47-2.58,59.15-2.31,88.77C1699.77,2843.11,1703.08,2848.34,1701,2854.25Z" transform="translate(-1212.63 -2155.41)" fill="#f0bf5a"/><path d="M2066,2670.23c3.81,1.21,5.27,3.57,6.73,5.7,20,29.23,47,49.39,79.86,62.09,8,3.1,8.79,4.82,4.41,12.59-11.58,20.59-24.15,40.52-39.75,58.42-14,16-28.2,31.85-43.17,47-4.66,4.7-10.07,8.64-15,13.09-15.69,14.17-27.81,31.29-39.47,48.7-12.22,18.27-26.11,35.22-39.71,52.41-1.65,2.08-3.61,4.06-4.67,6.42-7.58,16.75-17.6,32-27.66,47.33-13.46,20.46-21.88,43.25-29.85,66.23-3,8.67-6.29,17.25-10.09,27.64a12.65,12.65,0,0,1-1.68-9c4.1-39.76,14.75-78.1,25.13-116.53,7.22-26.69,16.56-52.59,26.83-78.19,3.83-9.56,8.1-19,12.7-28.19,15.89-31.87,29.56-64.75,44.62-97,10-21.4,19.82-42.85,29-64.62C2051.61,2706.6,2059.51,2689,2066,2670.23Z" transform="translate(-1212.63 -2155.41)" fill="#f0bf5a"/><path d="M1424.39,2619.91c3.1-3,5.17-5.36,5.36-9.1.8-15.56,7-30,9.2-45.55-2.84,57.57,7.71,112.36,33.15,165.2-16.15,3.09-30.7,6.17-46.25,3.67-13.55-2.18-26.88-4.28-39-11.11-26.25-14.83-49-33.42-62-61.41-22-47.33-17.31-92.33,13.79-134.21,19.13-25.77,45.86-39.72,76.54-46.89,5.74-1.33,7.46.12,6.11,6-6,26.15-5.88,52.7-5.82,79.29,0,14.68,2,29.09,4.16,43.53C1420.2,2613.13,1422.13,2616.11,1424.39,2619.91Z" transform="translate(-1212.63 -2155.41)" fill="#f0bf5a"/><path d="M2099.51,2514.66c-1.43-17.92-1.47-35.66-6.85-52.67-1.29-4.07-.58-6.76,2.35-9.77a173.09,173.09,0,0,1,48.45-34.78c3.79-1.86,6.41-2.48,8.81,2.19,14.3,27.86,28,55.95,36.81,86.18,1.77,6.08-1.27,8.1-5.59,10.8a64.39,64.39,0,0,0-26.16,78.55c5.8,14.72,17.93,23.61,30.35,32,7.15,4.84,7.49,4.45,6.24,12.89a331.45,331.45,0,0,1-25.74,87.85c-3.59,8-3.71,8.08-11.63,5-34.18-13.22-61.8-34.86-83.16-64.66-3.81-5.32-5-10.38-3.13-16.74,4-13.74,7.6-27.57,12.06-41.18C2092.54,2579.16,2097.57,2547,2099.51,2514.66Z" transform="translate(-1212.63 -2155.41)" fill="#fff"/><path d="M1739.83,3003.29c-14.86-25.24-35.94-43.52-57.4-61.51-16.8-14.08-33.39-28.41-50-42.69a67,67,0,0,0-7.73-6.27c-14.13-9-26.54-20-38.36-31.75s-23.51-23.62-35.41-35.28c-4.5-4.41-9.66-8.17-14.13-12.61-4-4-3.77-5.25,1.44-8.06,12.32-6.64,24.27-13.77,35.4-22.33a244.67,244.67,0,0,0,39.23-38.1c5.34-6.43,6.64-6.49,10.9,1.17,8.74,15.7,17.56,31.35,27.24,46.48,15.81,24.71,29.68,50.47,42.57,76.8,18.48,37.77,34.23,76.46,42.87,117.78Q1738.13,2995.11,1739.83,3003.29Z" transform="translate(-1212.63 -2155.41)" fill="#f0bf5a"/><path d="M1571.55,2646c1.32,0,1.59,1,1.88,1.93,8.9,27.4,23.23,52.18,37.56,76.91,3,5.19,3,8.56-.67,13.23-20.77,26.21-45.63,47.3-75.8,62-3.79,1.84-7.4,3.62-10.52-.86-13.23-19-29.26-36.32-36.45-59.08-.4-1.27-.82-2.53-1.3-3.77-1.61-4.17-.51-6.77,3.85-8.54,24.12-9.76,42.33-26.65,58.56-46.67,8.66-10.68,17-21,21.36-34.2C1570.16,2646.48,1571,2646.28,1571.55,2646Z" transform="translate(-1212.63 -2155.41)" fill="#fff"/><path d="M2085,2464.6c9.94,61.63-5.83,117.08-27,172.19C2034,2594.45,2045.47,2507.92,2085,2464.6Z" transform="translate(-1212.63 -2155.41)" fill="#f0bf5a"/><path d="M1428.54,2568a25.64,25.64,0,0,1-2-11.09c.36-46.77,8.63-92,25.94-135.56,3.08-7.73,6.65-15.27,9.71-23,1.79-4.49,4.6-6,9.32-5.09,7.79,1.47,15.61,2.68,22.86,5.17,1,2.33-.34,3.65-1.15,5-19.61,32.35-35.26,66.38-45.27,103-3.84,14.08-10.17,27.4-14,41.56C1432.16,2554.4,1430.14,2560.73,1428.54,2568Z" transform="translate(-1212.63 -2155.41)" fill="#fff"/><path d="M2191.08,2402.93c3.08-.77,5,2.72,6.62,6.61,10,24.29,18.53,49.07,23.94,74.83,1.16,5.51,2,11.09,2.87,16.65.95,5.78.82,5.94-5.36,6.24-5.62.28-11.26-.44-16.82,1.43-3.7,1.25-4.19-1.75-4.85-4.51-2.74-11.62-5.38-23.26-8.53-34.79a234.62,234.62,0,0,0-18.75-47.14,76.7,76.7,0,0,1-3.52-7.17c-2-5.07-1.45-6.22,3.82-7.77A106.83,106.83,0,0,1,2191.08,2402.93Z" transform="translate(-1212.63 -2155.41)" fill="#f0bf5a"/><path d="M2271.62,2571.35c.66,22.74-16.24,43-35.45,50.73-5.05,2-7.34.6-6.24-4.62,3.1-14.62,3.7-29.53,5.09-44.3a202.27,202.27,0,0,0-.32-43.72c-.31-2.55-2-5.36.79-7.26,2.3-1.56,4.48.4,6.44,1.44C2258.42,2532.29,2271.62,2553.59,2271.62,2571.35Z" transform="translate(-1212.63 -2155.41)" fill="#f0bf5a"/><path d="M1894,3231.43c3.07,0,2.17,4.24,5.89,4.11-1.09-31.25.58-62.32,7.66-95.09,4.23,6.81,6.94,11.64,8.14,17.25.55,2.59.93,5.44,2.29,7.61,9.49,15.09,5.75,31.82,5.2,47.78-.68,19.67-16.9,56.28-30.64,73.8-1.76-9.84-.25-18.94-.76-27.93C1891.22,3249.66,1893.1,3240.6,1894,3231.43Zm6.4,9.41c-.09.24-.28.51-.23.72.2.87.59.91,1,.1a.93.93,0,0,0-.15-.74C1900.88,3240.81,1900.57,3240.86,1900.37,3240.84Z" transform="translate(-1212.63 -2155.41)" fill="#f0bf5a"/><path d="M2192.46,2523.68c7,30.84,5.35,61.1,5.06,91.26-.07,6.52-1.41,7.28-7.07,4.69-7-3.21-12.75-7.62-16.63-14.8-4.91-9.12-9.31-18-10.65-28.64-1.88-15,3-27.42,11.65-38.74C2179.19,2531.75,2184.61,2526.72,2192.46,2523.68Z" transform="translate(-1212.63 -2155.41)" fill="#f0bf5a"/><path d="M2228.9,2558.06c-.37,20.3-1.68,40.53-5.29,60.56-1.26,7-1.54,7.25-9.17,7.05-8.73-.24-9-.43-8.65-9,.33-7.64,1.24-15.27,1.4-22.91a347.39,347.39,0,0,0-4.75-63.59c-.27-1.64-.39-3.31-.75-4.93-.94-4.23,1-6.22,5-6.81,1.32-.19,2.6-.59,3.92-.74,15.2-1.79,16.31-.82,17.18,14.46.25,4.32.88,8.61,1.06,12.93S2228.9,2553.74,2228.9,2558.06Z" transform="translate(-1212.63 -2155.41)" fill="#fff"/><path d="M1874.62,3481.62c-8-17.19-8.65-35.44-8.73-53.79C1868.42,3445.87,1876.62,3462.91,1874.62,3481.62Z" transform="translate(-1212.63 -2155.41)" fill="#fff"/><path d="M1696,2447.9a18.14,18.14,0,0,1,8.62,7c-4-.46-6.41-2.41-8.65-4.59Z" transform="translate(-1212.63 -2155.41)" fill="#f0bf5a"/><path d="M1703.16,2859.32l-.31.75-.77-1.05c.21-.13.52-.42.62-.36S1703,2859.09,1703.16,2859.32Z" transform="translate(-1212.63 -2155.41)" fill="#f0bf5a"/><path d="M2067.21,2425.22a16.76,16.76,0,0,1-2-2.08c-.69-1-1.83-2.28-.67-3.4s2.33,0,3.2.89a19.74,19.74,0,0,1,1.73,2.3Z" transform="translate(-1212.63 -2155.41)" fill="#f0bf5a"/><path d="M2061.7,2415.3c-2.52-.13-3.33-2-4-4l-.09.08a4.56,4.56,0,0,1,4,3.94Z" transform="translate(-1212.63 -2155.41)" fill="#f0bf5a"/><polygon points="845.1 255.91 844.59 255.4 845.02 255.99 845.1 255.91" fill="#f0bf5a"/><path d="M2061.66,2415.34l1.31,1c-1.53,1-1.06-.42-1.27-1Z" transform="translate(-1212.63 -2155.41)" fill="#f0bf5a"/><path d="M2067.21,2425.22l2.29-2.29a3.08,3.08,0,0,1,1.16,1.52l-2.3,2A2.4,2.4,0,0,1,2067.21,2425.22Z" transform="translate(-1212.63 -2155.41)" fill="#da6a5c"/><path d="M1900.37,3240.84c.2,0,.51,0,.58.08a.93.93,0,0,1,.15.74c-.37.81-.76.77-1-.1C1900.09,3241.35,1900.28,3241.08,1900.37,3240.84Z" transform="translate(-1212.63 -2155.41)" fill="#da6a5c"/></svg>